%TF.GenerationSoftware,KiCad,Pcbnew,7.0.9*%
%TF.CreationDate,2024-01-25T10:25:38+02:00*%
%TF.ProjectId,ncscfi-badge2024,6e637363-6669-42d6-9261-646765323032,rev?*%
%TF.SameCoordinates,Original*%
%TF.FileFunction,Copper,L2,Bot*%
%TF.FilePolarity,Positive*%
%FSLAX46Y46*%
G04 Gerber Fmt 4.6, Leading zero omitted, Abs format (unit mm)*
G04 Created by KiCad (PCBNEW 7.0.9) date 2024-01-25 10:25:38*
%MOMM*%
%LPD*%
G01*
G04 APERTURE LIST*
G04 Aperture macros list*
%AMRoundRect*
0 Rectangle with rounded corners*
0 $1 Rounding radius*
0 $2 $3 $4 $5 $6 $7 $8 $9 X,Y pos of 4 corners*
0 Add a 4 corners polygon primitive as box body*
4,1,4,$2,$3,$4,$5,$6,$7,$8,$9,$2,$3,0*
0 Add four circle primitives for the rounded corners*
1,1,$1+$1,$2,$3*
1,1,$1+$1,$4,$5*
1,1,$1+$1,$6,$7*
1,1,$1+$1,$8,$9*
0 Add four rect primitives between the rounded corners*
20,1,$1+$1,$2,$3,$4,$5,0*
20,1,$1+$1,$4,$5,$6,$7,0*
20,1,$1+$1,$6,$7,$8,$9,0*
20,1,$1+$1,$8,$9,$2,$3,0*%
G04 Aperture macros list end*
%TA.AperFunction,SMDPad,CuDef*%
%ADD10R,1.500000X1.000000*%
%TD*%
%TA.AperFunction,SMDPad,CuDef*%
%ADD11R,10.000000X5.000000*%
%TD*%
%TA.AperFunction,SMDPad,CuDef*%
%ADD12RoundRect,0.200000X-0.275000X0.200000X-0.275000X-0.200000X0.275000X-0.200000X0.275000X0.200000X0*%
%TD*%
%TA.AperFunction,SMDPad,CuDef*%
%ADD13RoundRect,0.200000X0.200000X0.275000X-0.200000X0.275000X-0.200000X-0.275000X0.200000X-0.275000X0*%
%TD*%
%TA.AperFunction,SMDPad,CuDef*%
%ADD14RoundRect,0.200000X-0.200000X-0.275000X0.200000X-0.275000X0.200000X0.275000X-0.200000X0.275000X0*%
%TD*%
%TA.AperFunction,SMDPad,CuDef*%
%ADD15R,3.500000X1.700000*%
%TD*%
%TA.AperFunction,SMDPad,CuDef*%
%ADD16R,1.700000X3.500000*%
%TD*%
%TA.AperFunction,SMDPad,CuDef*%
%ADD17RoundRect,0.100000X-0.300000X0.600000X-0.300000X-0.600000X0.300000X-0.600000X0.300000X0.600000X0*%
%TD*%
%TA.AperFunction,SMDPad,CuDef*%
%ADD18RoundRect,0.100000X0.600000X0.300000X-0.600000X0.300000X-0.600000X-0.300000X0.600000X-0.300000X0*%
%TD*%
%TA.AperFunction,SMDPad,CuDef*%
%ADD19R,5.100000X5.100000*%
%TD*%
%TA.AperFunction,SMDPad,CuDef*%
%ADD20C,17.800000*%
%TD*%
%TA.AperFunction,ViaPad*%
%ADD21C,0.800000*%
%TD*%
%TA.AperFunction,Conductor*%
%ADD22C,0.250000*%
%TD*%
G04 APERTURE END LIST*
%TA.AperFunction,EtchedComponent*%
%TO.C,JP1*%
G36*
X35100000Y-42300000D02*
G01*
X34500000Y-42300000D01*
X34500000Y-41800000D01*
X35100000Y-41800000D01*
X35100000Y-42300000D01*
G37*
%TD.AperFunction*%
%TD*%
D10*
%TO.P,JP1,3,B*%
%TO.N,PICO_3V3_OUT*%
X34800000Y-44000000D03*
%TO.P,JP1,2,C*%
%TO.N,VDD*%
X34800000Y-42700000D03*
%TO.P,JP1,1,A*%
%TO.N,+BATT*%
X34800000Y-41400000D03*
%TD*%
D11*
%TO.P,J2,1,Pin_1*%
%TO.N,GND*%
X73500000Y-94700000D03*
%TD*%
%TO.P,J1,1,Pin_1*%
%TO.N,PICO_PWR_IN*%
X73600000Y-107500000D03*
%TD*%
D12*
%TO.P,R3,1*%
%TO.N,Net-(D2-GREEN)*%
X20260000Y-53840000D03*
%TO.P,R3,2*%
%TO.N,PWM6A*%
X20260000Y-55490000D03*
%TD*%
D13*
%TO.P,R15,1*%
%TO.N,GND*%
X60625000Y-98480000D03*
%TO.P,R15,2*%
%TO.N,PWM5A*%
X58975000Y-98480000D03*
%TD*%
%TO.P,R7,1*%
%TO.N,GND*%
X60600000Y-96130000D03*
%TO.P,R7,2*%
%TO.N,HEART_RED*%
X58950000Y-96130000D03*
%TD*%
D12*
%TO.P,R6,1*%
%TO.N,Net-(D1-GREEN)*%
X45000000Y-53850000D03*
%TO.P,R6,2*%
%TO.N,LEFT_GREEN*%
X45000000Y-55500000D03*
%TD*%
D13*
%TO.P,R9,1*%
%TO.N,Net-(D3-RED)*%
X25090000Y-80190000D03*
%TO.P,R9,2*%
%TO.N,HEART_RED*%
X23440000Y-80190000D03*
%TD*%
D14*
%TO.P,R2,1*%
%TO.N,Net-(D2-BLUE)*%
X24000000Y-39000000D03*
%TO.P,R2,2*%
%TO.N,PWM5B*%
X25650000Y-39000000D03*
%TD*%
%TO.P,R10,1*%
%TO.N,Net-(D3-BLUE)*%
X45150000Y-80860000D03*
%TO.P,R10,2*%
%TO.N,HEART_BLUE*%
X46800000Y-80860000D03*
%TD*%
D15*
%TO.P,U1,43,SWDIO*%
%TO.N,SWDIO*%
X64484905Y-101009185D03*
%TO.P,U1,42,GND*%
%TO.N,GND*%
X64484905Y-98469185D03*
%TO.P,U1,41,SWCLK*%
%TO.N,SWCLK*%
X64484905Y-95929185D03*
D16*
%TO.P,U1,40,VBUS*%
%TO.N,unconnected-(U1-VBUS-Pad40)*%
X15554905Y-108259185D03*
%TO.P,U1,39,VSYS*%
%TO.N,PICO_PWR_IN*%
X18094905Y-108259185D03*
%TO.P,U1,38,GND*%
%TO.N,GND*%
X20634905Y-108259185D03*
%TO.P,U1,37,3V3_EN*%
%TO.N,PICO_EN*%
X23174905Y-108259185D03*
%TO.P,U1,36,3V3*%
%TO.N,PICO_3V3_OUT*%
X25714905Y-108259185D03*
%TO.P,U1,35,ADC_VREF*%
%TO.N,ADC_REF*%
X28254905Y-108259185D03*
%TO.P,U1,34,GPIO28_ADC2*%
%TO.N,ADC2*%
X30794905Y-108259185D03*
%TO.P,U1,33,AGND*%
%TO.N,AGND*%
X33334905Y-108259185D03*
%TO.P,U1,32,GPIO27_ADC1*%
%TO.N,ADC1*%
X35874905Y-108259185D03*
%TO.P,U1,31,GPIO26_ADC0*%
%TO.N,ADC0*%
X38414905Y-108259185D03*
%TO.P,U1,30,RUN*%
%TO.N,RUN*%
X40954905Y-108259185D03*
%TO.P,U1,29,GPIO22*%
%TO.N,unconnected-(U1-GPIO22-Pad29)*%
X43494905Y-108259185D03*
%TO.P,U1,28,GND*%
%TO.N,GND*%
X46034905Y-108259185D03*
%TO.P,U1,27,GPIO21*%
%TO.N,unconnected-(U1-GPIO21-Pad27)*%
X48574905Y-108259185D03*
%TO.P,U1,26,GPIO20*%
%TO.N,unconnected-(U1-GPIO20-Pad26)*%
X51114905Y-108259185D03*
%TO.P,U1,25,GPIO19*%
%TO.N,SPI0_MOSI*%
X53654905Y-108259185D03*
%TO.P,U1,24,GPIO18*%
%TO.N,SPI0_SCK*%
X56194905Y-108259185D03*
%TO.P,U1,23,GND*%
%TO.N,GND*%
X58734905Y-108259185D03*
%TO.P,U1,22,GPIO17*%
%TO.N,SPI0_CSN*%
X61274905Y-108259185D03*
%TO.P,U1,21,GPIO16*%
%TO.N,SPI0_MISO*%
X63814905Y-108259185D03*
%TO.P,U1,20,GPIO15*%
%TO.N,HEART_GREEN*%
X63814905Y-88679185D03*
%TO.P,U1,19,GPIO14*%
%TO.N,HEART_BLUE*%
X61274905Y-88679185D03*
%TO.P,U1,18,GND*%
%TO.N,GND*%
X58734905Y-88679185D03*
%TO.P,U1,17,GPIO13*%
%TO.N,HEART_RED*%
X56194905Y-88679185D03*
%TO.P,U1,16,GPIO12*%
%TO.N,PWM6A*%
X53654905Y-88679185D03*
%TO.P,U1,15,GPIO11*%
%TO.N,PWM5B*%
X51114905Y-88679185D03*
%TO.P,U1,14,GPIO10*%
%TO.N,PWM5A*%
X48574905Y-88679185D03*
%TO.P,U1,13,GND*%
%TO.N,GND*%
X46034905Y-88679185D03*
%TO.P,U1,12,GPIO9*%
%TO.N,LEFT_GREEN*%
X43494905Y-88679185D03*
%TO.P,U1,11,GPIO8*%
%TO.N,LEFT_BLUE*%
X40954905Y-88679185D03*
%TO.P,U1,10,GPIO7*%
%TO.N,LEFT_RED*%
X38414905Y-88679185D03*
%TO.P,U1,9,GPIO6*%
%TO.N,PWM3A*%
X35874905Y-88679185D03*
%TO.P,U1,8,GND*%
%TO.N,GND*%
X33334905Y-88679185D03*
%TO.P,U1,7,GPIO5*%
%TO.N,I2C0_SCL*%
X30794905Y-88679185D03*
%TO.P,U1,6,GPIO4*%
%TO.N,I2C0_SDA*%
X28254905Y-88679185D03*
%TO.P,U1,5,GPIO3*%
%TO.N,PWM1B*%
X25714905Y-88679185D03*
%TO.P,U1,4,GPIO2*%
%TO.N,PWM1A*%
X23174905Y-88679185D03*
%TO.P,U1,3,GND*%
%TO.N,GND*%
X20634905Y-88679185D03*
%TO.P,U1,2,GPIO1*%
%TO.N,UART0_RX*%
X18094905Y-88679185D03*
%TO.P,U1,1,GPIO0*%
%TO.N,UART0_TX*%
X15554905Y-88679185D03*
%TD*%
D17*
%TO.P,D2,1,RED*%
%TO.N,Net-(D2-RED)*%
X22500000Y-48000000D03*
%TO.P,D2,2,A*%
%TO.N,VDD*%
X22500000Y-42800000D03*
%TO.P,D2,3,BLUE*%
%TO.N,Net-(D2-BLUE)*%
X23950000Y-42800000D03*
%TO.P,D2,4,GREEN*%
%TO.N,Net-(D2-GREEN)*%
X23950000Y-48000000D03*
%TD*%
%TO.P,D1,1,RED*%
%TO.N,Net-(D1-RED)*%
X43500000Y-48000000D03*
%TO.P,D1,2,A*%
%TO.N,VDD*%
X43500000Y-42800000D03*
%TO.P,D1,3,BLUE*%
%TO.N,Net-(D1-BLUE)*%
X44950000Y-42800000D03*
%TO.P,D1,4,GREEN*%
%TO.N,Net-(D1-GREEN)*%
X44950000Y-48000000D03*
%TD*%
D18*
%TO.P,D3,1,RED*%
%TO.N,Net-(D3-RED)*%
X32640956Y-78044671D03*
%TO.P,D3,2,A*%
%TO.N,VDD*%
X37840956Y-78044671D03*
%TO.P,D3,3,BLUE*%
%TO.N,Net-(D3-BLUE)*%
X37840956Y-79494671D03*
%TO.P,D3,4,GREEN*%
%TO.N,Net-(D3-GREEN)*%
X32640956Y-79494671D03*
%TD*%
D12*
%TO.P,R11,1*%
%TO.N,Net-(D3-GREEN)*%
X25560000Y-81790000D03*
%TO.P,R11,2*%
%TO.N,HEART_GREEN*%
X25560000Y-83440000D03*
%TD*%
D13*
%TO.P,R8,1*%
%TO.N,GND*%
X60640000Y-100710000D03*
%TO.P,R8,2*%
%TO.N,LEFT_RED*%
X58990000Y-100710000D03*
%TD*%
D14*
%TO.P,R5,1*%
%TO.N,Net-(D1-BLUE)*%
X46500000Y-37500000D03*
%TO.P,R5,2*%
%TO.N,LEFT_BLUE*%
X48150000Y-37500000D03*
%TD*%
D12*
%TO.P,R1,1*%
%TO.N,Net-(D2-RED)*%
X18760000Y-53850000D03*
%TO.P,R1,2*%
%TO.N,PWM5A*%
X18760000Y-55500000D03*
%TD*%
%TO.P,R4,1*%
%TO.N,Net-(D1-RED)*%
X43500000Y-53850000D03*
%TO.P,R4,2*%
%TO.N,LEFT_RED*%
X43500000Y-55500000D03*
%TD*%
D19*
%TO.P,BT1,1,+*%
%TO.N,+BATT*%
X47260000Y-28733756D03*
X21660000Y-28733756D03*
D20*
%TO.P,BT1,2,-*%
%TO.N,GND*%
X34460000Y-28733756D03*
%TD*%
D21*
%TO.N,PICO_PWR_IN*%
X18750000Y-108100000D03*
X69200000Y-108100000D03*
%TO.N,GND*%
X61000000Y-99550000D03*
X60800000Y-104700000D03*
%TO.N,PWM5A*%
X22950000Y-104700000D03*
X48200000Y-104700000D03*
X56550000Y-104700000D03*
%TO.N,HEART_RED*%
X56550000Y-101400000D03*
X22950000Y-101329905D03*
%TO.N,HEART_GREEN*%
X22950000Y-103000000D03*
X56574500Y-103000000D03*
%TO.N,PWM5B*%
X23000000Y-97950000D03*
X56550000Y-97950000D03*
%TO.N,PWM6A*%
X22950000Y-99674500D03*
X56550000Y-99650000D03*
%TD*%
D22*
%TO.N,PICO_PWR_IN*%
X18750000Y-108100000D02*
X18750000Y-108014280D01*
X18750000Y-108014280D02*
X18094905Y-107359185D01*
X72600000Y-108000000D02*
X73100000Y-107500000D01*
X69300000Y-108000000D02*
X72600000Y-108000000D01*
X69200000Y-108100000D02*
X69300000Y-108000000D01*
X18254090Y-107354090D02*
X18100000Y-107354090D01*
X18100000Y-107354090D02*
X18094905Y-107359185D01*
%TO.N,VDD*%
X32100000Y-40053604D02*
X32100000Y-42700000D01*
X30186396Y-38140000D02*
X32100000Y-40053604D01*
X32100000Y-42700000D02*
X34800000Y-42700000D01*
%TO.N,+BATT*%
X34800000Y-41400000D02*
X34800000Y-38710000D01*
X34800000Y-38710000D02*
X35360000Y-38150000D01*
%TO.N,PICO_3V3_OUT*%
X32220000Y-44000000D02*
X32220000Y-49536396D01*
X34800000Y-44000000D02*
X32220000Y-44000000D01*
%TO.N,VDD*%
X37340000Y-45016778D02*
X37340000Y-42600000D01*
X37340000Y-42600000D02*
X37340000Y-41205000D01*
X34800000Y-42700000D02*
X37240000Y-42700000D01*
X37240000Y-42700000D02*
X37340000Y-42600000D01*
%TO.N,+BATT*%
X21700000Y-35050000D02*
X21700000Y-28500000D01*
X43900000Y-38150000D02*
X35360000Y-38150000D01*
X35360000Y-38150000D02*
X34696396Y-38150000D01*
X27210854Y-35050000D02*
X21700000Y-35050000D01*
X47300000Y-34750000D02*
X43900000Y-38150000D01*
X34696396Y-38150000D02*
X34686396Y-38140000D01*
X27215427Y-35045427D02*
X27210854Y-35050000D01*
X47300000Y-28500000D02*
X47300000Y-34750000D01*
X27215440Y-35045414D02*
G75*
G03*
X34686396Y-38140000I7470960J7470914D01*
G01*
%TO.N,GND*%
X58734905Y-89579185D02*
X58734905Y-91084905D01*
X60640000Y-100710000D02*
X60640000Y-99600000D01*
X28570000Y-28500000D02*
X22920000Y-22850000D01*
X58750000Y-86700000D02*
X58400000Y-86350000D01*
X60600000Y-98455000D02*
X60625000Y-98480000D01*
X20770000Y-54650000D02*
X21190000Y-55070000D01*
X60640000Y-98495000D02*
X60625000Y-98480000D01*
X60600000Y-92950000D02*
X60600000Y-96130000D01*
X17840000Y-54270000D02*
X18220000Y-54650000D01*
X60640000Y-99600000D02*
X60640000Y-98495000D01*
X58400000Y-86350000D02*
X46400000Y-86350000D01*
X18220000Y-54650000D02*
X20770000Y-54650000D01*
X21190000Y-56020000D02*
X20634905Y-56575095D01*
X46034905Y-86715095D02*
X46034905Y-89579185D01*
X20634905Y-56575095D02*
X20634905Y-89579185D01*
X21190000Y-55070000D02*
X21190000Y-56020000D01*
X58850000Y-107244090D02*
X58734905Y-107359185D01*
X20634905Y-110450000D02*
X46019810Y-110450000D01*
X58734905Y-105265095D02*
X58734905Y-107359185D01*
X59300000Y-104700000D02*
X58734905Y-105265095D01*
X60950000Y-99600000D02*
X60640000Y-99600000D01*
X46034905Y-110465095D02*
X46034905Y-107359185D01*
X63574090Y-98480000D02*
X60625000Y-98480000D01*
X58734905Y-89579185D02*
X58750000Y-89564090D01*
X58734905Y-110465095D02*
X46034905Y-110465095D01*
X22920000Y-22850000D02*
X19090000Y-22850000D01*
X34500000Y-28500000D02*
X28570000Y-28500000D01*
X46019810Y-110450000D02*
X46034905Y-110465095D01*
X58750000Y-89564090D02*
X58750000Y-86700000D01*
X46400000Y-86350000D02*
X46034905Y-86715095D01*
X58734905Y-107359185D02*
X58734905Y-110465095D01*
X60800000Y-104700000D02*
X59300000Y-104700000D01*
X63584905Y-98469185D02*
X63574090Y-98480000D01*
X58734905Y-91084905D02*
X60600000Y-92950000D01*
X61000000Y-99550000D02*
X60950000Y-99600000D01*
X17840000Y-24100000D02*
X17840000Y-54270000D01*
X19090000Y-22850000D02*
X17840000Y-24100000D01*
X60600000Y-96130000D02*
X60600000Y-98455000D01*
X20634905Y-107359185D02*
X20634905Y-110450000D01*
%TO.N,VDD*%
X23040000Y-38736996D02*
X23040000Y-42260000D01*
X41800000Y-52280000D02*
X41800000Y-49625000D01*
X41880000Y-54773604D02*
X41900000Y-54753604D01*
X38875000Y-40375000D02*
X38875000Y-38610000D01*
X39390000Y-79990000D02*
X44410000Y-79990000D01*
X45020000Y-38610000D02*
X38875000Y-38610000D01*
X30186396Y-38140000D02*
X23636996Y-38140000D01*
X38875000Y-45125000D02*
X37448222Y-45125000D01*
X41880000Y-69106396D02*
X41880000Y-54773604D01*
X40375000Y-49551778D02*
X40375000Y-48125000D01*
X45020000Y-38610000D02*
X45240000Y-38830000D01*
X43500000Y-42240000D02*
X43500000Y-42800000D01*
X40448222Y-49625000D02*
X40375000Y-49551778D01*
X38870000Y-79470000D02*
X39390000Y-79990000D01*
X37448222Y-40375000D02*
X38875000Y-40375000D01*
X23040000Y-42260000D02*
X22500000Y-42800000D01*
X45425000Y-72651396D02*
X41880000Y-69106396D01*
X41800000Y-49625000D02*
X40448222Y-49625000D01*
X40375000Y-48125000D02*
X38948222Y-48125000D01*
X23050000Y-38726996D02*
X23050000Y-38150000D01*
X41900000Y-54753604D02*
X41900000Y-52380000D01*
X41900000Y-52380000D02*
X41800000Y-52280000D01*
X38875000Y-48051778D02*
X38875000Y-45125000D01*
X44410000Y-79990000D02*
X45425000Y-78975000D01*
X45240000Y-38830000D02*
X45240000Y-40500000D01*
X23040000Y-38736996D02*
X23050000Y-38726996D01*
X37375000Y-41170000D02*
X37375000Y-40448222D01*
X37340000Y-41205000D02*
X37375000Y-41170000D01*
X38948222Y-48125000D02*
X38875000Y-48051778D01*
X38870000Y-78220000D02*
X38870000Y-79470000D01*
X37375000Y-40448222D02*
X37448222Y-40375000D01*
X23050000Y-38150000D02*
X23626996Y-38150000D01*
X45425000Y-78975000D02*
X45425000Y-72651396D01*
X37840956Y-78044671D02*
X38694671Y-78044671D01*
X38694671Y-78044671D02*
X38870000Y-78220000D01*
X37448222Y-45125000D02*
X37340000Y-45016778D01*
X45240000Y-40500000D02*
X43500000Y-42240000D01*
X23626996Y-38150000D02*
X23636996Y-38140000D01*
%TO.N,Net-(D1-RED)*%
X43500000Y-53850000D02*
X43990000Y-53360000D01*
X43990000Y-48490000D02*
X43500000Y-48000000D01*
X43990000Y-53360000D02*
X43990000Y-48490000D01*
%TO.N,PWM5A*%
X18900000Y-55640000D02*
X18760000Y-55500000D01*
X16800000Y-86750000D02*
X17150000Y-86400000D01*
X21750000Y-92236396D02*
X20813604Y-91300000D01*
X21700000Y-99722792D02*
X21750000Y-99672792D01*
X19413604Y-91300000D02*
X19063604Y-90950000D01*
X55850000Y-102500000D02*
X56150000Y-102200000D01*
X56550000Y-104700000D02*
X55850000Y-104000000D01*
X19063604Y-90950000D02*
X17115720Y-90950000D01*
X17115720Y-90950000D02*
X16800000Y-90634280D01*
X58200000Y-100900000D02*
X58200000Y-98650000D01*
X58370000Y-98480000D02*
X58975000Y-98480000D01*
X22463604Y-104300000D02*
X21700000Y-103536396D01*
X58200000Y-98650000D02*
X58370000Y-98480000D01*
X56150000Y-102200000D02*
X56900000Y-102200000D01*
X48574905Y-89579185D02*
X48574905Y-104325095D01*
X55850000Y-104000000D02*
X55850000Y-102500000D01*
X22550000Y-104300000D02*
X22463604Y-104300000D01*
X20813604Y-91300000D02*
X19413604Y-91300000D01*
X18900000Y-85850000D02*
X18900000Y-55640000D01*
X21700000Y-103536396D02*
X21700000Y-99722792D01*
X56900000Y-102200000D02*
X58200000Y-100900000D01*
X16800000Y-90634280D02*
X16800000Y-86750000D01*
X17150000Y-86400000D02*
X18350000Y-86400000D01*
X21750000Y-99672792D02*
X21750000Y-92236396D01*
X18350000Y-86400000D02*
X18900000Y-85850000D01*
X48574905Y-104325095D02*
X48200000Y-104700000D01*
X22950000Y-104700000D02*
X22550000Y-104300000D01*
%TO.N,Net-(D1-BLUE)*%
X46470000Y-38230000D02*
X46000000Y-38700000D01*
X46000000Y-38700000D02*
X46000000Y-40376396D01*
X46000000Y-40376396D02*
X44950000Y-41426396D01*
X44950000Y-41426396D02*
X44950000Y-42800000D01*
X46500000Y-37500000D02*
X46470000Y-37530000D01*
X46470000Y-37530000D02*
X46470000Y-38230000D01*
%TO.N,Net-(D1-GREEN)*%
X45000000Y-53850000D02*
X44440000Y-53290000D01*
X44440000Y-48510000D02*
X44950000Y-48000000D01*
X44440000Y-53290000D02*
X44440000Y-48510000D01*
%TO.N,Net-(D2-RED)*%
X22110000Y-52130000D02*
X19380000Y-52130000D01*
X23000000Y-48500000D02*
X23000000Y-51240000D01*
X23000000Y-51240000D02*
X22110000Y-52130000D01*
X18760000Y-52750000D02*
X18760000Y-53850000D01*
X22500000Y-48000000D02*
X23000000Y-48500000D01*
X19380000Y-52130000D02*
X18760000Y-52750000D01*
%TO.N,Net-(D2-BLUE)*%
X24000000Y-39000000D02*
X23490000Y-39510000D01*
X23490000Y-39510000D02*
X23490000Y-42340000D01*
X23490000Y-42340000D02*
X23950000Y-42800000D01*
%TO.N,Net-(D2-GREEN)*%
X22196396Y-52680000D02*
X20590000Y-52680000D01*
X23450000Y-48500000D02*
X23450000Y-51426396D01*
X20590000Y-52680000D02*
X20260000Y-53010000D01*
X20260000Y-53010000D02*
X20260000Y-53840000D01*
X23950000Y-48000000D02*
X23450000Y-48500000D01*
X23450000Y-51426396D02*
X22196396Y-52680000D01*
%TO.N,Net-(D3-RED)*%
X26620000Y-79950000D02*
X26380000Y-80190000D01*
X31615956Y-79584044D02*
X31615956Y-78164044D01*
X26380000Y-80190000D02*
X25090000Y-80190000D01*
X31735329Y-78044671D02*
X32640956Y-78044671D01*
X31615956Y-78164044D02*
X31735329Y-78044671D01*
X31250000Y-79950000D02*
X31615956Y-79584044D01*
X26620000Y-79950000D02*
X31250000Y-79950000D01*
%TO.N,Net-(D3-BLUE)*%
X45013598Y-80760000D02*
X45103598Y-80850000D01*
X38164671Y-79494671D02*
X39110000Y-80440000D01*
X44040000Y-80760000D02*
X45013598Y-80760000D01*
X39110000Y-80440000D02*
X43720000Y-80440000D01*
X43720000Y-80440000D02*
X44040000Y-80760000D01*
X37840956Y-79494671D02*
X38164671Y-79494671D01*
%TO.N,Net-(D3-GREEN)*%
X32365329Y-79494671D02*
X32640956Y-79494671D01*
X31460000Y-80400000D02*
X32365329Y-79494671D01*
X26950000Y-80400000D02*
X31460000Y-80400000D01*
X25560000Y-81790000D02*
X26950000Y-80400000D01*
%TO.N,LEFT_RED*%
X42780000Y-56220000D02*
X42780000Y-68733604D01*
X38414905Y-90764905D02*
X38414905Y-89579185D01*
X62250000Y-100000000D02*
X62250000Y-100550000D01*
X62742860Y-90857140D02*
X60202860Y-90857140D01*
X47650000Y-81373304D02*
X47243598Y-81779706D01*
X60845720Y-85000000D02*
X62449905Y-86604185D01*
X42780000Y-68733604D02*
X46450000Y-72403604D01*
X43500000Y-55500000D02*
X42780000Y-56220000D01*
X60000000Y-86450000D02*
X59450000Y-85900000D01*
X47986396Y-85000000D02*
X60845720Y-85000000D01*
X38700000Y-91050000D02*
X38414905Y-90764905D01*
X41834090Y-91050000D02*
X38700000Y-91050000D01*
X42250000Y-86496396D02*
X42250000Y-90634090D01*
X60202860Y-90857140D02*
X60000000Y-90654280D01*
X47243598Y-84257202D02*
X47986396Y-85000000D01*
X66650000Y-94764280D02*
X66650000Y-99400000D01*
X66650000Y-99400000D02*
X66300000Y-99750000D01*
X62500000Y-99750000D02*
X62250000Y-100000000D01*
X46450000Y-72403604D02*
X46450000Y-79136396D01*
X66300000Y-99750000D02*
X62500000Y-99750000D01*
X62742860Y-90857140D02*
X66650000Y-94764280D01*
X47243598Y-81779706D02*
X47243598Y-84257202D01*
X42250000Y-90634090D02*
X41834090Y-91050000D01*
X60000000Y-90654280D02*
X60000000Y-86450000D01*
X42846396Y-85900000D02*
X42250000Y-86496396D01*
X59450000Y-85900000D02*
X42846396Y-85900000D01*
X59980000Y-101700000D02*
X58990000Y-100710000D01*
X62449905Y-86604185D02*
X62449905Y-90564185D01*
X46450000Y-79136396D02*
X47650000Y-80336396D01*
X62449905Y-90564185D02*
X62742860Y-90857140D01*
X61100000Y-101700000D02*
X59980000Y-101700000D01*
X47650000Y-80336396D02*
X47650000Y-81373304D01*
X62250000Y-100550000D02*
X61100000Y-101700000D01*
%TO.N,LEFT_BLUE*%
X42330000Y-54960000D02*
X42330000Y-68920000D01*
X46545000Y-51125000D02*
X45900000Y-51770000D01*
X51051778Y-51125000D02*
X46545000Y-51125000D01*
X45590000Y-54660000D02*
X42630000Y-54660000D01*
X42000000Y-85450000D02*
X40954905Y-86495095D01*
X45900000Y-51770000D02*
X45900000Y-54350000D01*
X45000000Y-85450000D02*
X42000000Y-85450000D01*
X48150000Y-37500000D02*
X48150000Y-41200000D01*
X40954905Y-86495095D02*
X40954905Y-89579185D01*
X42330000Y-68920000D02*
X46000000Y-72590000D01*
X45900000Y-54350000D02*
X45590000Y-54660000D01*
X42630000Y-54660000D02*
X42330000Y-54960000D01*
X48150000Y-41200000D02*
X51360000Y-44410000D01*
X46000000Y-84450000D02*
X45000000Y-85450000D01*
X51360000Y-50816778D02*
X51051778Y-51125000D01*
X46000000Y-72590000D02*
X46000000Y-84450000D01*
X51360000Y-44410000D02*
X51360000Y-50816778D01*
%TO.N,LEFT_GREEN*%
X61032116Y-84550000D02*
X62899905Y-86417789D01*
X46900000Y-72217208D02*
X46900000Y-78950000D01*
X43230000Y-57270000D02*
X43230000Y-68547208D01*
X45000000Y-55500000D02*
X43230000Y-57270000D01*
X62899905Y-86500000D02*
X64850000Y-86500000D01*
X43230000Y-68547208D02*
X46900000Y-72217208D01*
X65000000Y-91000000D02*
X65000000Y-91700000D01*
X47693598Y-81966102D02*
X47693598Y-84070806D01*
X47693598Y-84070806D02*
X48172792Y-84550000D01*
X65000000Y-91700000D02*
X67550000Y-94250000D01*
X47899695Y-105425000D02*
X43494905Y-101020210D01*
X67550000Y-101886396D02*
X66686396Y-102750000D01*
X57275000Y-105000305D02*
X56850305Y-105425000D01*
X48100000Y-80150000D02*
X48100000Y-81559700D01*
X67550000Y-94250000D02*
X67550000Y-101886396D01*
X48100000Y-81559700D02*
X47693598Y-81966102D01*
X65150000Y-86800000D02*
X65150000Y-90850000D01*
X56850305Y-105425000D02*
X47899695Y-105425000D01*
X43494905Y-101020210D02*
X43494905Y-89579185D01*
X62899905Y-86417789D02*
X62899905Y-86500000D01*
X66686396Y-102750000D02*
X58000000Y-102750000D01*
X57275000Y-103475000D02*
X57275000Y-105000305D01*
X64850000Y-86500000D02*
X65150000Y-86800000D01*
X58000000Y-102750000D02*
X57275000Y-103475000D01*
X46900000Y-78950000D02*
X48100000Y-80150000D01*
X65150000Y-90850000D02*
X65000000Y-91000000D01*
X48172792Y-84550000D02*
X61032116Y-84550000D01*
%TO.N,HEART_RED*%
X24250000Y-100686396D02*
X24250000Y-92350000D01*
X24782116Y-86400000D02*
X24382116Y-86000000D01*
X58950000Y-96130000D02*
X56570000Y-96130000D01*
X57750000Y-100200000D02*
X57750000Y-96130000D01*
X23700000Y-86000000D02*
X23440000Y-85740000D01*
X56530000Y-96130000D02*
X56200000Y-95800000D01*
X22950000Y-101329905D02*
X23606491Y-101329905D01*
X27000000Y-86714280D02*
X26685720Y-86400000D01*
X56200000Y-95800000D02*
X56200000Y-89584280D01*
X27000000Y-90553509D02*
X27000000Y-86714280D01*
X23606491Y-101329905D02*
X24250000Y-100686396D01*
X25750000Y-90850000D02*
X26703509Y-90850000D01*
X56570000Y-96130000D02*
X56530000Y-96130000D01*
X23440000Y-85740000D02*
X23440000Y-80190000D01*
X26703509Y-90850000D02*
X27000000Y-90553509D01*
X57750000Y-96130000D02*
X56570000Y-96130000D01*
X56550000Y-101400000D02*
X57750000Y-100200000D01*
X24250000Y-92350000D02*
X25750000Y-90850000D01*
X56200000Y-89584280D02*
X56194905Y-89579185D01*
X26685720Y-86400000D02*
X24782116Y-86400000D01*
X24382116Y-86000000D02*
X23700000Y-86000000D01*
%TO.N,HEART_BLUE*%
X60400000Y-85450000D02*
X61274905Y-86324905D01*
X46793598Y-80810000D02*
X46793598Y-84443598D01*
X61274905Y-86324905D02*
X61274905Y-89579185D01*
X47800000Y-85450000D02*
X60400000Y-85450000D01*
X46793598Y-84443598D02*
X47800000Y-85450000D01*
%TO.N,HEART_GREEN*%
X25560000Y-85810000D02*
X25560000Y-83440000D01*
X67100000Y-101700000D02*
X67100000Y-94577884D01*
X29334090Y-90850000D02*
X29550000Y-90634090D01*
X24700000Y-92536396D02*
X25936396Y-91300000D01*
X25700000Y-85950000D02*
X25560000Y-85810000D01*
X57436396Y-102300000D02*
X66500000Y-102300000D01*
X27600000Y-90850000D02*
X29334090Y-90850000D01*
X22950000Y-103000000D02*
X24700000Y-101250000D01*
X66500000Y-102300000D02*
X67100000Y-101700000D01*
X56924500Y-102650000D02*
X57086396Y-102650000D01*
X24700000Y-101250000D02*
X24700000Y-92536396D01*
X29550000Y-90634090D02*
X29550000Y-86724280D01*
X26872116Y-85950000D02*
X25700000Y-85950000D01*
X67100000Y-94577884D02*
X63814905Y-91292789D01*
X29275720Y-86450000D02*
X27372116Y-86450000D01*
X56574500Y-103000000D02*
X56924500Y-102650000D01*
X27150000Y-91300000D02*
X27600000Y-90850000D01*
X63814905Y-91292789D02*
X63814905Y-89579185D01*
X25936396Y-91300000D02*
X27150000Y-91300000D01*
X29550000Y-86724280D02*
X29275720Y-86450000D01*
X27372116Y-86450000D02*
X26872116Y-85950000D01*
X57086396Y-102650000D02*
X57436396Y-102300000D01*
%TO.N,PWM5B*%
X31625000Y-40448222D02*
X31625000Y-49495000D01*
X30051778Y-38875000D02*
X31625000Y-40448222D01*
X51150000Y-89614280D02*
X51114905Y-89579185D01*
X56550000Y-97950000D02*
X51150000Y-92550000D01*
X23000000Y-92213604D02*
X23000000Y-97950000D01*
X25775000Y-38875000D02*
X30051778Y-38875000D01*
X25650000Y-39000000D02*
X25775000Y-38875000D01*
X21809905Y-91023509D02*
X23000000Y-92213604D01*
X31625000Y-49495000D02*
X21809905Y-59310095D01*
X51150000Y-92550000D02*
X51150000Y-89614280D01*
X21809905Y-59310095D02*
X21809905Y-91023509D01*
%TO.N,PWM6A*%
X57300000Y-97536396D02*
X53654905Y-93891301D01*
X19350000Y-90600000D02*
X19350000Y-56400000D01*
X21000000Y-90850000D02*
X19600000Y-90850000D01*
X57300000Y-98900000D02*
X57300000Y-97536396D01*
X22374500Y-99674500D02*
X22200000Y-99500000D01*
X56550000Y-99650000D02*
X57300000Y-98900000D01*
X22950000Y-99674500D02*
X22374500Y-99674500D01*
X22200000Y-99500000D02*
X22200000Y-92050000D01*
X19600000Y-90850000D02*
X19350000Y-90600000D01*
X22200000Y-92050000D02*
X21000000Y-90850000D01*
X19350000Y-56400000D02*
X20260000Y-55490000D01*
X53654905Y-93891301D02*
X53654905Y-89579185D01*
%TO.N,PICO_3V3_OUT*%
X22150000Y-100900000D02*
X22150000Y-103350000D01*
X22650000Y-103850000D02*
X24850000Y-103850000D01*
X23400000Y-100500000D02*
X22550000Y-100500000D01*
X23725000Y-100175000D02*
X23400000Y-100500000D01*
X23725000Y-97649695D02*
X23725000Y-100175000D01*
X32220000Y-49536396D02*
X22259905Y-59496491D01*
X23700000Y-97624695D02*
X23725000Y-97649695D01*
X23700000Y-92200000D02*
X23700000Y-97624695D01*
X22259905Y-59496491D02*
X22259905Y-85959905D01*
X24349905Y-86604185D02*
X24349905Y-91550095D01*
X22259905Y-85959905D02*
X22750000Y-86450000D01*
X24195720Y-86450000D02*
X24349905Y-86604185D01*
X22750000Y-86450000D02*
X24195720Y-86450000D01*
X22150000Y-103350000D02*
X22650000Y-103850000D01*
X25714905Y-104714905D02*
X25714905Y-107359185D01*
X22550000Y-100500000D02*
X22150000Y-100900000D01*
X24349905Y-91550095D02*
X23700000Y-92200000D01*
X24850000Y-103850000D02*
X25714905Y-104714905D01*
%TD*%
%TA.AperFunction,Conductor*%
%TO.N,GND*%
G36*
X57618265Y-86295185D02*
G01*
X57664020Y-86347989D01*
X57673964Y-86417147D01*
X57644939Y-86480703D01*
X57625538Y-86498766D01*
X57527714Y-86571997D01*
X57441554Y-86687091D01*
X57441548Y-86687101D01*
X57433583Y-86708457D01*
X57391710Y-86764389D01*
X57326245Y-86788803D01*
X57257972Y-86773949D01*
X57229722Y-86752800D01*
X57225508Y-86748586D01*
X57225506Y-86748585D01*
X57225506Y-86748584D01*
X57142645Y-86693219D01*
X57142644Y-86693218D01*
X57142640Y-86693217D01*
X57069582Y-86678685D01*
X57069579Y-86678685D01*
X55320231Y-86678685D01*
X55320228Y-86678685D01*
X55247169Y-86693217D01*
X55247165Y-86693218D01*
X55164304Y-86748584D01*
X55108938Y-86831445D01*
X55108937Y-86831449D01*
X55094405Y-86904506D01*
X55094405Y-90453863D01*
X55108937Y-90526920D01*
X55108938Y-90526924D01*
X55108939Y-90526925D01*
X55164304Y-90609786D01*
X55231696Y-90654815D01*
X55247165Y-90665151D01*
X55247169Y-90665152D01*
X55320226Y-90679684D01*
X55320229Y-90679685D01*
X55320231Y-90679685D01*
X55700500Y-90679685D01*
X55767539Y-90699370D01*
X55813294Y-90752174D01*
X55824500Y-90803685D01*
X55824500Y-95230496D01*
X55804815Y-95297535D01*
X55752011Y-95343290D01*
X55682853Y-95353234D01*
X55619297Y-95324209D01*
X55612819Y-95318177D01*
X54066724Y-93772082D01*
X54033239Y-93710759D01*
X54030405Y-93684401D01*
X54030405Y-90803685D01*
X54050090Y-90736646D01*
X54102894Y-90690891D01*
X54154405Y-90679685D01*
X54529581Y-90679685D01*
X54529582Y-90679684D01*
X54602645Y-90665151D01*
X54685506Y-90609786D01*
X54740871Y-90526925D01*
X54755405Y-90453859D01*
X54755405Y-86904511D01*
X54755405Y-86904508D01*
X54755404Y-86904506D01*
X54740872Y-86831449D01*
X54740871Y-86831445D01*
X54710697Y-86786286D01*
X54685506Y-86748584D01*
X54602645Y-86693219D01*
X54602644Y-86693218D01*
X54602640Y-86693217D01*
X54529582Y-86678685D01*
X54529579Y-86678685D01*
X52780231Y-86678685D01*
X52780228Y-86678685D01*
X52707169Y-86693217D01*
X52707165Y-86693218D01*
X52624304Y-86748584D01*
X52568938Y-86831445D01*
X52568937Y-86831449D01*
X52554405Y-86904506D01*
X52554405Y-90453863D01*
X52568937Y-90526920D01*
X52568938Y-90526924D01*
X52568939Y-90526925D01*
X52624304Y-90609786D01*
X52691696Y-90654815D01*
X52707165Y-90665151D01*
X52707169Y-90665152D01*
X52780226Y-90679684D01*
X52780229Y-90679685D01*
X52780231Y-90679685D01*
X53155405Y-90679685D01*
X53222444Y-90699370D01*
X53268199Y-90752174D01*
X53279405Y-90803685D01*
X53279405Y-93839497D01*
X53276766Y-93864943D01*
X53275118Y-93872803D01*
X53242095Y-93934376D01*
X53181026Y-93968321D01*
X53111299Y-93963862D01*
X53066076Y-93935038D01*
X51561819Y-92430781D01*
X51528334Y-92369458D01*
X51525500Y-92343100D01*
X51525500Y-90803685D01*
X51545185Y-90736646D01*
X51597989Y-90690891D01*
X51649500Y-90679685D01*
X51989581Y-90679685D01*
X51989582Y-90679684D01*
X52062645Y-90665151D01*
X52145506Y-90609786D01*
X52200871Y-90526925D01*
X52215405Y-90453859D01*
X52215405Y-86904511D01*
X52215405Y-86904508D01*
X52215404Y-86904506D01*
X52200872Y-86831449D01*
X52200871Y-86831445D01*
X52170697Y-86786286D01*
X52145506Y-86748584D01*
X52062645Y-86693219D01*
X52062644Y-86693218D01*
X52062640Y-86693217D01*
X51989582Y-86678685D01*
X51989579Y-86678685D01*
X50240231Y-86678685D01*
X50240228Y-86678685D01*
X50167169Y-86693217D01*
X50167165Y-86693218D01*
X50084304Y-86748584D01*
X50028938Y-86831445D01*
X50028937Y-86831449D01*
X50014405Y-86904506D01*
X50014405Y-90453863D01*
X50028937Y-90526920D01*
X50028938Y-90526924D01*
X50028939Y-90526925D01*
X50084304Y-90609786D01*
X50151696Y-90654815D01*
X50167165Y-90665151D01*
X50167169Y-90665152D01*
X50240226Y-90679684D01*
X50240229Y-90679685D01*
X50240231Y-90679685D01*
X50650500Y-90679685D01*
X50717539Y-90699370D01*
X50763294Y-90752174D01*
X50774500Y-90803685D01*
X50774500Y-92498196D01*
X50771862Y-92523634D01*
X50769633Y-92534268D01*
X50769633Y-92534269D01*
X50769633Y-92534271D01*
X50774023Y-92569491D01*
X50774500Y-92577167D01*
X50774500Y-92581116D01*
X50778342Y-92604141D01*
X50785134Y-92658627D01*
X50787373Y-92666147D01*
X50789934Y-92673608D01*
X50789935Y-92673610D01*
X50791367Y-92676256D01*
X50816055Y-92721877D01*
X50840174Y-92771211D01*
X50844742Y-92777609D01*
X50849582Y-92783827D01*
X50889971Y-92821009D01*
X55865481Y-97796518D01*
X55898966Y-97857841D01*
X55900896Y-97899143D01*
X55894722Y-97949997D01*
X55894722Y-97950000D01*
X55913762Y-98106818D01*
X55941358Y-98179581D01*
X55969780Y-98254523D01*
X56059517Y-98384530D01*
X56177760Y-98489283D01*
X56177762Y-98489284D01*
X56317634Y-98562696D01*
X56471014Y-98600500D01*
X56471015Y-98600500D01*
X56628985Y-98600500D01*
X56770826Y-98565540D01*
X56840627Y-98568609D01*
X56897690Y-98608929D01*
X56923895Y-98673699D01*
X56924500Y-98685937D01*
X56924500Y-98693099D01*
X56904815Y-98760138D01*
X56888181Y-98780780D01*
X56705780Y-98963181D01*
X56644457Y-98996666D01*
X56618099Y-98999500D01*
X56471014Y-98999500D01*
X56317634Y-99037303D01*
X56177762Y-99110715D01*
X56177760Y-99110717D01*
X56073993Y-99202646D01*
X56059516Y-99215471D01*
X55969781Y-99345475D01*
X55969780Y-99345476D01*
X55913762Y-99493181D01*
X55894722Y-99649997D01*
X55894722Y-99650000D01*
X55896918Y-99668085D01*
X55913762Y-99806818D01*
X55969169Y-99952911D01*
X55969780Y-99954523D01*
X56059517Y-100084530D01*
X56177760Y-100189283D01*
X56177762Y-100189284D01*
X56317634Y-100262696D01*
X56471014Y-100300500D01*
X56471015Y-100300500D01*
X56628985Y-100300500D01*
X56782365Y-100262696D01*
X56847851Y-100228325D01*
X56916359Y-100214600D01*
X56981412Y-100240092D01*
X57022357Y-100296707D01*
X57026193Y-100366472D01*
X56993158Y-100425803D01*
X56705780Y-100713181D01*
X56644457Y-100746666D01*
X56618099Y-100749500D01*
X56471014Y-100749500D01*
X56317634Y-100787303D01*
X56177762Y-100860715D01*
X56129988Y-100903039D01*
X56065692Y-100960000D01*
X56059516Y-100965471D01*
X55969781Y-101095475D01*
X55969780Y-101095476D01*
X55913762Y-101243181D01*
X55894722Y-101399999D01*
X55894722Y-101400000D01*
X55913762Y-101556818D01*
X55969780Y-101704523D01*
X55969782Y-101704527D01*
X55973409Y-101709781D01*
X55995294Y-101776135D01*
X55977830Y-101843787D01*
X55935968Y-101882548D01*
X55937151Y-101884204D01*
X55922375Y-101894753D01*
X55916175Y-101899579D01*
X55878993Y-101939969D01*
X55621108Y-102197852D01*
X55601254Y-102213976D01*
X55592165Y-102219914D01*
X55592164Y-102219915D01*
X55570363Y-102247923D01*
X55565286Y-102253674D01*
X55562484Y-102256477D01*
X55562474Y-102256488D01*
X55548905Y-102275495D01*
X55515192Y-102318808D01*
X55511447Y-102325729D01*
X55507988Y-102332804D01*
X55492329Y-102385403D01*
X55474500Y-102437338D01*
X55473206Y-102445092D01*
X55472231Y-102452911D01*
X55474500Y-102507755D01*
X55474500Y-103948196D01*
X55471862Y-103973634D01*
X55469633Y-103984268D01*
X55469633Y-103984269D01*
X55469633Y-103984271D01*
X55474023Y-104019491D01*
X55474500Y-104027167D01*
X55474500Y-104031116D01*
X55478342Y-104054141D01*
X55485134Y-104108627D01*
X55487373Y-104116147D01*
X55489934Y-104123608D01*
X55489935Y-104123610D01*
X55510015Y-104160715D01*
X55516055Y-104171877D01*
X55540174Y-104221211D01*
X55544742Y-104227609D01*
X55549582Y-104233827D01*
X55589971Y-104271009D01*
X55865481Y-104546518D01*
X55898966Y-104607841D01*
X55900896Y-104649143D01*
X55894722Y-104699997D01*
X55894722Y-104700000D01*
X55913763Y-104856819D01*
X55913763Y-104856821D01*
X55923134Y-104881530D01*
X55928501Y-104951193D01*
X55895353Y-105012699D01*
X55834214Y-105046520D01*
X55807192Y-105049500D01*
X48942808Y-105049500D01*
X48875769Y-105029815D01*
X48830014Y-104977011D01*
X48820070Y-104907853D01*
X48826866Y-104881530D01*
X48836236Y-104856821D01*
X48836236Y-104856820D01*
X48836237Y-104856818D01*
X48855278Y-104700000D01*
X48848486Y-104644067D01*
X48859946Y-104575147D01*
X48870664Y-104557071D01*
X48875993Y-104549608D01*
X48909714Y-104506284D01*
X48909714Y-104506281D01*
X48913447Y-104499384D01*
X48916908Y-104492302D01*
X48916915Y-104492294D01*
X48932575Y-104439691D01*
X48950405Y-104387755D01*
X48950405Y-104387750D01*
X48951695Y-104380019D01*
X48952673Y-104372180D01*
X48950405Y-104317339D01*
X48950405Y-90803685D01*
X48970090Y-90736646D01*
X49022894Y-90690891D01*
X49074405Y-90679685D01*
X49449581Y-90679685D01*
X49449582Y-90679684D01*
X49522645Y-90665151D01*
X49605506Y-90609786D01*
X49660871Y-90526925D01*
X49675405Y-90453859D01*
X49675405Y-86904511D01*
X49675405Y-86904508D01*
X49675404Y-86904506D01*
X49660872Y-86831449D01*
X49660871Y-86831445D01*
X49630697Y-86786286D01*
X49605506Y-86748584D01*
X49522645Y-86693219D01*
X49522644Y-86693218D01*
X49522640Y-86693217D01*
X49449582Y-86678685D01*
X49449579Y-86678685D01*
X47700231Y-86678685D01*
X47700228Y-86678685D01*
X47627169Y-86693217D01*
X47627165Y-86693218D01*
X47544302Y-86748585D01*
X47540084Y-86752804D01*
X47478759Y-86786286D01*
X47409068Y-86781299D01*
X47353136Y-86739426D01*
X47336224Y-86708453D01*
X47328258Y-86687097D01*
X47328255Y-86687091D01*
X47242095Y-86571997D01*
X47144272Y-86498766D01*
X47102402Y-86442832D01*
X47097418Y-86373141D01*
X47130904Y-86311818D01*
X47192227Y-86278333D01*
X47218584Y-86275500D01*
X57551226Y-86275500D01*
X57618265Y-86295185D01*
G37*
%TD.AperFunction*%
%TA.AperFunction,Conductor*%
G36*
X46227944Y-88448870D02*
G01*
X46273699Y-88501674D01*
X46284905Y-88553185D01*
X46284905Y-90929185D01*
X46932733Y-90929185D01*
X46932749Y-90929184D01*
X46992277Y-90922783D01*
X46992284Y-90922781D01*
X47126991Y-90872539D01*
X47126998Y-90872535D01*
X47242092Y-90786375D01*
X47242095Y-90786372D01*
X47328255Y-90671278D01*
X47328259Y-90671271D01*
X47336224Y-90649917D01*
X47378095Y-90593983D01*
X47443559Y-90569566D01*
X47511832Y-90584417D01*
X47540087Y-90605569D01*
X47544301Y-90609783D01*
X47544302Y-90609784D01*
X47544304Y-90609786D01*
X47611696Y-90654815D01*
X47627165Y-90665151D01*
X47627169Y-90665152D01*
X47700226Y-90679684D01*
X47700229Y-90679685D01*
X47700231Y-90679685D01*
X48075405Y-90679685D01*
X48142444Y-90699370D01*
X48188199Y-90752174D01*
X48199405Y-90803685D01*
X48199405Y-103933030D01*
X48179720Y-104000069D01*
X48126916Y-104045824D01*
X48105080Y-104053427D01*
X47967633Y-104087304D01*
X47827762Y-104160715D01*
X47709516Y-104265471D01*
X47615519Y-104401650D01*
X47612932Y-104399864D01*
X47574278Y-104439814D01*
X47506258Y-104455787D01*
X47440401Y-104432450D01*
X47425387Y-104419655D01*
X43906724Y-100900991D01*
X43873239Y-100839668D01*
X43870405Y-100813310D01*
X43870405Y-90803685D01*
X43890090Y-90736646D01*
X43942894Y-90690891D01*
X43994405Y-90679685D01*
X44369581Y-90679685D01*
X44369582Y-90679684D01*
X44442645Y-90665151D01*
X44525506Y-90609786D01*
X44525510Y-90609779D01*
X44529718Y-90605572D01*
X44591040Y-90572085D01*
X44660732Y-90577067D01*
X44716667Y-90618936D01*
X44733584Y-90649914D01*
X44741550Y-90671270D01*
X44741554Y-90671278D01*
X44827714Y-90786372D01*
X44827717Y-90786375D01*
X44942811Y-90872535D01*
X44942818Y-90872539D01*
X45077525Y-90922781D01*
X45077532Y-90922783D01*
X45137060Y-90929184D01*
X45137077Y-90929185D01*
X45784905Y-90929185D01*
X45784905Y-88553185D01*
X45804590Y-88486146D01*
X45857394Y-88440391D01*
X45908905Y-88429185D01*
X46160905Y-88429185D01*
X46227944Y-88448870D01*
G37*
%TD.AperFunction*%
%TA.AperFunction,Conductor*%
G36*
X58927944Y-88448870D02*
G01*
X58973699Y-88501674D01*
X58984905Y-88553185D01*
X58984905Y-90929185D01*
X59632733Y-90929185D01*
X59632742Y-90929184D01*
X59674089Y-90924738D01*
X59742849Y-90937141D01*
X59775029Y-90960346D01*
X59900709Y-91086026D01*
X59916837Y-91105885D01*
X59922776Y-91114976D01*
X59950792Y-91136781D01*
X59956553Y-91141870D01*
X59959342Y-91144659D01*
X59978343Y-91158225D01*
X60016573Y-91187981D01*
X60021671Y-91191949D01*
X60028582Y-91195689D01*
X60035660Y-91199150D01*
X60072327Y-91210066D01*
X60088265Y-91214811D01*
X60140200Y-91232640D01*
X60140202Y-91232640D01*
X60147939Y-91233931D01*
X60155769Y-91234907D01*
X60155771Y-91234908D01*
X60155772Y-91234907D01*
X60155773Y-91234908D01*
X60210615Y-91232640D01*
X62535961Y-91232640D01*
X62603000Y-91252325D01*
X62623642Y-91268959D01*
X65971687Y-94617004D01*
X66005172Y-94678327D01*
X66000188Y-94748019D01*
X65958316Y-94803952D01*
X65892852Y-94828369D01*
X65884006Y-94828685D01*
X62710228Y-94828685D01*
X62637169Y-94843217D01*
X62637165Y-94843218D01*
X62554304Y-94898584D01*
X62498938Y-94981445D01*
X62498937Y-94981449D01*
X62484405Y-95054506D01*
X62484405Y-96803863D01*
X62498937Y-96876920D01*
X62498938Y-96876924D01*
X62516518Y-96903234D01*
X62554304Y-96959786D01*
X62554305Y-96959786D01*
X62554306Y-96959788D01*
X62558520Y-96964002D01*
X62592005Y-97025325D01*
X62587021Y-97095017D01*
X62545149Y-97150950D01*
X62514177Y-97167863D01*
X62492821Y-97175828D01*
X62492811Y-97175834D01*
X62377717Y-97261994D01*
X62377714Y-97261997D01*
X62291554Y-97377091D01*
X62291550Y-97377098D01*
X62241308Y-97511805D01*
X62241306Y-97511812D01*
X62234905Y-97571340D01*
X62234905Y-98219185D01*
X64610905Y-98219185D01*
X64677944Y-98238870D01*
X64723699Y-98291674D01*
X64734905Y-98343185D01*
X64734905Y-98595185D01*
X64715220Y-98662224D01*
X64662416Y-98707979D01*
X64610905Y-98719185D01*
X62234905Y-98719185D01*
X62234905Y-99367015D01*
X62239925Y-99413709D01*
X62227519Y-99482468D01*
X62204316Y-99514644D01*
X62021108Y-99697852D01*
X62001254Y-99713976D01*
X61992165Y-99719914D01*
X61992164Y-99719915D01*
X61970363Y-99747923D01*
X61965286Y-99753674D01*
X61962484Y-99756477D01*
X61962474Y-99756488D01*
X61948905Y-99775495D01*
X61915192Y-99818808D01*
X61911447Y-99825729D01*
X61907988Y-99832804D01*
X61892329Y-99885403D01*
X61874500Y-99937338D01*
X61873206Y-99945092D01*
X61872231Y-99952911D01*
X61874500Y-100007755D01*
X61874500Y-100343099D01*
X61854815Y-100410138D01*
X61838181Y-100430780D01*
X61751680Y-100517281D01*
X61690357Y-100550766D01*
X61620665Y-100545782D01*
X61564732Y-100503910D01*
X61540315Y-100438446D01*
X61539999Y-100429600D01*
X61539999Y-100378417D01*
X61533591Y-100307897D01*
X61533590Y-100307892D01*
X61483018Y-100145603D01*
X61395072Y-100000122D01*
X61274877Y-99879927D01*
X61129395Y-99791980D01*
X61129396Y-99791980D01*
X60967105Y-99741409D01*
X60967106Y-99741409D01*
X60896572Y-99735000D01*
X60890000Y-99735000D01*
X60890000Y-100836000D01*
X60870315Y-100903039D01*
X60817511Y-100948794D01*
X60766000Y-100960000D01*
X60514000Y-100960000D01*
X60446961Y-100940315D01*
X60401206Y-100887511D01*
X60390000Y-100836000D01*
X60390000Y-99735000D01*
X60389999Y-99734999D01*
X60383436Y-99735000D01*
X60383417Y-99735001D01*
X60312897Y-99741408D01*
X60312892Y-99741409D01*
X60150603Y-99791981D01*
X60005122Y-99879927D01*
X59884927Y-100000122D01*
X59796980Y-100145604D01*
X59796979Y-100145605D01*
X59792412Y-100160263D01*
X59753673Y-100218410D01*
X59689647Y-100246382D01*
X59620662Y-100235299D01*
X59574258Y-100197004D01*
X59569217Y-100190174D01*
X59512150Y-100112850D01*
X59402882Y-100032207D01*
X59402880Y-100032206D01*
X59274700Y-99987353D01*
X59244270Y-99984500D01*
X59244266Y-99984500D01*
X58735734Y-99984500D01*
X58727946Y-99985230D01*
X58711074Y-99986812D01*
X58642489Y-99973470D01*
X58592006Y-99925167D01*
X58575500Y-99863353D01*
X58575500Y-99328052D01*
X58595185Y-99261013D01*
X58647989Y-99215258D01*
X58711080Y-99204594D01*
X58720734Y-99205500D01*
X58720740Y-99205500D01*
X59229270Y-99205500D01*
X59259699Y-99202646D01*
X59259701Y-99202646D01*
X59323790Y-99180219D01*
X59387882Y-99157793D01*
X59497150Y-99077150D01*
X59559259Y-98992994D01*
X59614905Y-98950745D01*
X59684561Y-98945286D01*
X59746111Y-98978353D01*
X59777413Y-99029737D01*
X59781981Y-99044397D01*
X59869927Y-99189877D01*
X59990122Y-99310072D01*
X60135604Y-99398019D01*
X60135603Y-99398019D01*
X60297894Y-99448590D01*
X60297893Y-99448590D01*
X60368408Y-99454998D01*
X60368426Y-99454999D01*
X60374999Y-99454998D01*
X60375000Y-99454998D01*
X60375000Y-98730000D01*
X60875000Y-98730000D01*
X60875000Y-99454999D01*
X60881581Y-99454999D01*
X60952102Y-99448591D01*
X60952107Y-99448590D01*
X61114396Y-99398018D01*
X61259877Y-99310072D01*
X61380072Y-99189877D01*
X61468019Y-99044395D01*
X61518590Y-98882106D01*
X61525000Y-98811572D01*
X61525000Y-98730000D01*
X60875000Y-98730000D01*
X60375000Y-98730000D01*
X60375000Y-97505000D01*
X60875000Y-97505000D01*
X60875000Y-98230000D01*
X61524999Y-98230000D01*
X61524999Y-98148417D01*
X61518591Y-98077897D01*
X61518590Y-98077892D01*
X61468018Y-97915603D01*
X61380072Y-97770122D01*
X61259877Y-97649927D01*
X61114395Y-97561980D01*
X61114396Y-97561980D01*
X60952105Y-97511409D01*
X60952106Y-97511409D01*
X60881572Y-97505000D01*
X60875000Y-97505000D01*
X60375000Y-97505000D01*
X60374999Y-97504999D01*
X60368436Y-97505000D01*
X60368417Y-97505001D01*
X60297897Y-97511408D01*
X60297892Y-97511409D01*
X60135603Y-97561981D01*
X59990122Y-97649927D01*
X59869927Y-97770122D01*
X59781980Y-97915604D01*
X59781979Y-97915605D01*
X59777412Y-97930263D01*
X59738673Y-97988410D01*
X59674647Y-98016382D01*
X59605662Y-98005299D01*
X59559258Y-97967004D01*
X59497150Y-97882850D01*
X59387882Y-97802207D01*
X59387880Y-97802206D01*
X59259700Y-97757353D01*
X59229270Y-97754500D01*
X59229266Y-97754500D01*
X58720734Y-97754500D01*
X58720730Y-97754500D01*
X58690300Y-97757353D01*
X58690298Y-97757353D01*
X58562119Y-97802206D01*
X58562117Y-97802207D01*
X58452850Y-97882850D01*
X58372206Y-97992118D01*
X58366541Y-98008310D01*
X58325818Y-98065086D01*
X58260865Y-98090832D01*
X58192304Y-98077375D01*
X58141902Y-98028987D01*
X58125500Y-97967354D01*
X58125500Y-96694310D01*
X58145185Y-96627271D01*
X58197989Y-96581516D01*
X58267147Y-96571572D01*
X58330703Y-96600597D01*
X58349265Y-96620670D01*
X58427850Y-96727150D01*
X58537118Y-96807793D01*
X58579845Y-96822744D01*
X58665299Y-96852646D01*
X58695730Y-96855500D01*
X58695734Y-96855500D01*
X59204270Y-96855500D01*
X59234699Y-96852646D01*
X59234701Y-96852646D01*
X59298790Y-96830219D01*
X59362882Y-96807793D01*
X59472150Y-96727150D01*
X59534259Y-96642994D01*
X59589905Y-96600745D01*
X59659561Y-96595286D01*
X59721111Y-96628353D01*
X59752413Y-96679737D01*
X59756981Y-96694397D01*
X59844927Y-96839877D01*
X59965122Y-96960072D01*
X60110604Y-97048019D01*
X60110603Y-97048019D01*
X60272894Y-97098590D01*
X60272893Y-97098590D01*
X60343408Y-97104998D01*
X60343426Y-97104999D01*
X60349999Y-97104998D01*
X60350000Y-97104998D01*
X60350000Y-96380000D01*
X60850000Y-96380000D01*
X60850000Y-97104999D01*
X60856581Y-97104999D01*
X60927102Y-97098591D01*
X60927107Y-97098590D01*
X61089396Y-97048018D01*
X61234877Y-96960072D01*
X61355072Y-96839877D01*
X61443019Y-96694395D01*
X61493590Y-96532106D01*
X61500000Y-96461572D01*
X61500000Y-96380000D01*
X60850000Y-96380000D01*
X60350000Y-96380000D01*
X60350000Y-95155000D01*
X60850000Y-95155000D01*
X60850000Y-95880000D01*
X61499999Y-95880000D01*
X61499999Y-95798417D01*
X61493591Y-95727897D01*
X61493590Y-95727892D01*
X61443018Y-95565603D01*
X61355072Y-95420122D01*
X61234877Y-95299927D01*
X61089395Y-95211980D01*
X61089396Y-95211980D01*
X60927105Y-95161409D01*
X60927106Y-95161409D01*
X60856572Y-95155000D01*
X60850000Y-95155000D01*
X60350000Y-95155000D01*
X60349999Y-95154999D01*
X60343436Y-95155000D01*
X60343417Y-95155001D01*
X60272897Y-95161408D01*
X60272892Y-95161409D01*
X60110603Y-95211981D01*
X59965122Y-95299927D01*
X59844927Y-95420122D01*
X59756980Y-95565604D01*
X59756979Y-95565605D01*
X59752412Y-95580263D01*
X59713673Y-95638410D01*
X59649647Y-95666382D01*
X59580662Y-95655299D01*
X59534258Y-95617004D01*
X59507142Y-95580263D01*
X59472150Y-95532850D01*
X59362882Y-95452207D01*
X59362880Y-95452206D01*
X59234700Y-95407353D01*
X59204270Y-95404500D01*
X59204266Y-95404500D01*
X58695734Y-95404500D01*
X58695730Y-95404500D01*
X58665300Y-95407353D01*
X58665298Y-95407353D01*
X58537119Y-95452206D01*
X58537117Y-95452207D01*
X58427850Y-95532850D01*
X58349944Y-95638410D01*
X58347207Y-95642118D01*
X58336940Y-95671456D01*
X58296221Y-95728230D01*
X58231269Y-95753978D01*
X58219901Y-95754500D01*
X57768091Y-95754500D01*
X57762976Y-95754288D01*
X57753881Y-95753534D01*
X57718565Y-95750607D01*
X57718373Y-95750655D01*
X57718174Y-95750706D01*
X57687737Y-95754500D01*
X56736900Y-95754500D01*
X56669861Y-95734815D01*
X56649219Y-95718181D01*
X56611819Y-95680781D01*
X56578334Y-95619458D01*
X56575500Y-95593100D01*
X56575500Y-90803685D01*
X56595185Y-90736646D01*
X56647989Y-90690891D01*
X56699500Y-90679685D01*
X57069581Y-90679685D01*
X57069582Y-90679684D01*
X57142645Y-90665151D01*
X57225506Y-90609786D01*
X57225510Y-90609779D01*
X57229718Y-90605572D01*
X57291040Y-90572085D01*
X57360732Y-90577067D01*
X57416667Y-90618936D01*
X57433584Y-90649914D01*
X57441550Y-90671270D01*
X57441554Y-90671278D01*
X57527714Y-90786372D01*
X57527717Y-90786375D01*
X57642811Y-90872535D01*
X57642818Y-90872539D01*
X57777525Y-90922781D01*
X57777532Y-90922783D01*
X57837060Y-90929184D01*
X57837077Y-90929185D01*
X58484905Y-90929185D01*
X58484905Y-88553185D01*
X58504590Y-88486146D01*
X58557394Y-88440391D01*
X58608905Y-88429185D01*
X58860905Y-88429185D01*
X58927944Y-88448870D01*
G37*
%TD.AperFunction*%
%TA.AperFunction,Conductor*%
G36*
X47503455Y-12000889D02*
G01*
X47516485Y-12002357D01*
X47526354Y-12003470D01*
X47568982Y-12009081D01*
X47605831Y-12013932D01*
X47630599Y-12019830D01*
X47664736Y-12031775D01*
X47667976Y-12033011D01*
X47722195Y-12055469D01*
X47740695Y-12065027D01*
X47775520Y-12086909D01*
X47780267Y-12090212D01*
X47828200Y-12126993D01*
X47834295Y-12132337D01*
X47867660Y-12165702D01*
X47873005Y-12171798D01*
X47909786Y-12219731D01*
X47913097Y-12224490D01*
X47934967Y-12259296D01*
X47944536Y-12277818D01*
X47966983Y-12332014D01*
X47968223Y-12335263D01*
X47980169Y-12369401D01*
X47986066Y-12394169D01*
X47996530Y-12473647D01*
X47999110Y-12496538D01*
X47999500Y-12503486D01*
X47999500Y-14556399D01*
X48024596Y-14666350D01*
X48073532Y-14767966D01*
X48073533Y-14767969D01*
X48108196Y-14811433D01*
X48143854Y-14856146D01*
X48180710Y-14885538D01*
X48232030Y-14926466D01*
X48232033Y-14926467D01*
X48333649Y-14975403D01*
X48443600Y-15000499D01*
X48443605Y-15000499D01*
X48443607Y-15000500D01*
X48499901Y-15000500D01*
X48996518Y-15000500D01*
X49003455Y-15000889D01*
X49016485Y-15002357D01*
X49026354Y-15003470D01*
X49068982Y-15009081D01*
X49105831Y-15013932D01*
X49130599Y-15019830D01*
X49164736Y-15031775D01*
X49167976Y-15033011D01*
X49222195Y-15055469D01*
X49240695Y-15065027D01*
X49275520Y-15086909D01*
X49280267Y-15090212D01*
X49328200Y-15126993D01*
X49334295Y-15132337D01*
X49367660Y-15165702D01*
X49373005Y-15171798D01*
X49409786Y-15219731D01*
X49413097Y-15224490D01*
X49434967Y-15259296D01*
X49444536Y-15277818D01*
X49466983Y-15332014D01*
X49468223Y-15335263D01*
X49480169Y-15369401D01*
X49486066Y-15394169D01*
X49496530Y-15473647D01*
X49499110Y-15496538D01*
X49499500Y-15503486D01*
X49499500Y-17556399D01*
X49524596Y-17666350D01*
X49573532Y-17767966D01*
X49573533Y-17767969D01*
X49608196Y-17811433D01*
X49643854Y-17856146D01*
X49680710Y-17885538D01*
X49732030Y-17926466D01*
X49732033Y-17926467D01*
X49833649Y-17975403D01*
X49943600Y-18000499D01*
X49943605Y-18000499D01*
X49943607Y-18000500D01*
X49999901Y-18000500D01*
X50496518Y-18000500D01*
X50503455Y-18000889D01*
X50516485Y-18002357D01*
X50526354Y-18003470D01*
X50568982Y-18009081D01*
X50605831Y-18013932D01*
X50630599Y-18019830D01*
X50664736Y-18031775D01*
X50667976Y-18033011D01*
X50722195Y-18055469D01*
X50740695Y-18065027D01*
X50775520Y-18086909D01*
X50780267Y-18090212D01*
X50828200Y-18126993D01*
X50834295Y-18132337D01*
X50867660Y-18165702D01*
X50873005Y-18171798D01*
X50909786Y-18219731D01*
X50913097Y-18224490D01*
X50934967Y-18259296D01*
X50944536Y-18277818D01*
X50966983Y-18332014D01*
X50968223Y-18335263D01*
X50980169Y-18369401D01*
X50986066Y-18394169D01*
X50996530Y-18473647D01*
X50999110Y-18496538D01*
X50999500Y-18503486D01*
X50999500Y-22056399D01*
X51024596Y-22166350D01*
X51073532Y-22267966D01*
X51073533Y-22267969D01*
X51108196Y-22311433D01*
X51143854Y-22356146D01*
X51180710Y-22385538D01*
X51232030Y-22426466D01*
X51232033Y-22426467D01*
X51333649Y-22475403D01*
X51443600Y-22500499D01*
X51443605Y-22500499D01*
X51443607Y-22500500D01*
X51499901Y-22500500D01*
X51996518Y-22500500D01*
X52003455Y-22500889D01*
X52016485Y-22502357D01*
X52026354Y-22503470D01*
X52068982Y-22509081D01*
X52105831Y-22513932D01*
X52130599Y-22519830D01*
X52164736Y-22531775D01*
X52167976Y-22533011D01*
X52222195Y-22555469D01*
X52240695Y-22565027D01*
X52275520Y-22586909D01*
X52280267Y-22590212D01*
X52328200Y-22626993D01*
X52334295Y-22632337D01*
X52367660Y-22665702D01*
X52373005Y-22671798D01*
X52409786Y-22719731D01*
X52413097Y-22724490D01*
X52434967Y-22759296D01*
X52444536Y-22777818D01*
X52466983Y-22832014D01*
X52468223Y-22835263D01*
X52480169Y-22869401D01*
X52486066Y-22894169D01*
X52496530Y-22973647D01*
X52499110Y-22996538D01*
X52499500Y-23003486D01*
X52499500Y-31056399D01*
X52524596Y-31166350D01*
X52573532Y-31267966D01*
X52573533Y-31267969D01*
X52608196Y-31311433D01*
X52643854Y-31356146D01*
X52675642Y-31381496D01*
X52732030Y-31426466D01*
X52732033Y-31426467D01*
X52833649Y-31475403D01*
X52943600Y-31500499D01*
X52943605Y-31500499D01*
X52943607Y-31500500D01*
X52999901Y-31500500D01*
X53496518Y-31500500D01*
X53503455Y-31500889D01*
X53516485Y-31502357D01*
X53526354Y-31503470D01*
X53568982Y-31509081D01*
X53605831Y-31513932D01*
X53630599Y-31519830D01*
X53664736Y-31531775D01*
X53667976Y-31533011D01*
X53722195Y-31555469D01*
X53740695Y-31565027D01*
X53775520Y-31586909D01*
X53780267Y-31590212D01*
X53828200Y-31626993D01*
X53834295Y-31632337D01*
X53867660Y-31665702D01*
X53873005Y-31671798D01*
X53909786Y-31719731D01*
X53913097Y-31724490D01*
X53934967Y-31759296D01*
X53944536Y-31777818D01*
X53966983Y-31832014D01*
X53968223Y-31835263D01*
X53980169Y-31869401D01*
X53986066Y-31894169D01*
X53996530Y-31973647D01*
X53999110Y-31996538D01*
X53999500Y-32003486D01*
X53999500Y-49056399D01*
X54024596Y-49166350D01*
X54073532Y-49267966D01*
X54073533Y-49267969D01*
X54108196Y-49311433D01*
X54143854Y-49356146D01*
X54168474Y-49375780D01*
X54232030Y-49426466D01*
X54232033Y-49426467D01*
X54333649Y-49475403D01*
X54443600Y-49500499D01*
X54443605Y-49500499D01*
X54443607Y-49500500D01*
X54499901Y-49500500D01*
X54996518Y-49500500D01*
X55003455Y-49500889D01*
X55016485Y-49502357D01*
X55026354Y-49503470D01*
X55068982Y-49509081D01*
X55105831Y-49513932D01*
X55130599Y-49519830D01*
X55164736Y-49531775D01*
X55167976Y-49533011D01*
X55222195Y-49555469D01*
X55240695Y-49565027D01*
X55275520Y-49586909D01*
X55280267Y-49590212D01*
X55328200Y-49626993D01*
X55334295Y-49632337D01*
X55367660Y-49665702D01*
X55373005Y-49671798D01*
X55409786Y-49719731D01*
X55413097Y-49724490D01*
X55434967Y-49759296D01*
X55444533Y-49777813D01*
X55447761Y-49785605D01*
X55466983Y-49832014D01*
X55468223Y-49835263D01*
X55480169Y-49869401D01*
X55486066Y-49894169D01*
X55496530Y-49973647D01*
X55499110Y-49996538D01*
X55499500Y-50003486D01*
X55499500Y-61056399D01*
X55524596Y-61166350D01*
X55573532Y-61267966D01*
X55573533Y-61267969D01*
X55608196Y-61311433D01*
X55643854Y-61356146D01*
X55680710Y-61385538D01*
X55732030Y-61426466D01*
X55732033Y-61426467D01*
X55833649Y-61475403D01*
X55943600Y-61500499D01*
X55943605Y-61500499D01*
X55943607Y-61500500D01*
X55999901Y-61500500D01*
X56496518Y-61500500D01*
X56503455Y-61500889D01*
X56516485Y-61502357D01*
X56526354Y-61503470D01*
X56568982Y-61509081D01*
X56605831Y-61513932D01*
X56630599Y-61519830D01*
X56664736Y-61531775D01*
X56667976Y-61533011D01*
X56722195Y-61555469D01*
X56740695Y-61565027D01*
X56775520Y-61586909D01*
X56780267Y-61590212D01*
X56828200Y-61626993D01*
X56834295Y-61632337D01*
X56867660Y-61665702D01*
X56873005Y-61671798D01*
X56909786Y-61719731D01*
X56913097Y-61724490D01*
X56934967Y-61759296D01*
X56944536Y-61777818D01*
X56966983Y-61832014D01*
X56968223Y-61835263D01*
X56980169Y-61869401D01*
X56986066Y-61894169D01*
X56996530Y-61973647D01*
X56999110Y-61996538D01*
X56999500Y-62003486D01*
X56999500Y-68496514D01*
X56999110Y-68503462D01*
X56996530Y-68526351D01*
X56986066Y-68605829D01*
X56980169Y-68630597D01*
X56968223Y-68664735D01*
X56966983Y-68667984D01*
X56944536Y-68722180D01*
X56934967Y-68740702D01*
X56913097Y-68775508D01*
X56909786Y-68780267D01*
X56873005Y-68828200D01*
X56867653Y-68834304D01*
X56834304Y-68867653D01*
X56828200Y-68873005D01*
X56780267Y-68909786D01*
X56775508Y-68913097D01*
X56740702Y-68934967D01*
X56722180Y-68944536D01*
X56667984Y-68966983D01*
X56664735Y-68968223D01*
X56630597Y-68980169D01*
X56605829Y-68986066D01*
X56526351Y-68996530D01*
X56505688Y-68998859D01*
X56503460Y-68999110D01*
X56496514Y-68999500D01*
X55943600Y-68999500D01*
X55833649Y-69024596D01*
X55732033Y-69073532D01*
X55732030Y-69073533D01*
X55643854Y-69143854D01*
X55573533Y-69232030D01*
X55573532Y-69232033D01*
X55524596Y-69333649D01*
X55499500Y-69443600D01*
X55499500Y-76056399D01*
X55524596Y-76166350D01*
X55573532Y-76267966D01*
X55573533Y-76267969D01*
X55608196Y-76311433D01*
X55643854Y-76356146D01*
X55668750Y-76376000D01*
X55732030Y-76426466D01*
X55732033Y-76426467D01*
X55833649Y-76475403D01*
X55943600Y-76500499D01*
X55943605Y-76500499D01*
X55943607Y-76500500D01*
X55999901Y-76500500D01*
X56496518Y-76500500D01*
X56503455Y-76500889D01*
X56516485Y-76502357D01*
X56526354Y-76503470D01*
X56568982Y-76509081D01*
X56605831Y-76513932D01*
X56630599Y-76519830D01*
X56664736Y-76531775D01*
X56667976Y-76533011D01*
X56722195Y-76555469D01*
X56740695Y-76565027D01*
X56775520Y-76586909D01*
X56780267Y-76590212D01*
X56828200Y-76626993D01*
X56834295Y-76632337D01*
X56867660Y-76665702D01*
X56873005Y-76671798D01*
X56909786Y-76719731D01*
X56913097Y-76724490D01*
X56934967Y-76759296D01*
X56944536Y-76777818D01*
X56966983Y-76832014D01*
X56968223Y-76835263D01*
X56980169Y-76869401D01*
X56986066Y-76894169D01*
X56996530Y-76973647D01*
X56999110Y-76996538D01*
X56999500Y-77003486D01*
X56999500Y-77556399D01*
X57024596Y-77666350D01*
X57073532Y-77767966D01*
X57073533Y-77767969D01*
X57108196Y-77811433D01*
X57143854Y-77856146D01*
X57180710Y-77885538D01*
X57232030Y-77926466D01*
X57232033Y-77926467D01*
X57333649Y-77975403D01*
X57443600Y-78000499D01*
X57443605Y-78000499D01*
X57443607Y-78000500D01*
X57443609Y-78000500D01*
X58056391Y-78000500D01*
X58056393Y-78000500D01*
X58056395Y-78000499D01*
X58056399Y-78000499D01*
X58124362Y-77984986D01*
X58166351Y-77975403D01*
X58267967Y-77926467D01*
X58267967Y-77926466D01*
X58267969Y-77926466D01*
X58313036Y-77890525D01*
X58356146Y-77856146D01*
X58416658Y-77780267D01*
X58426466Y-77767969D01*
X58426467Y-77767966D01*
X58448510Y-77722195D01*
X58475403Y-77666351D01*
X58500500Y-77556393D01*
X58500500Y-77500000D01*
X58500500Y-77499500D01*
X58500500Y-75503480D01*
X58500889Y-75496546D01*
X58503470Y-75473645D01*
X58506944Y-75447248D01*
X58513933Y-75394163D01*
X58519830Y-75369399D01*
X58531775Y-75335262D01*
X58533001Y-75332047D01*
X58555474Y-75277794D01*
X58565021Y-75259313D01*
X58586922Y-75224459D01*
X58590197Y-75219752D01*
X58627003Y-75171786D01*
X58632323Y-75165718D01*
X58665718Y-75132323D01*
X58671786Y-75127003D01*
X58719752Y-75090197D01*
X58724459Y-75086922D01*
X58759313Y-75065021D01*
X58777794Y-75055474D01*
X58832047Y-75033001D01*
X58835253Y-75031778D01*
X58869402Y-75019829D01*
X58894163Y-75013933D01*
X58941020Y-75007764D01*
X58973646Y-75003470D01*
X58982632Y-75002456D01*
X58996545Y-75000889D01*
X59003481Y-75000500D01*
X59556391Y-75000500D01*
X59556393Y-75000500D01*
X59556395Y-75000499D01*
X59556399Y-75000499D01*
X59624362Y-74984986D01*
X59666351Y-74975403D01*
X59767967Y-74926467D01*
X59767967Y-74926466D01*
X59767969Y-74926466D01*
X59813036Y-74890525D01*
X59856146Y-74856146D01*
X59908978Y-74789896D01*
X59926466Y-74767969D01*
X59926467Y-74767966D01*
X59975403Y-74666350D01*
X60000499Y-74556399D01*
X60000500Y-74556391D01*
X60000500Y-74003480D01*
X60000889Y-73996546D01*
X60003470Y-73973645D01*
X60006944Y-73947248D01*
X60013933Y-73894163D01*
X60019830Y-73869399D01*
X60031775Y-73835262D01*
X60033001Y-73832047D01*
X60055474Y-73777794D01*
X60065021Y-73759313D01*
X60086922Y-73724459D01*
X60090197Y-73719752D01*
X60127003Y-73671786D01*
X60132323Y-73665718D01*
X60165718Y-73632323D01*
X60171786Y-73627003D01*
X60219752Y-73590197D01*
X60224459Y-73586922D01*
X60259313Y-73565021D01*
X60277794Y-73555474D01*
X60332047Y-73533001D01*
X60335253Y-73531778D01*
X60369402Y-73519829D01*
X60394163Y-73513933D01*
X60441020Y-73507764D01*
X60473646Y-73503470D01*
X60482632Y-73502456D01*
X60496545Y-73500889D01*
X60503481Y-73500500D01*
X61056391Y-73500500D01*
X61056393Y-73500500D01*
X61056395Y-73500499D01*
X61056399Y-73500499D01*
X61124362Y-73484986D01*
X61166351Y-73475403D01*
X61267967Y-73426467D01*
X61267967Y-73426466D01*
X61267969Y-73426466D01*
X61313036Y-73390525D01*
X61356146Y-73356146D01*
X61408978Y-73289896D01*
X61426466Y-73267969D01*
X61426467Y-73267966D01*
X61475403Y-73166350D01*
X61500499Y-73056399D01*
X61500500Y-73056391D01*
X61500500Y-71003480D01*
X61500890Y-70996538D01*
X61502687Y-70980586D01*
X61503470Y-70973645D01*
X61506944Y-70947248D01*
X61513933Y-70894163D01*
X61519830Y-70869399D01*
X61531775Y-70835262D01*
X61533001Y-70832047D01*
X61555474Y-70777794D01*
X61565021Y-70759313D01*
X61586922Y-70724459D01*
X61590197Y-70719752D01*
X61627003Y-70671786D01*
X61632323Y-70665718D01*
X61665718Y-70632323D01*
X61671786Y-70627003D01*
X61719752Y-70590197D01*
X61724459Y-70586922D01*
X61759313Y-70565021D01*
X61777794Y-70555474D01*
X61832047Y-70533001D01*
X61835253Y-70531778D01*
X61869402Y-70519829D01*
X61894163Y-70513933D01*
X61941020Y-70507764D01*
X61973646Y-70503470D01*
X61982632Y-70502456D01*
X61996545Y-70500889D01*
X62003481Y-70500500D01*
X72996518Y-70500500D01*
X73003455Y-70500889D01*
X73016485Y-70502357D01*
X73026354Y-70503470D01*
X73068982Y-70509081D01*
X73105831Y-70513932D01*
X73130599Y-70519830D01*
X73164736Y-70531775D01*
X73167976Y-70533011D01*
X73222195Y-70555469D01*
X73240695Y-70565027D01*
X73275520Y-70586909D01*
X73280267Y-70590212D01*
X73328200Y-70626993D01*
X73334295Y-70632337D01*
X73367660Y-70665702D01*
X73373005Y-70671798D01*
X73409786Y-70719731D01*
X73413097Y-70724490D01*
X73434967Y-70759296D01*
X73444536Y-70777818D01*
X73466983Y-70832014D01*
X73468223Y-70835263D01*
X73480169Y-70869401D01*
X73486066Y-70894169D01*
X73496530Y-70973647D01*
X73499110Y-70996538D01*
X73499500Y-71003486D01*
X73499500Y-71556399D01*
X73524596Y-71666350D01*
X73573532Y-71767966D01*
X73573533Y-71767969D01*
X73608196Y-71811433D01*
X73643854Y-71856146D01*
X73680710Y-71885538D01*
X73732030Y-71926466D01*
X73732033Y-71926467D01*
X73833649Y-71975403D01*
X73943600Y-72000499D01*
X73943605Y-72000499D01*
X73943607Y-72000500D01*
X73999901Y-72000500D01*
X78996518Y-72000500D01*
X79003455Y-72000889D01*
X79016485Y-72002357D01*
X79026354Y-72003470D01*
X79068982Y-72009081D01*
X79105831Y-72013932D01*
X79130599Y-72019830D01*
X79164736Y-72031775D01*
X79167976Y-72033011D01*
X79222195Y-72055469D01*
X79240695Y-72065027D01*
X79275520Y-72086909D01*
X79280267Y-72090212D01*
X79328200Y-72126993D01*
X79334295Y-72132337D01*
X79367660Y-72165702D01*
X79373005Y-72171798D01*
X79409786Y-72219731D01*
X79413097Y-72224490D01*
X79434967Y-72259296D01*
X79444536Y-72277818D01*
X79466983Y-72332014D01*
X79468223Y-72335263D01*
X79480169Y-72369401D01*
X79486066Y-72394169D01*
X79496530Y-72473647D01*
X79499110Y-72496538D01*
X79499500Y-72503486D01*
X79499500Y-110496514D01*
X79499110Y-110503462D01*
X79496530Y-110526351D01*
X79486066Y-110605829D01*
X79480169Y-110630597D01*
X79468223Y-110664735D01*
X79466983Y-110667984D01*
X79444536Y-110722180D01*
X79434967Y-110740702D01*
X79413097Y-110775508D01*
X79409786Y-110780267D01*
X79373005Y-110828200D01*
X79367653Y-110834304D01*
X79334304Y-110867653D01*
X79328200Y-110873005D01*
X79280267Y-110909786D01*
X79275508Y-110913097D01*
X79240702Y-110934967D01*
X79222180Y-110944536D01*
X79167984Y-110966983D01*
X79164735Y-110968223D01*
X79130597Y-110980169D01*
X79105829Y-110986066D01*
X79026351Y-110996530D01*
X79005688Y-110998859D01*
X79003460Y-110999110D01*
X78996514Y-110999500D01*
X14003486Y-110999500D01*
X13996539Y-110999110D01*
X13993592Y-110998777D01*
X13973647Y-110996530D01*
X13894169Y-110986066D01*
X13869401Y-110980169D01*
X13835263Y-110968223D01*
X13832014Y-110966983D01*
X13790803Y-110949914D01*
X13777813Y-110944533D01*
X13759296Y-110934967D01*
X13724490Y-110913097D01*
X13719731Y-110909786D01*
X13671798Y-110873005D01*
X13665702Y-110867660D01*
X13632337Y-110834295D01*
X13626993Y-110828200D01*
X13590212Y-110780267D01*
X13586909Y-110775520D01*
X13565027Y-110740695D01*
X13555469Y-110722195D01*
X13533011Y-110667976D01*
X13531775Y-110664736D01*
X13519830Y-110630599D01*
X13513932Y-110605831D01*
X13503470Y-110526354D01*
X13501535Y-110509185D01*
X13500889Y-110503455D01*
X13500500Y-110496518D01*
X13500500Y-110033863D01*
X14454405Y-110033863D01*
X14468937Y-110106920D01*
X14468938Y-110106924D01*
X14468939Y-110106925D01*
X14524304Y-110189786D01*
X14593420Y-110235967D01*
X14607165Y-110245151D01*
X14607169Y-110245152D01*
X14680226Y-110259684D01*
X14680229Y-110259685D01*
X14680231Y-110259685D01*
X16429581Y-110259685D01*
X16429582Y-110259684D01*
X16502645Y-110245151D01*
X16585506Y-110189786D01*
X16640871Y-110106925D01*
X16655404Y-110033863D01*
X16994405Y-110033863D01*
X17008937Y-110106920D01*
X17008938Y-110106924D01*
X17008939Y-110106925D01*
X17064304Y-110189786D01*
X17133420Y-110235967D01*
X17147165Y-110245151D01*
X17147169Y-110245152D01*
X17220226Y-110259684D01*
X17220229Y-110259685D01*
X17220231Y-110259685D01*
X18969581Y-110259685D01*
X18969582Y-110259684D01*
X19042645Y-110245151D01*
X19125506Y-110189786D01*
X19125510Y-110189779D01*
X19129718Y-110185572D01*
X19191040Y-110152085D01*
X19260732Y-110157067D01*
X19316667Y-110198936D01*
X19333584Y-110229914D01*
X19341550Y-110251270D01*
X19341554Y-110251278D01*
X19427714Y-110366372D01*
X19427717Y-110366375D01*
X19542811Y-110452535D01*
X19542818Y-110452539D01*
X19677525Y-110502781D01*
X19677532Y-110502783D01*
X19737060Y-110509184D01*
X19737077Y-110509185D01*
X20384905Y-110509185D01*
X20384905Y-106009185D01*
X20884905Y-106009185D01*
X20884905Y-110509185D01*
X21532733Y-110509185D01*
X21532749Y-110509184D01*
X21592277Y-110502783D01*
X21592284Y-110502781D01*
X21726991Y-110452539D01*
X21726998Y-110452535D01*
X21842092Y-110366375D01*
X21842095Y-110366372D01*
X21928255Y-110251278D01*
X21928259Y-110251271D01*
X21936224Y-110229917D01*
X21978095Y-110173983D01*
X22043559Y-110149566D01*
X22111832Y-110164417D01*
X22140087Y-110185569D01*
X22144301Y-110189783D01*
X22144302Y-110189784D01*
X22144304Y-110189786D01*
X22213420Y-110235967D01*
X22227165Y-110245151D01*
X22227169Y-110245152D01*
X22300226Y-110259684D01*
X22300229Y-110259685D01*
X22300231Y-110259685D01*
X24049581Y-110259685D01*
X24049582Y-110259684D01*
X24122645Y-110245151D01*
X24205506Y-110189786D01*
X24260871Y-110106925D01*
X24275405Y-110033859D01*
X24275405Y-106484511D01*
X24275405Y-106484508D01*
X24275404Y-106484506D01*
X24260872Y-106411449D01*
X24260871Y-106411445D01*
X24230697Y-106366286D01*
X24205506Y-106328584D01*
X24122645Y-106273219D01*
X24122644Y-106273218D01*
X24122640Y-106273217D01*
X24049582Y-106258685D01*
X24049579Y-106258685D01*
X22300231Y-106258685D01*
X22300228Y-106258685D01*
X22227169Y-106273217D01*
X22227165Y-106273218D01*
X22144302Y-106328585D01*
X22140084Y-106332804D01*
X22078759Y-106366286D01*
X22009068Y-106361299D01*
X21953136Y-106319426D01*
X21936224Y-106288453D01*
X21928258Y-106267097D01*
X21928255Y-106267091D01*
X21842095Y-106151997D01*
X21842092Y-106151994D01*
X21726998Y-106065834D01*
X21726991Y-106065830D01*
X21592284Y-106015588D01*
X21592277Y-106015586D01*
X21532749Y-106009185D01*
X20884905Y-106009185D01*
X20384905Y-106009185D01*
X19737060Y-106009185D01*
X19677532Y-106015586D01*
X19677525Y-106015588D01*
X19542818Y-106065830D01*
X19542811Y-106065834D01*
X19427717Y-106151994D01*
X19427714Y-106151997D01*
X19341554Y-106267091D01*
X19341548Y-106267101D01*
X19333583Y-106288457D01*
X19291710Y-106344389D01*
X19226245Y-106368803D01*
X19157972Y-106353949D01*
X19129722Y-106332800D01*
X19125508Y-106328586D01*
X19125506Y-106328585D01*
X19125506Y-106328584D01*
X19042645Y-106273219D01*
X19042644Y-106273218D01*
X19042640Y-106273217D01*
X18969582Y-106258685D01*
X18969579Y-106258685D01*
X17220231Y-106258685D01*
X17220228Y-106258685D01*
X17147169Y-106273217D01*
X17147165Y-106273218D01*
X17064304Y-106328584D01*
X17008938Y-106411445D01*
X17008937Y-106411449D01*
X16994405Y-106484506D01*
X16994405Y-110033863D01*
X16655404Y-110033863D01*
X16655405Y-110033859D01*
X16655405Y-106484511D01*
X16655405Y-106484508D01*
X16655404Y-106484506D01*
X16640872Y-106411449D01*
X16640871Y-106411445D01*
X16610697Y-106366286D01*
X16585506Y-106328584D01*
X16502645Y-106273219D01*
X16502644Y-106273218D01*
X16502640Y-106273217D01*
X16429582Y-106258685D01*
X16429579Y-106258685D01*
X14680231Y-106258685D01*
X14680228Y-106258685D01*
X14607169Y-106273217D01*
X14607165Y-106273218D01*
X14524304Y-106328584D01*
X14468938Y-106411445D01*
X14468937Y-106411449D01*
X14454405Y-106484506D01*
X14454405Y-110033863D01*
X13500500Y-110033863D01*
X13500500Y-94943608D01*
X13500499Y-94943600D01*
X13475403Y-94833649D01*
X13426467Y-94732033D01*
X13426466Y-94732030D01*
X13385538Y-94680710D01*
X13356146Y-94643854D01*
X13326753Y-94620413D01*
X13267969Y-94573533D01*
X13267966Y-94573532D01*
X13166350Y-94524596D01*
X13056399Y-94499500D01*
X13056393Y-94499500D01*
X13000099Y-94499500D01*
X12503486Y-94499500D01*
X12496539Y-94499110D01*
X12493592Y-94498777D01*
X12473647Y-94496530D01*
X12394169Y-94486066D01*
X12369401Y-94480169D01*
X12335263Y-94468223D01*
X12332014Y-94466983D01*
X12290803Y-94449914D01*
X12277813Y-94444533D01*
X12259296Y-94434967D01*
X12224490Y-94413097D01*
X12219731Y-94409786D01*
X12171798Y-94373005D01*
X12165702Y-94367660D01*
X12132337Y-94334295D01*
X12126993Y-94328200D01*
X12090212Y-94280267D01*
X12086909Y-94275520D01*
X12065027Y-94240695D01*
X12055469Y-94222195D01*
X12033011Y-94167976D01*
X12031775Y-94164736D01*
X12019830Y-94130599D01*
X12013932Y-94105828D01*
X12003470Y-94026354D01*
X12002180Y-94014911D01*
X12000889Y-94003455D01*
X12000500Y-93996518D01*
X12000500Y-90453863D01*
X14454405Y-90453863D01*
X14468937Y-90526920D01*
X14468938Y-90526924D01*
X14468939Y-90526925D01*
X14524304Y-90609786D01*
X14591696Y-90654815D01*
X14607165Y-90665151D01*
X14607169Y-90665152D01*
X14680226Y-90679684D01*
X14680229Y-90679685D01*
X14680231Y-90679685D01*
X16324553Y-90679685D01*
X16391592Y-90699370D01*
X16434656Y-90749068D01*
X16435047Y-90748857D01*
X16436002Y-90750621D01*
X16437347Y-90752174D01*
X16438764Y-90755726D01*
X16439934Y-90757889D01*
X16439935Y-90757890D01*
X16449462Y-90775495D01*
X16466055Y-90806157D01*
X16490174Y-90855491D01*
X16494742Y-90861889D01*
X16499582Y-90868107D01*
X16539971Y-90905289D01*
X16813569Y-91178886D01*
X16829697Y-91198745D01*
X16835636Y-91207836D01*
X16861721Y-91228139D01*
X16863649Y-91229639D01*
X16869411Y-91234728D01*
X16872203Y-91237520D01*
X16891206Y-91251088D01*
X16934531Y-91284809D01*
X16934533Y-91284809D01*
X16941455Y-91288555D01*
X16948518Y-91292008D01*
X16948521Y-91292010D01*
X17001132Y-91307673D01*
X17027096Y-91316586D01*
X17053059Y-91325500D01*
X17060821Y-91326795D01*
X17068631Y-91327768D01*
X17068632Y-91327769D01*
X17068632Y-91327768D01*
X17068633Y-91327769D01*
X17096060Y-91326634D01*
X17123489Y-91325500D01*
X18856705Y-91325500D01*
X18923744Y-91345185D01*
X18944386Y-91361819D01*
X19111453Y-91528886D01*
X19127582Y-91548747D01*
X19133520Y-91557836D01*
X19161533Y-91579639D01*
X19167295Y-91584728D01*
X19170087Y-91587520D01*
X19189090Y-91601088D01*
X19232415Y-91634809D01*
X19232417Y-91634809D01*
X19239322Y-91638546D01*
X19246400Y-91642006D01*
X19246405Y-91642010D01*
X19299007Y-91657670D01*
X19350942Y-91675500D01*
X19358676Y-91676790D01*
X19366514Y-91677767D01*
X19366516Y-91677768D01*
X19366517Y-91677767D01*
X19366518Y-91677768D01*
X19421360Y-91675500D01*
X20606705Y-91675500D01*
X20673744Y-91695185D01*
X20694386Y-91711819D01*
X21338181Y-92355614D01*
X21371666Y-92416937D01*
X21374500Y-92443295D01*
X21374500Y-99493133D01*
X21361902Y-99547590D01*
X21357989Y-99555593D01*
X21342329Y-99608195D01*
X21324500Y-99660130D01*
X21323206Y-99667884D01*
X21322231Y-99675703D01*
X21324500Y-99730547D01*
X21324500Y-103484592D01*
X21321862Y-103510030D01*
X21319633Y-103520664D01*
X21319633Y-103520665D01*
X21319633Y-103520667D01*
X21324023Y-103555887D01*
X21324500Y-103563563D01*
X21324500Y-103567512D01*
X21328342Y-103590537D01*
X21335134Y-103645023D01*
X21337373Y-103652543D01*
X21339934Y-103660004D01*
X21339935Y-103660006D01*
X21351783Y-103681899D01*
X21366055Y-103708273D01*
X21390174Y-103757607D01*
X21394742Y-103764005D01*
X21399582Y-103770223D01*
X21439971Y-103807405D01*
X22161453Y-104528886D01*
X22177581Y-104548745D01*
X22183520Y-104557836D01*
X22211536Y-104579641D01*
X22217297Y-104584730D01*
X22220086Y-104587519D01*
X22235791Y-104598732D01*
X22239086Y-104601084D01*
X22246883Y-104607153D01*
X22287697Y-104663863D01*
X22292620Y-104692700D01*
X22293818Y-104692555D01*
X22313762Y-104856818D01*
X22358705Y-104975321D01*
X22369780Y-105004523D01*
X22459517Y-105134530D01*
X22577760Y-105239283D01*
X22577762Y-105239284D01*
X22717634Y-105312696D01*
X22871014Y-105350500D01*
X22871015Y-105350500D01*
X23028985Y-105350500D01*
X23182365Y-105312696D01*
X23243920Y-105280389D01*
X23322240Y-105239283D01*
X23440483Y-105134530D01*
X23530220Y-105004523D01*
X23586237Y-104856818D01*
X23605278Y-104700000D01*
X23600513Y-104660752D01*
X23586237Y-104543181D01*
X23529459Y-104393471D01*
X23524092Y-104323808D01*
X23557239Y-104262302D01*
X23618378Y-104228480D01*
X23645401Y-104225500D01*
X24643101Y-104225500D01*
X24710140Y-104245185D01*
X24730782Y-104261819D01*
X25303086Y-104834123D01*
X25336571Y-104895446D01*
X25339405Y-104921804D01*
X25339405Y-106134685D01*
X25319720Y-106201724D01*
X25266916Y-106247479D01*
X25215405Y-106258685D01*
X24840228Y-106258685D01*
X24767169Y-106273217D01*
X24767165Y-106273218D01*
X24684304Y-106328584D01*
X24628938Y-106411445D01*
X24628937Y-106411449D01*
X24614405Y-106484506D01*
X24614405Y-110033863D01*
X24628937Y-110106920D01*
X24628938Y-110106924D01*
X24628939Y-110106925D01*
X24684304Y-110189786D01*
X24753420Y-110235967D01*
X24767165Y-110245151D01*
X24767169Y-110245152D01*
X24840226Y-110259684D01*
X24840229Y-110259685D01*
X24840231Y-110259685D01*
X26589581Y-110259685D01*
X26589582Y-110259684D01*
X26662645Y-110245151D01*
X26745506Y-110189786D01*
X26800871Y-110106925D01*
X26815404Y-110033863D01*
X27154405Y-110033863D01*
X27168937Y-110106920D01*
X27168938Y-110106924D01*
X27168939Y-110106925D01*
X27224304Y-110189786D01*
X27293420Y-110235967D01*
X27307165Y-110245151D01*
X27307169Y-110245152D01*
X27380226Y-110259684D01*
X27380229Y-110259685D01*
X27380231Y-110259685D01*
X29129581Y-110259685D01*
X29129582Y-110259684D01*
X29202645Y-110245151D01*
X29285506Y-110189786D01*
X29340871Y-110106925D01*
X29355404Y-110033863D01*
X29694405Y-110033863D01*
X29708937Y-110106920D01*
X29708938Y-110106924D01*
X29708939Y-110106925D01*
X29764304Y-110189786D01*
X29833420Y-110235967D01*
X29847165Y-110245151D01*
X29847169Y-110245152D01*
X29920226Y-110259684D01*
X29920229Y-110259685D01*
X29920231Y-110259685D01*
X31669581Y-110259685D01*
X31669582Y-110259684D01*
X31742645Y-110245151D01*
X31825506Y-110189786D01*
X31880871Y-110106925D01*
X31895404Y-110033863D01*
X32234405Y-110033863D01*
X32248937Y-110106920D01*
X32248938Y-110106924D01*
X32248939Y-110106925D01*
X32304304Y-110189786D01*
X32373420Y-110235967D01*
X32387165Y-110245151D01*
X32387169Y-110245152D01*
X32460226Y-110259684D01*
X32460229Y-110259685D01*
X32460231Y-110259685D01*
X34209581Y-110259685D01*
X34209582Y-110259684D01*
X34282645Y-110245151D01*
X34365506Y-110189786D01*
X34420871Y-110106925D01*
X34435404Y-110033863D01*
X34774405Y-110033863D01*
X34788937Y-110106920D01*
X34788938Y-110106924D01*
X34788939Y-110106925D01*
X34844304Y-110189786D01*
X34913420Y-110235967D01*
X34927165Y-110245151D01*
X34927169Y-110245152D01*
X35000226Y-110259684D01*
X35000229Y-110259685D01*
X35000231Y-110259685D01*
X36749581Y-110259685D01*
X36749582Y-110259684D01*
X36822645Y-110245151D01*
X36905506Y-110189786D01*
X36960871Y-110106925D01*
X36975404Y-110033863D01*
X37314405Y-110033863D01*
X37328937Y-110106920D01*
X37328938Y-110106924D01*
X37328939Y-110106925D01*
X37384304Y-110189786D01*
X37453420Y-110235967D01*
X37467165Y-110245151D01*
X37467169Y-110245152D01*
X37540226Y-110259684D01*
X37540229Y-110259685D01*
X37540231Y-110259685D01*
X39289581Y-110259685D01*
X39289582Y-110259684D01*
X39362645Y-110245151D01*
X39445506Y-110189786D01*
X39500871Y-110106925D01*
X39515404Y-110033863D01*
X39854405Y-110033863D01*
X39868937Y-110106920D01*
X39868938Y-110106924D01*
X39868939Y-110106925D01*
X39924304Y-110189786D01*
X39993420Y-110235967D01*
X40007165Y-110245151D01*
X40007169Y-110245152D01*
X40080226Y-110259684D01*
X40080229Y-110259685D01*
X40080231Y-110259685D01*
X41829581Y-110259685D01*
X41829582Y-110259684D01*
X41902645Y-110245151D01*
X41985506Y-110189786D01*
X42040871Y-110106925D01*
X42055404Y-110033863D01*
X42394405Y-110033863D01*
X42408937Y-110106920D01*
X42408938Y-110106924D01*
X42408939Y-110106925D01*
X42464304Y-110189786D01*
X42533420Y-110235967D01*
X42547165Y-110245151D01*
X42547169Y-110245152D01*
X42620226Y-110259684D01*
X42620229Y-110259685D01*
X42620231Y-110259685D01*
X44369581Y-110259685D01*
X44369582Y-110259684D01*
X44442645Y-110245151D01*
X44525506Y-110189786D01*
X44525510Y-110189779D01*
X44529718Y-110185572D01*
X44591040Y-110152085D01*
X44660732Y-110157067D01*
X44716667Y-110198936D01*
X44733584Y-110229914D01*
X44741550Y-110251270D01*
X44741554Y-110251278D01*
X44827714Y-110366372D01*
X44827717Y-110366375D01*
X44942811Y-110452535D01*
X44942818Y-110452539D01*
X45077525Y-110502781D01*
X45077532Y-110502783D01*
X45137060Y-110509184D01*
X45137077Y-110509185D01*
X45784905Y-110509185D01*
X45784905Y-106009185D01*
X46284905Y-106009185D01*
X46284905Y-110509185D01*
X46932733Y-110509185D01*
X46932749Y-110509184D01*
X46992277Y-110502783D01*
X46992284Y-110502781D01*
X47126991Y-110452539D01*
X47126998Y-110452535D01*
X47242092Y-110366375D01*
X47242095Y-110366372D01*
X47328255Y-110251278D01*
X47328259Y-110251271D01*
X47336224Y-110229917D01*
X47378095Y-110173983D01*
X47443559Y-110149566D01*
X47511832Y-110164417D01*
X47540087Y-110185569D01*
X47544301Y-110189783D01*
X47544302Y-110189784D01*
X47544304Y-110189786D01*
X47613420Y-110235967D01*
X47627165Y-110245151D01*
X47627169Y-110245152D01*
X47700226Y-110259684D01*
X47700229Y-110259685D01*
X47700231Y-110259685D01*
X49449581Y-110259685D01*
X49449582Y-110259684D01*
X49522645Y-110245151D01*
X49605506Y-110189786D01*
X49660871Y-110106925D01*
X49675404Y-110033863D01*
X50014405Y-110033863D01*
X50028937Y-110106920D01*
X50028938Y-110106924D01*
X50028939Y-110106925D01*
X50084304Y-110189786D01*
X50153420Y-110235967D01*
X50167165Y-110245151D01*
X50167169Y-110245152D01*
X50240226Y-110259684D01*
X50240229Y-110259685D01*
X50240231Y-110259685D01*
X51989581Y-110259685D01*
X51989582Y-110259684D01*
X52062645Y-110245151D01*
X52145506Y-110189786D01*
X52200871Y-110106925D01*
X52215404Y-110033863D01*
X52554405Y-110033863D01*
X52568937Y-110106920D01*
X52568938Y-110106924D01*
X52568939Y-110106925D01*
X52624304Y-110189786D01*
X52693420Y-110235967D01*
X52707165Y-110245151D01*
X52707169Y-110245152D01*
X52780226Y-110259684D01*
X52780229Y-110259685D01*
X52780231Y-110259685D01*
X54529581Y-110259685D01*
X54529582Y-110259684D01*
X54602645Y-110245151D01*
X54685506Y-110189786D01*
X54740871Y-110106925D01*
X54755404Y-110033863D01*
X55094405Y-110033863D01*
X55108937Y-110106920D01*
X55108938Y-110106924D01*
X55108939Y-110106925D01*
X55164304Y-110189786D01*
X55233420Y-110235967D01*
X55247165Y-110245151D01*
X55247169Y-110245152D01*
X55320226Y-110259684D01*
X55320229Y-110259685D01*
X55320231Y-110259685D01*
X57069581Y-110259685D01*
X57069582Y-110259684D01*
X57142645Y-110245151D01*
X57225506Y-110189786D01*
X57225510Y-110189779D01*
X57229718Y-110185572D01*
X57291040Y-110152085D01*
X57360732Y-110157067D01*
X57416667Y-110198936D01*
X57433584Y-110229914D01*
X57441550Y-110251270D01*
X57441554Y-110251278D01*
X57527714Y-110366372D01*
X57527717Y-110366375D01*
X57642811Y-110452535D01*
X57642818Y-110452539D01*
X57777525Y-110502781D01*
X57777532Y-110502783D01*
X57837060Y-110509184D01*
X57837077Y-110509185D01*
X58484905Y-110509185D01*
X58484905Y-106009185D01*
X58984905Y-106009185D01*
X58984905Y-110509185D01*
X59632733Y-110509185D01*
X59632749Y-110509184D01*
X59692277Y-110502783D01*
X59692284Y-110502781D01*
X59826991Y-110452539D01*
X59826998Y-110452535D01*
X59942092Y-110366375D01*
X59942095Y-110366372D01*
X60028255Y-110251278D01*
X60028259Y-110251271D01*
X60036224Y-110229917D01*
X60078095Y-110173983D01*
X60143559Y-110149566D01*
X60211832Y-110164417D01*
X60240087Y-110185569D01*
X60244301Y-110189783D01*
X60244302Y-110189784D01*
X60244304Y-110189786D01*
X60313420Y-110235967D01*
X60327165Y-110245151D01*
X60327169Y-110245152D01*
X60400226Y-110259684D01*
X60400229Y-110259685D01*
X60400231Y-110259685D01*
X62149581Y-110259685D01*
X62149582Y-110259684D01*
X62222645Y-110245151D01*
X62305506Y-110189786D01*
X62360871Y-110106925D01*
X62375404Y-110033863D01*
X62714405Y-110033863D01*
X62728937Y-110106920D01*
X62728938Y-110106924D01*
X62728939Y-110106925D01*
X62784304Y-110189786D01*
X62853420Y-110235967D01*
X62867165Y-110245151D01*
X62867169Y-110245152D01*
X62940226Y-110259684D01*
X62940229Y-110259685D01*
X62940231Y-110259685D01*
X64689581Y-110259685D01*
X64689582Y-110259684D01*
X64762645Y-110245151D01*
X64845506Y-110189786D01*
X64900871Y-110106925D01*
X64915405Y-110033859D01*
X64915405Y-110024678D01*
X68349500Y-110024678D01*
X68364032Y-110097735D01*
X68364033Y-110097739D01*
X68364034Y-110097740D01*
X68419399Y-110180601D01*
X68493207Y-110229917D01*
X68502260Y-110235966D01*
X68502264Y-110235967D01*
X68575321Y-110250499D01*
X68575324Y-110250500D01*
X68575326Y-110250500D01*
X78624676Y-110250500D01*
X78624677Y-110250499D01*
X78697740Y-110235966D01*
X78780601Y-110180601D01*
X78835966Y-110097740D01*
X78850500Y-110024674D01*
X78850500Y-104975326D01*
X78850500Y-104975323D01*
X78850499Y-104975321D01*
X78835967Y-104902264D01*
X78835966Y-104902260D01*
X78805605Y-104856821D01*
X78780601Y-104819399D01*
X78697740Y-104764034D01*
X78697739Y-104764033D01*
X78697735Y-104764032D01*
X78624677Y-104749500D01*
X78624674Y-104749500D01*
X68575326Y-104749500D01*
X68575323Y-104749500D01*
X68502264Y-104764032D01*
X68502260Y-104764033D01*
X68419399Y-104819399D01*
X68364033Y-104902260D01*
X68364032Y-104902264D01*
X68349500Y-104975321D01*
X68349500Y-110024678D01*
X64915405Y-110024678D01*
X64915405Y-106484511D01*
X64915405Y-106484508D01*
X64915404Y-106484506D01*
X64900872Y-106411449D01*
X64900871Y-106411445D01*
X64870697Y-106366286D01*
X64845506Y-106328584D01*
X64762645Y-106273219D01*
X64762644Y-106273218D01*
X64762640Y-106273217D01*
X64689582Y-106258685D01*
X64689579Y-106258685D01*
X62940231Y-106258685D01*
X62940228Y-106258685D01*
X62867169Y-106273217D01*
X62867165Y-106273218D01*
X62784304Y-106328584D01*
X62728938Y-106411445D01*
X62728937Y-106411449D01*
X62714405Y-106484506D01*
X62714405Y-110033863D01*
X62375404Y-110033863D01*
X62375405Y-110033859D01*
X62375405Y-106484511D01*
X62375405Y-106484508D01*
X62375404Y-106484506D01*
X62360872Y-106411449D01*
X62360871Y-106411445D01*
X62330697Y-106366286D01*
X62305506Y-106328584D01*
X62222645Y-106273219D01*
X62222644Y-106273218D01*
X62222640Y-106273217D01*
X62149582Y-106258685D01*
X62149579Y-106258685D01*
X60400231Y-106258685D01*
X60400228Y-106258685D01*
X60327169Y-106273217D01*
X60327165Y-106273218D01*
X60244302Y-106328585D01*
X60240084Y-106332804D01*
X60178759Y-106366286D01*
X60109068Y-106361299D01*
X60053136Y-106319426D01*
X60036224Y-106288453D01*
X60028258Y-106267097D01*
X60028255Y-106267091D01*
X59942095Y-106151997D01*
X59942092Y-106151994D01*
X59826998Y-106065834D01*
X59826991Y-106065830D01*
X59692284Y-106015588D01*
X59692277Y-106015586D01*
X59632749Y-106009185D01*
X58984905Y-106009185D01*
X58484905Y-106009185D01*
X57837060Y-106009185D01*
X57777532Y-106015586D01*
X57777525Y-106015588D01*
X57642818Y-106065830D01*
X57642811Y-106065834D01*
X57527717Y-106151994D01*
X57527714Y-106151997D01*
X57441554Y-106267091D01*
X57441548Y-106267101D01*
X57433583Y-106288457D01*
X57391710Y-106344389D01*
X57326245Y-106368803D01*
X57257972Y-106353949D01*
X57229722Y-106332800D01*
X57225508Y-106328586D01*
X57225506Y-106328585D01*
X57225506Y-106328584D01*
X57142645Y-106273219D01*
X57142644Y-106273218D01*
X57142640Y-106273217D01*
X57069582Y-106258685D01*
X57069579Y-106258685D01*
X55320231Y-106258685D01*
X55320228Y-106258685D01*
X55247169Y-106273217D01*
X55247165Y-106273218D01*
X55164304Y-106328584D01*
X55108938Y-106411445D01*
X55108937Y-106411449D01*
X55094405Y-106484506D01*
X55094405Y-110033863D01*
X54755404Y-110033863D01*
X54755405Y-110033859D01*
X54755405Y-106484511D01*
X54755405Y-106484508D01*
X54755404Y-106484506D01*
X54740872Y-106411449D01*
X54740871Y-106411445D01*
X54710697Y-106366286D01*
X54685506Y-106328584D01*
X54602645Y-106273219D01*
X54602644Y-106273218D01*
X54602640Y-106273217D01*
X54529582Y-106258685D01*
X54529579Y-106258685D01*
X52780231Y-106258685D01*
X52780228Y-106258685D01*
X52707169Y-106273217D01*
X52707165Y-106273218D01*
X52624304Y-106328584D01*
X52568938Y-106411445D01*
X52568937Y-106411449D01*
X52554405Y-106484506D01*
X52554405Y-110033863D01*
X52215404Y-110033863D01*
X52215405Y-110033859D01*
X52215405Y-106484511D01*
X52215405Y-106484508D01*
X52215404Y-106484506D01*
X52200872Y-106411449D01*
X52200871Y-106411445D01*
X52170697Y-106366286D01*
X52145506Y-106328584D01*
X52062645Y-106273219D01*
X52062644Y-106273218D01*
X52062640Y-106273217D01*
X51989582Y-106258685D01*
X51989579Y-106258685D01*
X50240231Y-106258685D01*
X50240228Y-106258685D01*
X50167169Y-106273217D01*
X50167165Y-106273218D01*
X50084304Y-106328584D01*
X50028938Y-106411445D01*
X50028937Y-106411449D01*
X50014405Y-106484506D01*
X50014405Y-110033863D01*
X49675404Y-110033863D01*
X49675405Y-110033859D01*
X49675405Y-106484511D01*
X49675405Y-106484508D01*
X49675404Y-106484506D01*
X49660872Y-106411449D01*
X49660871Y-106411445D01*
X49630697Y-106366286D01*
X49605506Y-106328584D01*
X49522645Y-106273219D01*
X49522644Y-106273218D01*
X49522640Y-106273217D01*
X49449582Y-106258685D01*
X49449579Y-106258685D01*
X47700231Y-106258685D01*
X47700228Y-106258685D01*
X47627169Y-106273217D01*
X47627165Y-106273218D01*
X47544302Y-106328585D01*
X47540084Y-106332804D01*
X47478759Y-106366286D01*
X47409068Y-106361299D01*
X47353136Y-106319426D01*
X47336224Y-106288453D01*
X47328258Y-106267097D01*
X47328255Y-106267091D01*
X47242095Y-106151997D01*
X47242092Y-106151994D01*
X47126998Y-106065834D01*
X47126991Y-106065830D01*
X46992284Y-106015588D01*
X46992277Y-106015586D01*
X46932749Y-106009185D01*
X46284905Y-106009185D01*
X45784905Y-106009185D01*
X45137060Y-106009185D01*
X45077532Y-106015586D01*
X45077525Y-106015588D01*
X44942818Y-106065830D01*
X44942811Y-106065834D01*
X44827717Y-106151994D01*
X44827714Y-106151997D01*
X44741554Y-106267091D01*
X44741548Y-106267101D01*
X44733583Y-106288457D01*
X44691710Y-106344389D01*
X44626245Y-106368803D01*
X44557972Y-106353949D01*
X44529722Y-106332800D01*
X44525508Y-106328586D01*
X44525506Y-106328585D01*
X44525506Y-106328584D01*
X44442645Y-106273219D01*
X44442644Y-106273218D01*
X44442640Y-106273217D01*
X44369582Y-106258685D01*
X44369579Y-106258685D01*
X42620231Y-106258685D01*
X42620228Y-106258685D01*
X42547169Y-106273217D01*
X42547165Y-106273218D01*
X42464304Y-106328584D01*
X42408938Y-106411445D01*
X42408937Y-106411449D01*
X42394405Y-106484506D01*
X42394405Y-110033863D01*
X42055404Y-110033863D01*
X42055405Y-110033859D01*
X42055405Y-106484511D01*
X42055405Y-106484508D01*
X42055404Y-106484506D01*
X42040872Y-106411449D01*
X42040871Y-106411445D01*
X42010697Y-106366286D01*
X41985506Y-106328584D01*
X41902645Y-106273219D01*
X41902644Y-106273218D01*
X41902640Y-106273217D01*
X41829582Y-106258685D01*
X41829579Y-106258685D01*
X40080231Y-106258685D01*
X40080228Y-106258685D01*
X40007169Y-106273217D01*
X40007165Y-106273218D01*
X39924304Y-106328584D01*
X39868938Y-106411445D01*
X39868937Y-106411449D01*
X39854405Y-106484506D01*
X39854405Y-110033863D01*
X39515404Y-110033863D01*
X39515405Y-110033859D01*
X39515405Y-106484511D01*
X39515405Y-106484508D01*
X39515404Y-106484506D01*
X39500872Y-106411449D01*
X39500871Y-106411445D01*
X39470697Y-106366286D01*
X39445506Y-106328584D01*
X39362645Y-106273219D01*
X39362644Y-106273218D01*
X39362640Y-106273217D01*
X39289582Y-106258685D01*
X39289579Y-106258685D01*
X37540231Y-106258685D01*
X37540228Y-106258685D01*
X37467169Y-106273217D01*
X37467165Y-106273218D01*
X37384304Y-106328584D01*
X37328938Y-106411445D01*
X37328937Y-106411449D01*
X37314405Y-106484506D01*
X37314405Y-110033863D01*
X36975404Y-110033863D01*
X36975405Y-110033859D01*
X36975405Y-106484511D01*
X36975405Y-106484508D01*
X36975404Y-106484506D01*
X36960872Y-106411449D01*
X36960871Y-106411445D01*
X36930697Y-106366286D01*
X36905506Y-106328584D01*
X36822645Y-106273219D01*
X36822644Y-106273218D01*
X36822640Y-106273217D01*
X36749582Y-106258685D01*
X36749579Y-106258685D01*
X35000231Y-106258685D01*
X35000228Y-106258685D01*
X34927169Y-106273217D01*
X34927165Y-106273218D01*
X34844304Y-106328584D01*
X34788938Y-106411445D01*
X34788937Y-106411449D01*
X34774405Y-106484506D01*
X34774405Y-110033863D01*
X34435404Y-110033863D01*
X34435405Y-110033859D01*
X34435405Y-106484511D01*
X34435405Y-106484508D01*
X34435404Y-106484506D01*
X34420872Y-106411449D01*
X34420871Y-106411445D01*
X34390697Y-106366286D01*
X34365506Y-106328584D01*
X34282645Y-106273219D01*
X34282644Y-106273218D01*
X34282640Y-106273217D01*
X34209582Y-106258685D01*
X34209579Y-106258685D01*
X32460231Y-106258685D01*
X32460228Y-106258685D01*
X32387169Y-106273217D01*
X32387165Y-106273218D01*
X32304304Y-106328584D01*
X32248938Y-106411445D01*
X32248937Y-106411449D01*
X32234405Y-106484506D01*
X32234405Y-110033863D01*
X31895404Y-110033863D01*
X31895405Y-110033859D01*
X31895405Y-106484511D01*
X31895405Y-106484508D01*
X31895404Y-106484506D01*
X31880872Y-106411449D01*
X31880871Y-106411445D01*
X31850697Y-106366286D01*
X31825506Y-106328584D01*
X31742645Y-106273219D01*
X31742644Y-106273218D01*
X31742640Y-106273217D01*
X31669582Y-106258685D01*
X31669579Y-106258685D01*
X29920231Y-106258685D01*
X29920228Y-106258685D01*
X29847169Y-106273217D01*
X29847165Y-106273218D01*
X29764304Y-106328584D01*
X29708938Y-106411445D01*
X29708937Y-106411449D01*
X29694405Y-106484506D01*
X29694405Y-110033863D01*
X29355404Y-110033863D01*
X29355405Y-110033859D01*
X29355405Y-106484511D01*
X29355405Y-106484508D01*
X29355404Y-106484506D01*
X29340872Y-106411449D01*
X29340871Y-106411445D01*
X29310697Y-106366286D01*
X29285506Y-106328584D01*
X29202645Y-106273219D01*
X29202644Y-106273218D01*
X29202640Y-106273217D01*
X29129582Y-106258685D01*
X29129579Y-106258685D01*
X27380231Y-106258685D01*
X27380228Y-106258685D01*
X27307169Y-106273217D01*
X27307165Y-106273218D01*
X27224304Y-106328584D01*
X27168938Y-106411445D01*
X27168937Y-106411449D01*
X27154405Y-106484506D01*
X27154405Y-110033863D01*
X26815404Y-110033863D01*
X26815405Y-110033859D01*
X26815405Y-106484511D01*
X26815405Y-106484508D01*
X26815404Y-106484506D01*
X26800872Y-106411449D01*
X26800871Y-106411445D01*
X26770697Y-106366286D01*
X26745506Y-106328584D01*
X26662645Y-106273219D01*
X26662644Y-106273218D01*
X26662640Y-106273217D01*
X26589582Y-106258685D01*
X26589579Y-106258685D01*
X26214405Y-106258685D01*
X26147366Y-106239000D01*
X26101611Y-106186196D01*
X26090405Y-106134685D01*
X26090405Y-104766708D01*
X26093044Y-104741263D01*
X26093690Y-104738179D01*
X26095272Y-104730636D01*
X26093192Y-104713956D01*
X26090882Y-104695413D01*
X26090405Y-104687737D01*
X26090405Y-104683794D01*
X26090404Y-104683788D01*
X26086560Y-104660751D01*
X26079770Y-104606278D01*
X26077522Y-104598732D01*
X26074970Y-104591295D01*
X26048847Y-104543024D01*
X26041935Y-104528886D01*
X26024731Y-104493693D01*
X26024728Y-104493690D01*
X26024728Y-104493689D01*
X26020172Y-104487307D01*
X26015328Y-104481083D01*
X26015324Y-104481079D01*
X25974946Y-104443908D01*
X25152149Y-103621111D01*
X25136022Y-103601252D01*
X25130086Y-103592167D01*
X25130083Y-103592163D01*
X25102074Y-103570363D01*
X25096310Y-103565272D01*
X25093515Y-103562477D01*
X25074505Y-103548906D01*
X25031189Y-103515190D01*
X25024274Y-103511448D01*
X25017200Y-103507990D01*
X24964596Y-103492329D01*
X24912658Y-103474499D01*
X24904923Y-103473208D01*
X24897085Y-103472231D01*
X24842244Y-103474500D01*
X23645401Y-103474500D01*
X23578362Y-103454815D01*
X23532607Y-103402011D01*
X23522663Y-103332853D01*
X23529459Y-103306529D01*
X23530220Y-103304523D01*
X23586237Y-103156818D01*
X23605278Y-103000000D01*
X23599102Y-102949144D01*
X23610561Y-102880224D01*
X23634514Y-102846521D01*
X24928889Y-101552146D01*
X24948746Y-101536022D01*
X24957836Y-101530084D01*
X24979651Y-101502054D01*
X24984719Y-101496316D01*
X24987520Y-101493517D01*
X25001088Y-101474513D01*
X25034809Y-101431189D01*
X25034810Y-101431183D01*
X25038542Y-101424289D01*
X25042003Y-101417207D01*
X25042010Y-101417199D01*
X25057670Y-101364596D01*
X25075500Y-101312660D01*
X25075500Y-101312655D01*
X25076790Y-101304924D01*
X25077768Y-101297085D01*
X25075500Y-101242244D01*
X25075500Y-92743295D01*
X25095185Y-92676256D01*
X25111819Y-92655614D01*
X26055615Y-91711819D01*
X26116938Y-91678334D01*
X26143296Y-91675500D01*
X27098196Y-91675500D01*
X27123641Y-91678139D01*
X27127440Y-91678935D01*
X27134268Y-91680367D01*
X27155225Y-91677754D01*
X27169492Y-91675977D01*
X27177168Y-91675500D01*
X27181112Y-91675500D01*
X27181114Y-91675500D01*
X27181116Y-91675499D01*
X27181122Y-91675499D01*
X27196487Y-91672934D01*
X27204140Y-91671657D01*
X27258626Y-91664866D01*
X27258627Y-91664865D01*
X27258629Y-91664865D01*
X27266141Y-91662628D01*
X27273606Y-91660066D01*
X27273606Y-91660065D01*
X27273610Y-91660065D01*
X27321877Y-91633944D01*
X27371211Y-91609826D01*
X27371214Y-91609823D01*
X27377594Y-91605268D01*
X27383818Y-91600423D01*
X27383826Y-91600419D01*
X27421008Y-91560028D01*
X27569663Y-91411373D01*
X27719218Y-91261819D01*
X27780541Y-91228334D01*
X27806899Y-91225500D01*
X29282286Y-91225500D01*
X29307731Y-91228139D01*
X29311530Y-91228935D01*
X29318358Y-91230367D01*
X29339315Y-91227754D01*
X29353582Y-91225977D01*
X29361258Y-91225500D01*
X29365202Y-91225500D01*
X29365204Y-91225500D01*
X29365206Y-91225499D01*
X29365212Y-91225499D01*
X29380577Y-91222934D01*
X29388230Y-91221657D01*
X29442716Y-91214866D01*
X29442717Y-91214865D01*
X29442719Y-91214865D01*
X29450231Y-91212628D01*
X29457696Y-91210066D01*
X29457696Y-91210065D01*
X29457700Y-91210065D01*
X29505967Y-91183944D01*
X29555301Y-91159826D01*
X29555304Y-91159823D01*
X29561684Y-91155268D01*
X29567912Y-91150420D01*
X29567916Y-91150419D01*
X29605096Y-91110030D01*
X29778892Y-90936234D01*
X29798741Y-90920115D01*
X29807836Y-90914174D01*
X29829644Y-90886152D01*
X29834721Y-90880406D01*
X29837520Y-90877608D01*
X29851094Y-90858594D01*
X29866291Y-90839070D01*
X29884807Y-90815282D01*
X29888547Y-90808370D01*
X29892003Y-90801297D01*
X29892010Y-90801289D01*
X29901830Y-90768303D01*
X29939825Y-90709667D01*
X30003490Y-90680882D01*
X30020675Y-90679685D01*
X31669581Y-90679685D01*
X31669582Y-90679684D01*
X31742645Y-90665151D01*
X31825506Y-90609786D01*
X31825510Y-90609779D01*
X31829718Y-90605572D01*
X31891040Y-90572085D01*
X31960732Y-90577067D01*
X32016667Y-90618936D01*
X32033584Y-90649914D01*
X32041550Y-90671270D01*
X32041554Y-90671278D01*
X32127714Y-90786372D01*
X32127717Y-90786375D01*
X32242811Y-90872535D01*
X32242818Y-90872539D01*
X32377525Y-90922781D01*
X32377532Y-90922783D01*
X32437060Y-90929184D01*
X32437077Y-90929185D01*
X33084905Y-90929185D01*
X33084905Y-86429185D01*
X33584905Y-86429185D01*
X33584905Y-90929185D01*
X34232733Y-90929185D01*
X34232749Y-90929184D01*
X34292277Y-90922783D01*
X34292284Y-90922781D01*
X34426991Y-90872539D01*
X34426998Y-90872535D01*
X34542092Y-90786375D01*
X34542095Y-90786372D01*
X34628255Y-90671278D01*
X34628259Y-90671271D01*
X34636224Y-90649917D01*
X34678095Y-90593983D01*
X34743559Y-90569566D01*
X34811832Y-90584417D01*
X34840087Y-90605569D01*
X34844301Y-90609783D01*
X34844302Y-90609784D01*
X34844304Y-90609786D01*
X34911696Y-90654815D01*
X34927165Y-90665151D01*
X34927169Y-90665152D01*
X35000226Y-90679684D01*
X35000229Y-90679685D01*
X35000231Y-90679685D01*
X36749581Y-90679685D01*
X36749582Y-90679684D01*
X36822645Y-90665151D01*
X36905506Y-90609786D01*
X36960871Y-90526925D01*
X36975405Y-90453859D01*
X36975405Y-86904511D01*
X36975405Y-86904508D01*
X36975404Y-86904506D01*
X36960872Y-86831449D01*
X36960871Y-86831445D01*
X36930697Y-86786286D01*
X36905506Y-86748584D01*
X36822645Y-86693219D01*
X36822644Y-86693218D01*
X36822640Y-86693217D01*
X36749582Y-86678685D01*
X36749579Y-86678685D01*
X35000231Y-86678685D01*
X35000228Y-86678685D01*
X34927169Y-86693217D01*
X34927165Y-86693218D01*
X34844302Y-86748585D01*
X34840084Y-86752804D01*
X34778759Y-86786286D01*
X34709068Y-86781299D01*
X34653136Y-86739426D01*
X34636224Y-86708453D01*
X34628258Y-86687097D01*
X34628255Y-86687091D01*
X34542095Y-86571997D01*
X34542092Y-86571994D01*
X34426998Y-86485834D01*
X34426991Y-86485830D01*
X34292284Y-86435588D01*
X34292277Y-86435586D01*
X34232749Y-86429185D01*
X33584905Y-86429185D01*
X33084905Y-86429185D01*
X32437060Y-86429185D01*
X32377532Y-86435586D01*
X32377525Y-86435588D01*
X32242818Y-86485830D01*
X32242811Y-86485834D01*
X32127717Y-86571994D01*
X32127714Y-86571997D01*
X32041554Y-86687091D01*
X32041548Y-86687101D01*
X32033583Y-86708457D01*
X31991710Y-86764389D01*
X31926245Y-86788803D01*
X31857972Y-86773949D01*
X31829722Y-86752800D01*
X31825508Y-86748586D01*
X31825506Y-86748585D01*
X31825506Y-86748584D01*
X31742645Y-86693219D01*
X31742644Y-86693218D01*
X31742640Y-86693217D01*
X31669582Y-86678685D01*
X31669579Y-86678685D01*
X30025382Y-86678685D01*
X29958343Y-86659000D01*
X29915415Y-86609459D01*
X29914956Y-86609708D01*
X29913832Y-86607632D01*
X29912588Y-86606196D01*
X29911276Y-86602909D01*
X29910065Y-86600671D01*
X29910065Y-86600670D01*
X29883942Y-86552399D01*
X29859826Y-86503068D01*
X29859823Y-86503065D01*
X29859823Y-86503064D01*
X29855267Y-86496682D01*
X29850423Y-86490458D01*
X29850419Y-86490454D01*
X29810041Y-86453283D01*
X29577869Y-86221111D01*
X29561742Y-86201252D01*
X29555806Y-86192167D01*
X29555803Y-86192163D01*
X29527794Y-86170363D01*
X29522030Y-86165272D01*
X29519235Y-86162477D01*
X29500225Y-86148906D01*
X29456909Y-86115190D01*
X29449994Y-86111448D01*
X29442920Y-86107990D01*
X29390316Y-86092329D01*
X29338378Y-86074499D01*
X29330643Y-86073208D01*
X29322805Y-86072231D01*
X29267964Y-86074500D01*
X27579015Y-86074500D01*
X27511976Y-86054815D01*
X27491334Y-86038181D01*
X27344637Y-85891484D01*
X27174265Y-85721111D01*
X27158138Y-85701252D01*
X27152202Y-85692167D01*
X27152199Y-85692163D01*
X27124190Y-85670363D01*
X27118426Y-85665272D01*
X27115631Y-85662477D01*
X27096621Y-85648906D01*
X27053305Y-85615190D01*
X27046390Y-85611448D01*
X27039316Y-85607990D01*
X26986712Y-85592329D01*
X26934774Y-85574499D01*
X26927039Y-85573208D01*
X26919201Y-85572231D01*
X26864360Y-85574500D01*
X26059500Y-85574500D01*
X25992461Y-85554815D01*
X25946706Y-85502011D01*
X25935500Y-85450500D01*
X25935500Y-84170099D01*
X25955185Y-84103060D01*
X26007989Y-84057305D01*
X26018525Y-84053065D01*
X26047882Y-84042793D01*
X26157150Y-83962150D01*
X26237793Y-83852882D01*
X26267506Y-83767967D01*
X26282646Y-83724701D01*
X26282646Y-83724699D01*
X26285500Y-83694269D01*
X26285500Y-83185730D01*
X26282646Y-83155300D01*
X26282646Y-83155298D01*
X26237793Y-83027119D01*
X26237792Y-83027117D01*
X26157150Y-82917850D01*
X26047882Y-82837207D01*
X26047880Y-82837206D01*
X25919700Y-82792353D01*
X25889270Y-82789500D01*
X25889266Y-82789500D01*
X25230734Y-82789500D01*
X25230730Y-82789500D01*
X25200300Y-82792353D01*
X25200298Y-82792353D01*
X25072119Y-82837206D01*
X25072117Y-82837207D01*
X24962850Y-82917850D01*
X24882207Y-83027117D01*
X24882206Y-83027119D01*
X24837353Y-83155298D01*
X24837353Y-83155300D01*
X24834500Y-83185730D01*
X24834500Y-83694269D01*
X24837353Y-83724699D01*
X24837353Y-83724701D01*
X24867703Y-83811433D01*
X24882207Y-83852882D01*
X24962850Y-83962150D01*
X25072118Y-84042793D01*
X25101456Y-84053059D01*
X25158230Y-84093779D01*
X25183978Y-84158731D01*
X25184500Y-84170099D01*
X25184500Y-85758196D01*
X25181862Y-85783634D01*
X25179633Y-85794268D01*
X25179633Y-85794269D01*
X25179633Y-85794271D01*
X25184023Y-85829491D01*
X25184500Y-85837167D01*
X25184500Y-85841115D01*
X25188342Y-85864139D01*
X25190962Y-85885158D01*
X25179723Y-85954118D01*
X25132986Y-86006055D01*
X25067915Y-86024500D01*
X24989016Y-86024500D01*
X24921977Y-86004815D01*
X24901335Y-85988181D01*
X24684265Y-85771111D01*
X24668138Y-85751252D01*
X24662202Y-85742167D01*
X24662199Y-85742163D01*
X24634190Y-85720363D01*
X24628426Y-85715272D01*
X24625631Y-85712477D01*
X24606621Y-85698906D01*
X24563305Y-85665190D01*
X24556390Y-85661448D01*
X24549316Y-85657990D01*
X24496712Y-85642329D01*
X24444774Y-85624499D01*
X24437039Y-85623208D01*
X24429201Y-85622231D01*
X24374360Y-85624500D01*
X23939500Y-85624500D01*
X23872461Y-85604815D01*
X23826706Y-85552011D01*
X23815500Y-85500500D01*
X23815500Y-80957980D01*
X23835185Y-80890941D01*
X23865867Y-80858210D01*
X23923737Y-80815500D01*
X23962150Y-80787150D01*
X24042793Y-80677882D01*
X24075229Y-80585185D01*
X24087646Y-80549701D01*
X24087646Y-80549699D01*
X24090500Y-80519269D01*
X24090500Y-79860730D01*
X24087646Y-79830300D01*
X24087646Y-79830298D01*
X24053058Y-79731454D01*
X24042793Y-79702118D01*
X23962150Y-79592850D01*
X23852882Y-79512207D01*
X23852880Y-79512206D01*
X23724700Y-79467353D01*
X23694270Y-79464500D01*
X23694266Y-79464500D01*
X23185734Y-79464500D01*
X23185730Y-79464500D01*
X23155300Y-79467353D01*
X23155298Y-79467353D01*
X23027119Y-79512206D01*
X23027117Y-79512207D01*
X22917850Y-79592850D01*
X22859175Y-79672352D01*
X22803527Y-79714603D01*
X22733871Y-79720061D01*
X22672322Y-79686993D01*
X22638421Y-79625899D01*
X22635405Y-79598718D01*
X22635405Y-59703389D01*
X22655090Y-59636350D01*
X22671719Y-59615713D01*
X32448889Y-49838542D01*
X32468746Y-49822418D01*
X32477836Y-49816480D01*
X32499638Y-49788467D01*
X32504733Y-49782699D01*
X32507519Y-49779914D01*
X32507528Y-49779902D01*
X32521086Y-49760912D01*
X32554807Y-49717588D01*
X32558547Y-49710674D01*
X32562006Y-49703599D01*
X32562010Y-49703595D01*
X32569196Y-49679457D01*
X32577672Y-49650989D01*
X32595500Y-49599057D01*
X32596791Y-49591320D01*
X32597768Y-49583482D01*
X32595500Y-49528640D01*
X32595500Y-44499500D01*
X32615185Y-44432461D01*
X32667989Y-44386706D01*
X32719500Y-44375500D01*
X33675500Y-44375500D01*
X33742539Y-44395185D01*
X33788294Y-44447989D01*
X33799500Y-44499500D01*
X33799500Y-44524678D01*
X33814032Y-44597735D01*
X33814033Y-44597739D01*
X33814034Y-44597740D01*
X33869399Y-44680601D01*
X33952260Y-44735966D01*
X33952264Y-44735967D01*
X34025321Y-44750499D01*
X34025324Y-44750500D01*
X34025326Y-44750500D01*
X35574676Y-44750500D01*
X35574677Y-44750499D01*
X35647740Y-44735966D01*
X35730601Y-44680601D01*
X35785966Y-44597740D01*
X35800500Y-44524674D01*
X35800500Y-43475326D01*
X35800500Y-43475323D01*
X35800499Y-43475321D01*
X35785968Y-43402267D01*
X35785966Y-43402264D01*
X35785966Y-43402260D01*
X35785963Y-43402256D01*
X35783977Y-43397461D01*
X35776504Y-43327992D01*
X35783977Y-43302539D01*
X35785962Y-43297745D01*
X35785966Y-43297740D01*
X35800500Y-43224674D01*
X35800500Y-43199500D01*
X35820185Y-43132461D01*
X35872989Y-43086706D01*
X35924500Y-43075500D01*
X36840500Y-43075500D01*
X36907539Y-43095185D01*
X36953294Y-43147989D01*
X36964500Y-43199500D01*
X36964500Y-44964974D01*
X36961862Y-44990412D01*
X36959633Y-45001046D01*
X36959633Y-45001047D01*
X36959633Y-45001049D01*
X36964023Y-45036269D01*
X36964500Y-45043945D01*
X36964500Y-45047894D01*
X36968342Y-45070919D01*
X36975134Y-45125405D01*
X36977373Y-45132925D01*
X36979934Y-45140386D01*
X36979935Y-45140388D01*
X37006055Y-45188655D01*
X37030174Y-45237989D01*
X37034742Y-45244387D01*
X37039579Y-45250600D01*
X37039581Y-45250604D01*
X37079967Y-45287782D01*
X37146078Y-45353894D01*
X37162201Y-45373749D01*
X37168136Y-45382833D01*
X37168138Y-45382836D01*
X37196147Y-45404636D01*
X37201909Y-45409725D01*
X37204704Y-45412520D01*
X37223717Y-45426094D01*
X37267033Y-45459809D01*
X37267040Y-45459811D01*
X37273942Y-45463547D01*
X37281018Y-45467006D01*
X37281023Y-45467010D01*
X37333625Y-45482670D01*
X37385560Y-45500500D01*
X37393294Y-45501790D01*
X37401132Y-45502767D01*
X37401134Y-45502768D01*
X37401135Y-45502767D01*
X37401136Y-45502768D01*
X37455978Y-45500500D01*
X38375500Y-45500500D01*
X38442539Y-45520185D01*
X38488294Y-45572989D01*
X38499500Y-45624500D01*
X38499500Y-47999974D01*
X38496862Y-48025412D01*
X38494633Y-48036046D01*
X38494633Y-48036047D01*
X38494633Y-48036049D01*
X38499023Y-48071269D01*
X38499500Y-48078945D01*
X38499500Y-48082894D01*
X38503342Y-48105919D01*
X38510134Y-48160405D01*
X38512373Y-48167925D01*
X38514934Y-48175386D01*
X38514935Y-48175388D01*
X38541055Y-48223655D01*
X38565174Y-48272989D01*
X38569742Y-48279387D01*
X38574582Y-48285605D01*
X38614971Y-48322787D01*
X38646071Y-48353887D01*
X38662198Y-48373745D01*
X38668137Y-48382835D01*
X38668138Y-48382836D01*
X38696151Y-48404639D01*
X38701913Y-48409728D01*
X38704705Y-48412520D01*
X38723708Y-48426088D01*
X38767033Y-48459809D01*
X38767035Y-48459809D01*
X38773957Y-48463555D01*
X38781020Y-48467008D01*
X38781023Y-48467010D01*
X38833634Y-48482673D01*
X38859598Y-48491586D01*
X38885561Y-48500500D01*
X38893323Y-48501795D01*
X38901133Y-48502768D01*
X38901134Y-48502769D01*
X38901134Y-48502768D01*
X38901135Y-48502769D01*
X38928562Y-48501634D01*
X38955991Y-48500500D01*
X39875500Y-48500500D01*
X39942539Y-48520185D01*
X39988294Y-48572989D01*
X39999500Y-48624500D01*
X39999500Y-49499974D01*
X39996862Y-49525412D01*
X39994633Y-49536046D01*
X39994633Y-49536047D01*
X39994633Y-49536049D01*
X39999023Y-49571269D01*
X39999500Y-49578945D01*
X39999500Y-49582894D01*
X40003342Y-49605919D01*
X40010134Y-49660405D01*
X40012373Y-49667925D01*
X40014934Y-49675386D01*
X40014935Y-49675388D01*
X40033700Y-49710064D01*
X40041055Y-49723655D01*
X40065174Y-49772989D01*
X40069742Y-49779387D01*
X40074582Y-49785605D01*
X40114971Y-49822787D01*
X40146071Y-49853887D01*
X40162198Y-49873745D01*
X40168137Y-49882835D01*
X40168138Y-49882836D01*
X40196151Y-49904639D01*
X40201913Y-49909728D01*
X40204705Y-49912520D01*
X40223708Y-49926088D01*
X40267033Y-49959809D01*
X40267035Y-49959809D01*
X40273957Y-49963555D01*
X40281020Y-49967008D01*
X40281023Y-49967010D01*
X40333634Y-49982673D01*
X40359598Y-49991586D01*
X40385561Y-50000500D01*
X40393323Y-50001795D01*
X40401133Y-50002768D01*
X40401134Y-50002769D01*
X40401134Y-50002768D01*
X40401135Y-50002769D01*
X40428562Y-50001634D01*
X40455991Y-50000500D01*
X41300500Y-50000500D01*
X41367539Y-50020185D01*
X41413294Y-50072989D01*
X41424500Y-50124500D01*
X41424500Y-52228196D01*
X41421862Y-52253634D01*
X41419633Y-52264268D01*
X41419633Y-52264269D01*
X41419633Y-52264271D01*
X41424023Y-52299491D01*
X41424500Y-52307167D01*
X41424500Y-52311116D01*
X41428342Y-52334141D01*
X41435134Y-52388627D01*
X41437373Y-52396147D01*
X41439934Y-52403608D01*
X41439935Y-52403610D01*
X41448232Y-52418942D01*
X41466055Y-52451877D01*
X41490174Y-52501211D01*
X41494746Y-52507615D01*
X41498350Y-52512244D01*
X41500320Y-52517237D01*
X41504345Y-52522630D01*
X41504422Y-52522772D01*
X41502842Y-52523628D01*
X41523995Y-52577237D01*
X41524500Y-52588411D01*
X41524500Y-54631992D01*
X41517782Y-54672253D01*
X41504499Y-54710944D01*
X41503206Y-54718696D01*
X41502231Y-54726515D01*
X41504500Y-54781359D01*
X41504500Y-69054592D01*
X41501862Y-69080030D01*
X41499633Y-69090664D01*
X41499633Y-69090665D01*
X41499633Y-69090667D01*
X41504023Y-69125887D01*
X41504500Y-69133563D01*
X41504500Y-69137512D01*
X41508342Y-69160537D01*
X41515134Y-69215023D01*
X41517373Y-69222543D01*
X41519934Y-69230004D01*
X41519935Y-69230006D01*
X41521032Y-69232033D01*
X41546055Y-69278273D01*
X41570174Y-69327607D01*
X41574742Y-69334005D01*
X41579582Y-69340223D01*
X41619971Y-69377405D01*
X45013181Y-72770614D01*
X45046666Y-72831937D01*
X45049500Y-72858295D01*
X45049500Y-78768100D01*
X45029815Y-78835139D01*
X45013181Y-78855781D01*
X44290781Y-79578181D01*
X44229458Y-79611666D01*
X44203100Y-79614500D01*
X42124000Y-79614500D01*
X42056961Y-79594815D01*
X42011206Y-79542011D01*
X42000000Y-79490500D01*
X42000000Y-75000000D01*
X40624000Y-75000000D01*
X40556961Y-74980315D01*
X40511206Y-74927511D01*
X40500000Y-74876000D01*
X40500000Y-73500000D01*
X37500000Y-73500000D01*
X37500000Y-74876000D01*
X37480315Y-74943039D01*
X37427511Y-74988794D01*
X37376000Y-75000000D01*
X36000000Y-75000000D01*
X36000000Y-76376000D01*
X35980315Y-76443039D01*
X35927511Y-76488794D01*
X35876000Y-76500000D01*
X34624000Y-76500000D01*
X34556961Y-76480315D01*
X34511206Y-76427511D01*
X34500000Y-76376000D01*
X34500000Y-75000000D01*
X33124000Y-75000000D01*
X33056961Y-74980315D01*
X33011206Y-74927511D01*
X33000000Y-74876000D01*
X33000000Y-73500000D01*
X30000000Y-73500000D01*
X30000000Y-74876000D01*
X29980315Y-74943039D01*
X29927511Y-74988794D01*
X29876000Y-75000000D01*
X28500000Y-75000000D01*
X28500000Y-79450500D01*
X28480315Y-79517539D01*
X28427511Y-79563294D01*
X28376000Y-79574500D01*
X26671804Y-79574500D01*
X26646359Y-79571861D01*
X26635733Y-79569633D01*
X26635730Y-79569633D01*
X26600508Y-79574023D01*
X26592832Y-79574500D01*
X26588886Y-79574500D01*
X26571615Y-79577381D01*
X26565858Y-79578342D01*
X26511370Y-79585134D01*
X26503857Y-79587371D01*
X26496387Y-79589936D01*
X26448122Y-79616055D01*
X26398792Y-79640171D01*
X26392375Y-79644753D01*
X26386176Y-79649578D01*
X26348993Y-79689969D01*
X26260781Y-79778181D01*
X26199458Y-79811666D01*
X26173100Y-79814500D01*
X25820099Y-79814500D01*
X25753060Y-79794815D01*
X25707305Y-79742011D01*
X25703065Y-79731474D01*
X25692793Y-79702118D01*
X25612150Y-79592850D01*
X25502882Y-79512207D01*
X25502880Y-79512206D01*
X25374700Y-79467353D01*
X25344270Y-79464500D01*
X25344266Y-79464500D01*
X24835734Y-79464500D01*
X24835730Y-79464500D01*
X24805300Y-79467353D01*
X24805298Y-79467353D01*
X24677119Y-79512206D01*
X24677117Y-79512207D01*
X24567850Y-79592850D01*
X24487207Y-79702117D01*
X24487206Y-79702119D01*
X24442353Y-79830298D01*
X24442353Y-79830300D01*
X24439500Y-79860730D01*
X24439500Y-80519269D01*
X24442353Y-80549699D01*
X24442353Y-80549701D01*
X24487206Y-80677880D01*
X24487207Y-80677882D01*
X24567850Y-80787150D01*
X24677118Y-80867793D01*
X24714499Y-80880873D01*
X24805299Y-80912646D01*
X24835730Y-80915500D01*
X25118800Y-80915500D01*
X25185839Y-80935185D01*
X25231594Y-80987989D01*
X25241538Y-81057147D01*
X25212513Y-81120703D01*
X25159755Y-81156541D01*
X25072119Y-81187206D01*
X25072117Y-81187207D01*
X24962850Y-81267850D01*
X24882207Y-81377117D01*
X24882206Y-81377119D01*
X24837353Y-81505298D01*
X24837353Y-81505300D01*
X24834500Y-81535730D01*
X24834500Y-82044269D01*
X24837353Y-82074699D01*
X24837353Y-82074701D01*
X24882206Y-82202880D01*
X24882207Y-82202882D01*
X24962850Y-82312150D01*
X25072118Y-82392793D01*
X25114845Y-82407744D01*
X25200299Y-82437646D01*
X25230730Y-82440500D01*
X25230734Y-82440500D01*
X25889270Y-82440500D01*
X25919699Y-82437646D01*
X25919701Y-82437646D01*
X25983790Y-82415219D01*
X26047882Y-82392793D01*
X26157150Y-82312150D01*
X26237793Y-82202882D01*
X26278930Y-82085319D01*
X26282646Y-82074701D01*
X26282646Y-82074699D01*
X26285500Y-82044269D01*
X26285500Y-81646899D01*
X26305185Y-81579860D01*
X26321819Y-81559218D01*
X27069219Y-80811819D01*
X27130542Y-80778334D01*
X27156900Y-80775500D01*
X29876000Y-80775500D01*
X29943039Y-80795185D01*
X29988794Y-80847989D01*
X30000000Y-80899500D01*
X30000000Y-81000000D01*
X31376000Y-81000000D01*
X31443039Y-81019685D01*
X31488794Y-81072489D01*
X31500000Y-81124000D01*
X31500000Y-82500000D01*
X32876000Y-82500000D01*
X32943039Y-82519685D01*
X32988794Y-82572489D01*
X33000000Y-82624000D01*
X33000000Y-84000000D01*
X34376000Y-84000000D01*
X34443039Y-84019685D01*
X34488794Y-84072489D01*
X34500000Y-84124000D01*
X34500000Y-85500000D01*
X36000000Y-85500000D01*
X36000000Y-84124000D01*
X36019685Y-84056961D01*
X36072489Y-84011206D01*
X36124000Y-84000000D01*
X37500000Y-84000000D01*
X37500000Y-82624000D01*
X37519685Y-82556961D01*
X37572489Y-82511206D01*
X37624000Y-82500000D01*
X39000000Y-82500000D01*
X39000000Y-81124000D01*
X39019685Y-81056961D01*
X39072489Y-81011206D01*
X39124000Y-81000000D01*
X40500000Y-81000000D01*
X40500000Y-80939500D01*
X40519685Y-80872461D01*
X40572489Y-80826706D01*
X40624000Y-80815500D01*
X43513101Y-80815500D01*
X43580140Y-80835185D01*
X43600782Y-80851819D01*
X43737849Y-80988886D01*
X43753977Y-81008745D01*
X43759916Y-81017836D01*
X43787932Y-81039641D01*
X43793693Y-81044730D01*
X43796482Y-81047519D01*
X43815483Y-81061085D01*
X43848651Y-81086901D01*
X43858811Y-81094809D01*
X43865722Y-81098549D01*
X43872800Y-81102010D01*
X43897875Y-81109475D01*
X43925405Y-81117671D01*
X43977340Y-81135500D01*
X43977342Y-81135500D01*
X43985079Y-81136791D01*
X43992909Y-81137767D01*
X43992911Y-81137768D01*
X43992912Y-81137767D01*
X43992913Y-81137768D01*
X44047755Y-81135500D01*
X44384908Y-81135500D01*
X44451947Y-81155185D01*
X44497702Y-81207989D01*
X44501949Y-81218544D01*
X44522682Y-81277794D01*
X44547207Y-81347882D01*
X44627850Y-81457150D01*
X44737118Y-81537793D01*
X44768097Y-81548633D01*
X44865299Y-81582646D01*
X44895730Y-81585500D01*
X44895734Y-81585500D01*
X45404270Y-81585500D01*
X45434699Y-81582646D01*
X45459542Y-81573953D01*
X45529321Y-81570389D01*
X45589949Y-81605116D01*
X45622178Y-81667109D01*
X45624500Y-81690993D01*
X45624500Y-84243100D01*
X45604815Y-84310139D01*
X45588181Y-84330781D01*
X44880781Y-85038181D01*
X44819458Y-85071666D01*
X44793100Y-85074500D01*
X42051803Y-85074500D01*
X42026358Y-85071861D01*
X42015732Y-85069633D01*
X42015729Y-85069633D01*
X41980507Y-85074023D01*
X41972831Y-85074500D01*
X41968886Y-85074500D01*
X41957371Y-85076421D01*
X41945856Y-85078342D01*
X41927696Y-85080606D01*
X41891375Y-85085134D01*
X41891371Y-85085135D01*
X41883842Y-85087377D01*
X41876383Y-85089937D01*
X41828118Y-85116058D01*
X41778791Y-85140172D01*
X41772381Y-85144748D01*
X41766175Y-85149579D01*
X41728992Y-85189970D01*
X40726013Y-86192947D01*
X40706159Y-86209071D01*
X40697070Y-86215009D01*
X40697069Y-86215010D01*
X40675268Y-86243018D01*
X40670191Y-86248769D01*
X40667389Y-86251572D01*
X40667379Y-86251583D01*
X40653810Y-86270590D01*
X40620097Y-86313903D01*
X40616352Y-86320824D01*
X40612893Y-86327899D01*
X40597234Y-86380498D01*
X40579405Y-86432433D01*
X40578111Y-86440187D01*
X40577136Y-86448006D01*
X40579405Y-86502850D01*
X40579405Y-86554685D01*
X40559720Y-86621724D01*
X40506916Y-86667479D01*
X40455405Y-86678685D01*
X40080228Y-86678685D01*
X40007169Y-86693217D01*
X40007165Y-86693218D01*
X39924304Y-86748584D01*
X39868938Y-86831445D01*
X39868937Y-86831449D01*
X39854405Y-86904506D01*
X39854405Y-86904511D01*
X39854405Y-90453859D01*
X39854405Y-90453861D01*
X39854404Y-90453861D01*
X39868816Y-90526308D01*
X39862589Y-90595900D01*
X39819726Y-90651077D01*
X39753837Y-90674322D01*
X39747199Y-90674500D01*
X39622611Y-90674500D01*
X39555572Y-90654815D01*
X39509817Y-90602011D01*
X39499873Y-90532853D01*
X39500994Y-90526308D01*
X39515405Y-90453861D01*
X39515405Y-86904508D01*
X39515404Y-86904506D01*
X39500872Y-86831449D01*
X39500871Y-86831445D01*
X39470697Y-86786286D01*
X39445506Y-86748584D01*
X39362645Y-86693219D01*
X39362644Y-86693218D01*
X39362640Y-86693217D01*
X39289582Y-86678685D01*
X39289579Y-86678685D01*
X37540231Y-86678685D01*
X37540228Y-86678685D01*
X37467169Y-86693217D01*
X37467165Y-86693218D01*
X37384304Y-86748584D01*
X37328938Y-86831445D01*
X37328937Y-86831449D01*
X37314405Y-86904506D01*
X37314405Y-90453863D01*
X37328937Y-90526920D01*
X37328938Y-90526924D01*
X37328939Y-90526925D01*
X37384304Y-90609786D01*
X37451696Y-90654815D01*
X37467165Y-90665151D01*
X37467169Y-90665152D01*
X37540226Y-90679684D01*
X37540229Y-90679685D01*
X37540231Y-90679685D01*
X37915615Y-90679685D01*
X37982654Y-90699370D01*
X38028409Y-90752174D01*
X38038544Y-90790965D01*
X38038561Y-90790963D01*
X38038591Y-90791147D01*
X38039191Y-90793441D01*
X38039404Y-90796019D01*
X38043247Y-90819046D01*
X38050039Y-90873532D01*
X38052278Y-90881052D01*
X38054839Y-90888513D01*
X38054840Y-90888515D01*
X38074442Y-90924738D01*
X38080960Y-90936782D01*
X38105079Y-90986116D01*
X38109647Y-90992514D01*
X38114487Y-90998732D01*
X38154876Y-91035914D01*
X38397849Y-91278886D01*
X38413978Y-91298747D01*
X38419809Y-91307673D01*
X38419916Y-91307836D01*
X38447932Y-91329641D01*
X38453693Y-91334730D01*
X38456482Y-91337519D01*
X38475483Y-91351085D01*
X38517700Y-91383944D01*
X38518811Y-91384809D01*
X38525722Y-91388549D01*
X38532800Y-91392010D01*
X38541910Y-91394722D01*
X38585405Y-91407671D01*
X38637340Y-91425500D01*
X38637342Y-91425500D01*
X38645079Y-91426791D01*
X38652909Y-91427767D01*
X38652911Y-91427768D01*
X38652912Y-91427767D01*
X38652913Y-91427768D01*
X38707755Y-91425500D01*
X41782286Y-91425500D01*
X41807731Y-91428139D01*
X41811530Y-91428935D01*
X41818358Y-91430367D01*
X41839315Y-91427754D01*
X41853582Y-91425977D01*
X41861258Y-91425500D01*
X41865202Y-91425500D01*
X41865204Y-91425500D01*
X41865206Y-91425499D01*
X41865212Y-91425499D01*
X41880577Y-91422934D01*
X41888230Y-91421657D01*
X41942716Y-91414866D01*
X41942717Y-91414865D01*
X41942719Y-91414865D01*
X41950231Y-91412628D01*
X41957696Y-91410066D01*
X41957696Y-91410065D01*
X41957700Y-91410065D01*
X42005967Y-91383944D01*
X42055301Y-91359826D01*
X42055304Y-91359823D01*
X42061684Y-91355268D01*
X42067909Y-91350422D01*
X42067916Y-91350419D01*
X42105098Y-91310028D01*
X42478889Y-90936236D01*
X42498746Y-90920112D01*
X42507836Y-90914174D01*
X42529651Y-90886144D01*
X42534719Y-90880406D01*
X42537520Y-90877607D01*
X42551088Y-90858603D01*
X42584809Y-90815279D01*
X42584810Y-90815273D01*
X42588543Y-90808377D01*
X42592005Y-90801295D01*
X42592010Y-90801289D01*
X42601830Y-90768304D01*
X42639825Y-90709668D01*
X42703489Y-90680882D01*
X42720675Y-90679685D01*
X42995405Y-90679685D01*
X43062444Y-90699370D01*
X43108199Y-90752174D01*
X43119405Y-90803685D01*
X43119405Y-100968406D01*
X43116767Y-100993844D01*
X43114538Y-101004478D01*
X43114538Y-101004479D01*
X43114538Y-101004481D01*
X43118928Y-101039701D01*
X43119405Y-101047377D01*
X43119405Y-101051326D01*
X43123247Y-101074351D01*
X43130039Y-101128837D01*
X43132278Y-101136357D01*
X43134839Y-101143818D01*
X43134840Y-101143820D01*
X43160960Y-101192087D01*
X43185079Y-101241421D01*
X43189647Y-101247819D01*
X43194486Y-101254036D01*
X43234876Y-101291218D01*
X46512269Y-104568612D01*
X47597545Y-105653888D01*
X47613670Y-105673744D01*
X47619608Y-105682832D01*
X47619611Y-105682836D01*
X47647620Y-105704636D01*
X47653382Y-105709725D01*
X47656177Y-105712520D01*
X47675190Y-105726094D01*
X47718506Y-105759809D01*
X47718513Y-105759811D01*
X47725415Y-105763547D01*
X47732491Y-105767006D01*
X47732496Y-105767010D01*
X47785098Y-105782670D01*
X47837033Y-105800500D01*
X47844767Y-105801790D01*
X47852605Y-105802767D01*
X47852607Y-105802768D01*
X47852608Y-105802767D01*
X47852609Y-105802768D01*
X47907451Y-105800500D01*
X56798501Y-105800500D01*
X56823946Y-105803139D01*
X56827745Y-105803935D01*
X56834573Y-105805367D01*
X56855530Y-105802754D01*
X56869797Y-105800977D01*
X56877473Y-105800500D01*
X56881417Y-105800500D01*
X56881419Y-105800500D01*
X56881421Y-105800499D01*
X56881427Y-105800499D01*
X56896792Y-105797934D01*
X56904445Y-105796657D01*
X56958931Y-105789866D01*
X56958932Y-105789865D01*
X56958934Y-105789865D01*
X56966446Y-105787628D01*
X56973911Y-105785066D01*
X56973911Y-105785065D01*
X56973915Y-105785065D01*
X57022182Y-105758944D01*
X57071516Y-105734826D01*
X57071519Y-105734823D01*
X57077899Y-105730268D01*
X57084124Y-105725422D01*
X57084131Y-105725419D01*
X57121313Y-105685028D01*
X57503889Y-105302451D01*
X57523746Y-105286327D01*
X57532836Y-105280389D01*
X57554638Y-105252376D01*
X57559733Y-105246608D01*
X57562519Y-105243823D01*
X57565760Y-105239284D01*
X57576086Y-105224821D01*
X57609807Y-105181497D01*
X57613547Y-105174583D01*
X57617006Y-105167508D01*
X57617010Y-105167504D01*
X57626827Y-105134528D01*
X57632672Y-105114898D01*
X57650500Y-105062966D01*
X57651791Y-105055229D01*
X57652768Y-105047391D01*
X57650500Y-104992549D01*
X57650500Y-103681899D01*
X57670185Y-103614860D01*
X57686819Y-103594218D01*
X58119219Y-103161819D01*
X58180542Y-103128334D01*
X58206900Y-103125500D01*
X66634592Y-103125500D01*
X66660037Y-103128139D01*
X66663836Y-103128935D01*
X66670664Y-103130367D01*
X66691621Y-103127754D01*
X66705888Y-103125977D01*
X66713564Y-103125500D01*
X66717508Y-103125500D01*
X66717510Y-103125500D01*
X66717512Y-103125499D01*
X66717518Y-103125499D01*
X66732883Y-103122934D01*
X66740536Y-103121657D01*
X66795022Y-103114866D01*
X66795023Y-103114865D01*
X66795025Y-103114865D01*
X66802537Y-103112628D01*
X66810002Y-103110066D01*
X66810002Y-103110065D01*
X66810006Y-103110065D01*
X66858273Y-103083944D01*
X66907607Y-103059826D01*
X66907610Y-103059823D01*
X66913990Y-103055268D01*
X66920215Y-103050422D01*
X66920222Y-103050419D01*
X66957404Y-103010028D01*
X67778889Y-102188542D01*
X67798746Y-102172418D01*
X67807836Y-102166480D01*
X67829638Y-102138467D01*
X67834733Y-102132699D01*
X67837519Y-102129914D01*
X67837674Y-102129697D01*
X67851086Y-102110912D01*
X67884807Y-102067588D01*
X67888547Y-102060674D01*
X67892006Y-102053599D01*
X67892010Y-102053595D01*
X67899196Y-102029457D01*
X67907672Y-102000989D01*
X67925500Y-101949057D01*
X67926791Y-101941320D01*
X67927768Y-101933482D01*
X67925500Y-101878640D01*
X67925500Y-97639240D01*
X67945185Y-97572201D01*
X67997989Y-97526446D01*
X68067147Y-97516502D01*
X68130703Y-97545527D01*
X68137181Y-97551559D01*
X68142812Y-97557190D01*
X68257906Y-97643350D01*
X68257913Y-97643354D01*
X68392620Y-97693596D01*
X68392627Y-97693598D01*
X68452155Y-97699999D01*
X68452172Y-97700000D01*
X73250000Y-97700000D01*
X73250000Y-94950000D01*
X73750000Y-94950000D01*
X73750000Y-97700000D01*
X78547828Y-97700000D01*
X78547844Y-97699999D01*
X78607372Y-97693598D01*
X78607379Y-97693596D01*
X78742086Y-97643354D01*
X78742093Y-97643350D01*
X78857187Y-97557190D01*
X78857190Y-97557187D01*
X78943350Y-97442093D01*
X78943354Y-97442086D01*
X78993596Y-97307379D01*
X78993598Y-97307372D01*
X78999999Y-97247844D01*
X79000000Y-97247827D01*
X79000000Y-94950000D01*
X73750000Y-94950000D01*
X73250000Y-94950000D01*
X73250000Y-91700000D01*
X73750000Y-91700000D01*
X73750000Y-94450000D01*
X79000000Y-94450000D01*
X79000000Y-92152172D01*
X78999999Y-92152155D01*
X78993598Y-92092627D01*
X78993596Y-92092620D01*
X78943354Y-91957913D01*
X78943350Y-91957906D01*
X78857190Y-91842812D01*
X78857187Y-91842809D01*
X78742093Y-91756649D01*
X78742086Y-91756645D01*
X78607379Y-91706403D01*
X78607372Y-91706401D01*
X78547844Y-91700000D01*
X73750000Y-91700000D01*
X73250000Y-91700000D01*
X68452155Y-91700000D01*
X68392627Y-91706401D01*
X68392620Y-91706403D01*
X68257913Y-91756645D01*
X68257906Y-91756649D01*
X68142812Y-91842809D01*
X68142809Y-91842812D01*
X68056649Y-91957906D01*
X68056645Y-91957913D01*
X68006403Y-92092620D01*
X68006401Y-92092627D01*
X68000000Y-92152155D01*
X68000000Y-93869599D01*
X67980315Y-93936638D01*
X67927511Y-93982393D01*
X67858353Y-93992337D01*
X67794797Y-93963312D01*
X67788319Y-93957280D01*
X65411819Y-91580780D01*
X65378334Y-91519457D01*
X65375500Y-91493099D01*
X65375500Y-91214198D01*
X65395185Y-91147159D01*
X65401645Y-91138037D01*
X65407833Y-91130085D01*
X65407836Y-91130084D01*
X65429638Y-91102071D01*
X65434733Y-91096303D01*
X65437519Y-91093518D01*
X65442966Y-91085889D01*
X65451086Y-91074516D01*
X65484807Y-91031192D01*
X65488547Y-91024280D01*
X65492003Y-91017207D01*
X65492010Y-91017199D01*
X65507670Y-90964596D01*
X65525500Y-90912660D01*
X65525500Y-90912655D01*
X65526790Y-90904924D01*
X65527768Y-90897085D01*
X65525500Y-90842244D01*
X65525500Y-86851804D01*
X65528139Y-86826359D01*
X65528785Y-86823275D01*
X65530367Y-86815732D01*
X65528498Y-86800740D01*
X65525977Y-86780506D01*
X65525500Y-86772830D01*
X65525500Y-86768889D01*
X65525498Y-86768876D01*
X65521657Y-86745859D01*
X65515096Y-86693218D01*
X65514866Y-86691374D01*
X65514864Y-86691370D01*
X65512622Y-86683840D01*
X65510065Y-86676392D01*
X65510065Y-86676390D01*
X65483944Y-86628122D01*
X65459826Y-86578789D01*
X65459824Y-86578787D01*
X65459824Y-86578786D01*
X65455276Y-86572416D01*
X65450420Y-86566176D01*
X65450419Y-86566174D01*
X65435455Y-86552399D01*
X65418769Y-86537038D01*
X65410030Y-86528993D01*
X65290537Y-86409500D01*
X65152149Y-86271111D01*
X65136022Y-86251252D01*
X65130086Y-86242167D01*
X65130083Y-86242163D01*
X65112899Y-86228788D01*
X65102072Y-86220361D01*
X65096310Y-86215272D01*
X65093515Y-86212477D01*
X65074505Y-86198906D01*
X65031189Y-86165190D01*
X65024274Y-86161448D01*
X65017200Y-86157990D01*
X64964596Y-86142329D01*
X64912658Y-86124499D01*
X64904923Y-86123208D01*
X64897085Y-86122231D01*
X64842244Y-86124500D01*
X63189015Y-86124500D01*
X63121976Y-86104815D01*
X63101334Y-86088181D01*
X61334265Y-84321111D01*
X61318138Y-84301252D01*
X61312202Y-84292167D01*
X61312199Y-84292163D01*
X61297239Y-84280519D01*
X61284188Y-84270361D01*
X61278426Y-84265272D01*
X61275631Y-84262477D01*
X61256621Y-84248906D01*
X61213305Y-84215190D01*
X61206390Y-84211448D01*
X61199316Y-84207990D01*
X61146712Y-84192329D01*
X61094774Y-84174499D01*
X61087039Y-84173208D01*
X61079201Y-84172231D01*
X61024360Y-84174500D01*
X48379691Y-84174500D01*
X48312652Y-84154815D01*
X48292010Y-84138181D01*
X48105417Y-83951587D01*
X48071932Y-83890264D01*
X48069098Y-83863906D01*
X48069098Y-82173000D01*
X48088783Y-82105961D01*
X48105413Y-82085323D01*
X48328890Y-81861845D01*
X48348749Y-81845720D01*
X48357836Y-81839784D01*
X48379638Y-81811771D01*
X48384733Y-81806003D01*
X48387519Y-81803218D01*
X48387528Y-81803206D01*
X48401086Y-81784216D01*
X48434807Y-81740892D01*
X48438547Y-81733978D01*
X48442006Y-81726903D01*
X48442010Y-81726899D01*
X48452700Y-81690993D01*
X48457672Y-81674293D01*
X48475500Y-81622361D01*
X48476791Y-81614624D01*
X48477768Y-81606786D01*
X48475500Y-81551944D01*
X48475500Y-80201804D01*
X48478139Y-80176359D01*
X48478785Y-80173275D01*
X48480367Y-80165732D01*
X48476830Y-80137354D01*
X48475977Y-80130509D01*
X48475500Y-80122833D01*
X48475500Y-80118890D01*
X48475499Y-80118882D01*
X48474820Y-80114815D01*
X48471655Y-80095846D01*
X48464865Y-80041373D01*
X48462617Y-80033827D01*
X48460066Y-80026393D01*
X48460065Y-80026391D01*
X48460065Y-80026390D01*
X48433939Y-79978114D01*
X48409826Y-79928789D01*
X48409823Y-79928786D01*
X48409823Y-79928785D01*
X48405280Y-79922421D01*
X48400420Y-79916176D01*
X48400419Y-79916174D01*
X48360029Y-79878992D01*
X47311819Y-78830781D01*
X47278334Y-78769458D01*
X47275500Y-78743100D01*
X47275500Y-72269011D01*
X47278139Y-72243566D01*
X47278177Y-72243383D01*
X47280367Y-72232940D01*
X47278325Y-72216561D01*
X47275977Y-72197715D01*
X47275500Y-72190039D01*
X47275500Y-72186097D01*
X47275498Y-72186084D01*
X47271657Y-72163067D01*
X47264866Y-72108584D01*
X47264866Y-72108582D01*
X47264864Y-72108578D01*
X47262622Y-72101048D01*
X47260065Y-72093600D01*
X47260065Y-72093598D01*
X47233944Y-72045330D01*
X47209826Y-71995997D01*
X47209824Y-71995995D01*
X47209824Y-71995994D01*
X47205267Y-71989612D01*
X47200415Y-71983377D01*
X47160029Y-71946200D01*
X43641819Y-68427989D01*
X43608334Y-68366666D01*
X43605500Y-68340308D01*
X43605500Y-57476899D01*
X43625185Y-57409860D01*
X43641819Y-57389218D01*
X44844219Y-56186819D01*
X44905542Y-56153334D01*
X44931900Y-56150500D01*
X45329270Y-56150500D01*
X45359699Y-56147646D01*
X45359701Y-56147646D01*
X45423790Y-56125219D01*
X45487882Y-56102793D01*
X45597150Y-56022150D01*
X45677793Y-55912882D01*
X45700219Y-55848790D01*
X45722646Y-55784701D01*
X45722646Y-55784699D01*
X45725500Y-55754269D01*
X45725500Y-55245730D01*
X45722646Y-55215301D01*
X45719147Y-55205301D01*
X45698662Y-55146760D01*
X45695100Y-55076984D01*
X45729828Y-55016357D01*
X45756712Y-54996739D01*
X45761889Y-54993938D01*
X45811211Y-54969826D01*
X45811214Y-54969823D01*
X45817594Y-54965268D01*
X45823819Y-54960422D01*
X45823826Y-54960419D01*
X45861008Y-54920028D01*
X46128889Y-54652146D01*
X46148746Y-54636022D01*
X46157836Y-54630084D01*
X46179638Y-54602071D01*
X46184733Y-54596303D01*
X46187519Y-54593518D01*
X46187528Y-54593506D01*
X46201086Y-54574516D01*
X46234807Y-54531192D01*
X46238547Y-54524278D01*
X46242006Y-54517203D01*
X46242010Y-54517199D01*
X46252054Y-54483462D01*
X46257672Y-54464593D01*
X46275500Y-54412661D01*
X46276791Y-54404924D01*
X46277768Y-54397086D01*
X46275500Y-54342244D01*
X46275500Y-51976899D01*
X46295185Y-51909860D01*
X46311819Y-51889218D01*
X46664218Y-51536819D01*
X46725541Y-51503334D01*
X46751899Y-51500500D01*
X50999974Y-51500500D01*
X51025419Y-51503139D01*
X51029218Y-51503935D01*
X51036046Y-51505367D01*
X51057003Y-51502754D01*
X51071270Y-51500977D01*
X51078946Y-51500500D01*
X51082890Y-51500500D01*
X51082892Y-51500500D01*
X51082894Y-51500499D01*
X51082900Y-51500499D01*
X51098265Y-51497934D01*
X51105918Y-51496657D01*
X51160404Y-51489866D01*
X51160405Y-51489865D01*
X51160407Y-51489865D01*
X51167919Y-51487628D01*
X51175384Y-51485066D01*
X51175384Y-51485065D01*
X51175388Y-51485065D01*
X51223655Y-51458944D01*
X51272989Y-51434826D01*
X51272992Y-51434823D01*
X51279372Y-51430268D01*
X51285597Y-51425422D01*
X51285604Y-51425419D01*
X51322786Y-51385028D01*
X51588889Y-51118924D01*
X51608746Y-51102800D01*
X51617836Y-51096862D01*
X51639651Y-51068832D01*
X51644719Y-51063094D01*
X51647520Y-51060295D01*
X51661088Y-51041291D01*
X51694809Y-50997967D01*
X51694810Y-50997961D01*
X51698542Y-50991067D01*
X51702003Y-50983985D01*
X51702010Y-50983977D01*
X51717670Y-50931374D01*
X51735500Y-50879438D01*
X51735500Y-50879433D01*
X51736790Y-50871702D01*
X51737768Y-50863863D01*
X51735500Y-50809022D01*
X51735500Y-44461803D01*
X51738139Y-44436358D01*
X51738956Y-44432461D01*
X51740367Y-44425732D01*
X51738325Y-44409353D01*
X51735977Y-44390507D01*
X51735500Y-44382831D01*
X51735500Y-44378890D01*
X51735499Y-44378881D01*
X51731657Y-44355856D01*
X51724866Y-44301376D01*
X51722621Y-44293837D01*
X51720066Y-44286392D01*
X51693941Y-44238118D01*
X51669826Y-44188789D01*
X51669823Y-44188786D01*
X51669823Y-44188785D01*
X51665271Y-44182409D01*
X51660415Y-44176169D01*
X51620029Y-44138992D01*
X48561819Y-41080781D01*
X48528334Y-41019458D01*
X48525500Y-40993100D01*
X48525500Y-38267980D01*
X48545185Y-38200941D01*
X48575867Y-38168210D01*
X48626309Y-38130982D01*
X48672150Y-38097150D01*
X48752793Y-37987882D01*
X48775219Y-37923790D01*
X48797646Y-37859701D01*
X48797646Y-37859699D01*
X48800500Y-37829269D01*
X48800500Y-37170730D01*
X48797646Y-37140300D01*
X48797646Y-37140298D01*
X48764006Y-37044163D01*
X48752793Y-37012118D01*
X48672150Y-36902850D01*
X48562882Y-36822207D01*
X48562880Y-36822206D01*
X48434700Y-36777353D01*
X48404270Y-36774500D01*
X48404266Y-36774500D01*
X47895734Y-36774500D01*
X47895730Y-36774500D01*
X47865300Y-36777353D01*
X47865298Y-36777353D01*
X47737119Y-36822206D01*
X47737117Y-36822207D01*
X47627850Y-36902850D01*
X47547207Y-37012117D01*
X47547206Y-37012119D01*
X47502353Y-37140298D01*
X47502353Y-37140300D01*
X47499500Y-37170730D01*
X47499500Y-37829269D01*
X47502353Y-37859699D01*
X47502353Y-37859701D01*
X47547206Y-37987880D01*
X47547207Y-37987882D01*
X47627849Y-38097149D01*
X47627851Y-38097151D01*
X47724133Y-38168210D01*
X47766384Y-38223857D01*
X47774500Y-38267980D01*
X47774500Y-41148196D01*
X47771862Y-41173634D01*
X47769633Y-41184268D01*
X47769633Y-41184269D01*
X47769633Y-41184271D01*
X47774023Y-41219491D01*
X47774500Y-41227167D01*
X47774500Y-41231116D01*
X47778342Y-41254141D01*
X47785134Y-41308627D01*
X47787373Y-41316147D01*
X47789934Y-41323608D01*
X47789935Y-41323610D01*
X47816055Y-41371877D01*
X47840174Y-41421211D01*
X47844742Y-41427609D01*
X47849582Y-41433827D01*
X47889971Y-41471009D01*
X50948181Y-44529218D01*
X50981666Y-44590541D01*
X50984500Y-44616899D01*
X50984500Y-44876000D01*
X50964815Y-44943039D01*
X50912011Y-44988794D01*
X50860500Y-45000000D01*
X49624000Y-45000000D01*
X49556961Y-44980315D01*
X49511206Y-44927511D01*
X49500000Y-44876000D01*
X49500000Y-43500000D01*
X48124000Y-43500000D01*
X48056961Y-43480315D01*
X48011206Y-43427511D01*
X48000000Y-43376000D01*
X48000000Y-42000000D01*
X46624000Y-42000000D01*
X46556961Y-41980315D01*
X46511206Y-41927511D01*
X46500000Y-41876000D01*
X46500000Y-40500000D01*
X46499910Y-40500000D01*
X46432871Y-40480315D01*
X46387116Y-40427511D01*
X46376016Y-40381119D01*
X46375500Y-40368638D01*
X46375500Y-38906898D01*
X46395185Y-38839859D01*
X46411815Y-38819221D01*
X46698885Y-38532150D01*
X46718748Y-38516021D01*
X46727836Y-38510084D01*
X46749638Y-38482071D01*
X46754733Y-38476303D01*
X46757519Y-38473518D01*
X46757528Y-38473506D01*
X46771086Y-38454516D01*
X46804807Y-38411192D01*
X46808547Y-38404278D01*
X46812006Y-38397203D01*
X46812010Y-38397199D01*
X46822712Y-38361252D01*
X46827672Y-38344593D01*
X46845500Y-38292661D01*
X46846792Y-38284917D01*
X46848435Y-38271738D01*
X46876260Y-38207647D01*
X46905739Y-38183766D01*
X46905404Y-38183312D01*
X46912882Y-38177793D01*
X47022150Y-38097150D01*
X47102793Y-37987882D01*
X47125219Y-37923790D01*
X47147646Y-37859701D01*
X47147646Y-37859699D01*
X47150500Y-37829269D01*
X47150500Y-37170730D01*
X47147646Y-37140300D01*
X47147646Y-37140298D01*
X47114006Y-37044163D01*
X47102793Y-37012118D01*
X47022150Y-36902850D01*
X46912882Y-36822207D01*
X46912880Y-36822206D01*
X46784700Y-36777353D01*
X46754270Y-36774500D01*
X46754266Y-36774500D01*
X46245734Y-36774500D01*
X46245730Y-36774500D01*
X46215303Y-36777353D01*
X46152785Y-36799229D01*
X46094914Y-36819479D01*
X46025136Y-36823040D01*
X45964508Y-36788311D01*
X45932281Y-36726318D01*
X45938686Y-36656743D01*
X45966276Y-36614760D01*
X47528889Y-35052146D01*
X47548746Y-35036022D01*
X47557836Y-35030084D01*
X47579638Y-35002071D01*
X47584733Y-34996303D01*
X47587519Y-34993518D01*
X47587528Y-34993506D01*
X47601086Y-34974516D01*
X47634807Y-34931192D01*
X47638547Y-34924280D01*
X47642003Y-34917207D01*
X47642010Y-34917199D01*
X47657670Y-34864596D01*
X47675500Y-34812660D01*
X47675500Y-34812655D01*
X47676790Y-34804924D01*
X47677768Y-34797085D01*
X47675500Y-34742244D01*
X47675500Y-31658256D01*
X47695185Y-31591217D01*
X47747989Y-31545462D01*
X47799500Y-31534256D01*
X49834676Y-31534256D01*
X49834677Y-31534255D01*
X49907740Y-31519722D01*
X49990601Y-31464357D01*
X50045966Y-31381496D01*
X50060500Y-31308430D01*
X50060500Y-26159082D01*
X50060500Y-26159079D01*
X50060499Y-26159077D01*
X50045967Y-26086020D01*
X50045966Y-26086016D01*
X49990601Y-26003155D01*
X49907740Y-25947790D01*
X49907739Y-25947789D01*
X49907735Y-25947788D01*
X49834677Y-25933256D01*
X49834674Y-25933256D01*
X44685326Y-25933256D01*
X44685323Y-25933256D01*
X44612264Y-25947788D01*
X44612260Y-25947789D01*
X44529399Y-26003155D01*
X44474033Y-26086016D01*
X44474032Y-26086020D01*
X44459500Y-26159077D01*
X44459500Y-31308434D01*
X44474032Y-31381491D01*
X44474033Y-31381495D01*
X44474034Y-31381496D01*
X44529399Y-31464357D01*
X44602236Y-31513024D01*
X44612260Y-31519722D01*
X44612264Y-31519723D01*
X44685321Y-31534255D01*
X44685324Y-31534256D01*
X44685326Y-31534256D01*
X46800500Y-31534256D01*
X46867539Y-31553941D01*
X46913294Y-31606745D01*
X46924500Y-31658256D01*
X46924500Y-34543100D01*
X46904815Y-34610139D01*
X46888181Y-34630781D01*
X43780781Y-37738181D01*
X43719458Y-37771666D01*
X43693100Y-37774500D01*
X37806392Y-37774500D01*
X37739353Y-37754815D01*
X37693598Y-37702011D01*
X37683654Y-37632853D01*
X37712679Y-37569297D01*
X37762713Y-37534448D01*
X38059149Y-37422877D01*
X38619742Y-37168876D01*
X39162516Y-36878757D01*
X39162516Y-36878758D01*
X39685152Y-36553762D01*
X40185424Y-36195273D01*
X40185423Y-36195273D01*
X40661175Y-35804832D01*
X40661176Y-35804832D01*
X40927800Y-35555110D01*
X34460000Y-29087309D01*
X34106447Y-28733756D01*
X34813553Y-28733756D01*
X41281354Y-35201556D01*
X41531076Y-34934932D01*
X41531076Y-34934931D01*
X41921517Y-34459179D01*
X41921517Y-34459180D01*
X42280006Y-33958908D01*
X42605002Y-33436272D01*
X42605001Y-33436272D01*
X42895120Y-32893498D01*
X43149121Y-32332905D01*
X43365914Y-31756900D01*
X43365914Y-31756899D01*
X43544566Y-31167964D01*
X43684322Y-30568583D01*
X43784575Y-29961357D01*
X43784575Y-29961356D01*
X43844899Y-29348882D01*
X43865036Y-28733756D01*
X43844899Y-28118630D01*
X43784575Y-27506156D01*
X43784575Y-27506155D01*
X43684322Y-26898929D01*
X43544566Y-26299548D01*
X43365914Y-25710613D01*
X43365914Y-25710612D01*
X43149121Y-25134607D01*
X42895120Y-24574014D01*
X42605001Y-24031240D01*
X42605002Y-24031240D01*
X42280006Y-23508604D01*
X41921517Y-23008332D01*
X41921517Y-23008333D01*
X41531083Y-22532588D01*
X41531082Y-22532588D01*
X41281354Y-22265955D01*
X34813553Y-28733756D01*
X34106447Y-28733756D01*
X27638645Y-22265955D01*
X27388918Y-22532588D01*
X27388917Y-22532588D01*
X26998483Y-23008333D01*
X26998483Y-23008332D01*
X26639994Y-23508604D01*
X26314998Y-24031240D01*
X26314999Y-24031240D01*
X26024880Y-24574014D01*
X25770879Y-25134607D01*
X25554086Y-25710612D01*
X25554086Y-25710613D01*
X25375434Y-26299548D01*
X25235678Y-26898929D01*
X25135425Y-27506155D01*
X25135425Y-27506156D01*
X25075101Y-28118630D01*
X25054964Y-28733756D01*
X25075101Y-29348882D01*
X25135425Y-29961356D01*
X25135425Y-29961357D01*
X25235678Y-30568583D01*
X25375434Y-31167964D01*
X25554086Y-31756899D01*
X25554086Y-31756900D01*
X25770879Y-32332905D01*
X26024880Y-32893498D01*
X26314999Y-33436272D01*
X26314998Y-33436272D01*
X26639994Y-33958908D01*
X26998483Y-34459180D01*
X26998483Y-34459179D01*
X27008870Y-34471836D01*
X27036182Y-34536146D01*
X27024391Y-34605013D01*
X26977238Y-34656573D01*
X26913016Y-34674500D01*
X22199500Y-34674500D01*
X22132461Y-34654815D01*
X22086706Y-34602011D01*
X22075500Y-34550500D01*
X22075500Y-31658256D01*
X22095185Y-31591217D01*
X22147989Y-31545462D01*
X22199500Y-31534256D01*
X24234676Y-31534256D01*
X24234677Y-31534255D01*
X24307740Y-31519722D01*
X24390601Y-31464357D01*
X24445966Y-31381496D01*
X24460500Y-31308430D01*
X24460500Y-26159082D01*
X24460500Y-26159079D01*
X24460499Y-26159077D01*
X24445967Y-26086020D01*
X24445966Y-26086016D01*
X24390601Y-26003155D01*
X24307740Y-25947790D01*
X24307739Y-25947789D01*
X24307735Y-25947788D01*
X24234677Y-25933256D01*
X24234674Y-25933256D01*
X19085326Y-25933256D01*
X19085323Y-25933256D01*
X19012264Y-25947788D01*
X19012260Y-25947789D01*
X18929399Y-26003155D01*
X18874033Y-26086016D01*
X18874032Y-26086020D01*
X18859500Y-26159077D01*
X18859500Y-31308434D01*
X18874032Y-31381491D01*
X18874033Y-31381495D01*
X18874034Y-31381496D01*
X18929399Y-31464357D01*
X19002236Y-31513024D01*
X19012260Y-31519722D01*
X19012264Y-31519723D01*
X19085321Y-31534255D01*
X19085324Y-31534256D01*
X19085326Y-31534256D01*
X21200500Y-31534256D01*
X21267539Y-31553941D01*
X21313294Y-31606745D01*
X21324500Y-31658256D01*
X21324500Y-35031908D01*
X21324288Y-35037022D01*
X21323035Y-35052151D01*
X21320608Y-35081437D01*
X21320607Y-35081437D01*
X21331547Y-35124640D01*
X21332599Y-35129655D01*
X21339933Y-35173608D01*
X21340122Y-35173956D01*
X21351272Y-35202528D01*
X21351371Y-35202919D01*
X21351373Y-35202925D01*
X21375743Y-35240226D01*
X21378367Y-35244628D01*
X21399579Y-35283824D01*
X21399869Y-35284091D01*
X21419697Y-35307501D01*
X21419914Y-35307833D01*
X21419918Y-35307838D01*
X21455081Y-35335206D01*
X21458991Y-35338517D01*
X21491781Y-35368703D01*
X21492144Y-35368862D01*
X21518499Y-35384566D01*
X21518811Y-35384809D01*
X21560966Y-35399280D01*
X21565727Y-35401137D01*
X21606546Y-35419043D01*
X21606941Y-35419075D01*
X21636963Y-35425371D01*
X21637339Y-35425500D01*
X21637340Y-35425500D01*
X21681909Y-35425500D01*
X21687023Y-35425711D01*
X21711310Y-35427724D01*
X21731434Y-35429392D01*
X21731434Y-35429391D01*
X21731437Y-35429392D01*
X21731825Y-35429293D01*
X21762263Y-35425500D01*
X27013126Y-35425500D01*
X27080165Y-35445185D01*
X27100808Y-35461819D01*
X27166975Y-35527988D01*
X27166984Y-35527996D01*
X27166985Y-35527997D01*
X27624772Y-35937103D01*
X27624777Y-35937107D01*
X27624786Y-35937115D01*
X27907611Y-36162661D01*
X28104778Y-36319897D01*
X28104784Y-36319901D01*
X28104785Y-36319902D01*
X28605487Y-36675172D01*
X29125335Y-37001816D01*
X29125334Y-37001815D01*
X29125339Y-37001818D01*
X29158085Y-37019916D01*
X29662678Y-37298797D01*
X29662678Y-37298796D01*
X29662683Y-37298799D01*
X29920332Y-37422877D01*
X30140240Y-37528780D01*
X30192099Y-37575603D01*
X30210412Y-37643030D01*
X30189364Y-37709654D01*
X30135638Y-37754322D01*
X30086438Y-37764500D01*
X23688800Y-37764500D01*
X23663355Y-37761861D01*
X23652729Y-37759633D01*
X23652726Y-37759633D01*
X23617504Y-37764023D01*
X23609828Y-37764500D01*
X23605882Y-37764500D01*
X23594368Y-37766421D01*
X23582853Y-37768342D01*
X23537276Y-37774023D01*
X23529600Y-37774500D01*
X23068091Y-37774500D01*
X23062976Y-37774288D01*
X23052024Y-37773380D01*
X23018562Y-37770607D01*
X22975361Y-37781547D01*
X22970346Y-37782599D01*
X22926391Y-37789933D01*
X22926387Y-37789935D01*
X22926024Y-37790132D01*
X22897482Y-37801268D01*
X22897087Y-37801367D01*
X22897077Y-37801372D01*
X22859764Y-37825749D01*
X22855364Y-37828370D01*
X22816178Y-37849578D01*
X22816165Y-37849588D01*
X22815895Y-37849882D01*
X22792509Y-37869690D01*
X22792167Y-37869912D01*
X22792163Y-37869917D01*
X22764794Y-37905079D01*
X22761483Y-37908987D01*
X22731297Y-37941780D01*
X22731292Y-37941787D01*
X22731129Y-37942161D01*
X22715443Y-37968486D01*
X22715193Y-37968806D01*
X22715191Y-37968810D01*
X22700722Y-38010958D01*
X22698859Y-38015732D01*
X22680957Y-38056544D01*
X22680955Y-38056549D01*
X22680922Y-38056956D01*
X22674634Y-38086946D01*
X22674500Y-38087335D01*
X22674500Y-38131908D01*
X22674288Y-38137030D01*
X22670607Y-38181434D01*
X22670608Y-38181437D01*
X22670706Y-38181825D01*
X22674500Y-38212263D01*
X22674500Y-38624513D01*
X22667782Y-38664773D01*
X22664500Y-38674333D01*
X22663206Y-38682085D01*
X22662231Y-38689907D01*
X22664500Y-38744751D01*
X22664500Y-38876000D01*
X22644815Y-38943039D01*
X22592011Y-38988794D01*
X22540500Y-39000000D01*
X22500000Y-39000000D01*
X18000000Y-39000000D01*
X18000000Y-49500000D01*
X19376000Y-49500000D01*
X19443039Y-49519685D01*
X19488794Y-49572489D01*
X19500000Y-49624000D01*
X19500000Y-51000000D01*
X22409600Y-51000000D01*
X22476639Y-51019685D01*
X22522394Y-51072489D01*
X22532338Y-51141647D01*
X22503313Y-51205203D01*
X22497281Y-51211681D01*
X21990781Y-51718181D01*
X21929458Y-51751666D01*
X21903100Y-51754500D01*
X19431804Y-51754500D01*
X19406357Y-51751861D01*
X19403713Y-51751306D01*
X19395729Y-51749632D01*
X19360509Y-51754023D01*
X19352832Y-51754500D01*
X19348886Y-51754500D01*
X19331606Y-51757383D01*
X19325846Y-51758344D01*
X19271368Y-51765135D01*
X19263844Y-51767375D01*
X19256392Y-51769934D01*
X19208119Y-51796057D01*
X19158790Y-51820172D01*
X19152398Y-51824735D01*
X19146174Y-51829580D01*
X19109003Y-51869958D01*
X18531108Y-52447852D01*
X18511254Y-52463976D01*
X18502165Y-52469914D01*
X18502164Y-52469915D01*
X18480363Y-52497923D01*
X18475286Y-52503674D01*
X18472484Y-52506477D01*
X18472474Y-52506488D01*
X18458905Y-52525495D01*
X18425192Y-52568808D01*
X18421447Y-52575729D01*
X18417988Y-52582804D01*
X18402329Y-52635403D01*
X18384500Y-52687338D01*
X18383206Y-52695092D01*
X18382231Y-52702911D01*
X18384500Y-52757755D01*
X18384500Y-53119900D01*
X18364815Y-53186939D01*
X18312011Y-53232694D01*
X18301456Y-53236941D01*
X18272118Y-53247207D01*
X18162850Y-53327850D01*
X18082207Y-53437117D01*
X18082206Y-53437119D01*
X18037353Y-53565298D01*
X18037353Y-53565300D01*
X18034500Y-53595730D01*
X18034500Y-54104269D01*
X18037353Y-54134699D01*
X18037353Y-54134701D01*
X18082206Y-54262880D01*
X18082207Y-54262882D01*
X18162850Y-54372150D01*
X18272118Y-54452793D01*
X18314845Y-54467744D01*
X18400299Y-54497646D01*
X18430730Y-54500500D01*
X18430734Y-54500500D01*
X19089270Y-54500500D01*
X19119699Y-54497646D01*
X19119701Y-54497646D01*
X19183790Y-54475219D01*
X19247882Y-54452793D01*
X19357150Y-54372150D01*
X19413921Y-54295228D01*
X19469567Y-54252978D01*
X19539223Y-54247519D01*
X19600773Y-54280586D01*
X19613457Y-54295224D01*
X19662850Y-54362150D01*
X19772118Y-54442793D01*
X19814845Y-54457744D01*
X19900299Y-54487646D01*
X19930730Y-54490500D01*
X19930734Y-54490500D01*
X20589270Y-54490500D01*
X20619699Y-54487646D01*
X20619701Y-54487646D01*
X20685581Y-54464593D01*
X20747882Y-54442793D01*
X20857150Y-54362150D01*
X20937793Y-54252882D01*
X20976518Y-54142212D01*
X20982646Y-54124701D01*
X20982646Y-54124699D01*
X20985500Y-54094269D01*
X20985500Y-53585730D01*
X20982646Y-53555300D01*
X20982646Y-53555298D01*
X20941292Y-53437117D01*
X20937793Y-53427118D01*
X20857150Y-53317850D01*
X20857148Y-53317849D01*
X20857148Y-53317848D01*
X20804876Y-53279270D01*
X20762625Y-53223623D01*
X20757166Y-53153967D01*
X20790233Y-53092417D01*
X20851327Y-53058516D01*
X20878509Y-53055500D01*
X22144592Y-53055500D01*
X22170037Y-53058139D01*
X22171836Y-53058516D01*
X22180664Y-53060367D01*
X22201621Y-53057754D01*
X22215888Y-53055977D01*
X22223564Y-53055500D01*
X22227508Y-53055500D01*
X22227510Y-53055500D01*
X22227512Y-53055499D01*
X22227518Y-53055499D01*
X22242883Y-53052934D01*
X22250536Y-53051657D01*
X22305022Y-53044866D01*
X22305023Y-53044865D01*
X22305025Y-53044865D01*
X22312537Y-53042628D01*
X22320002Y-53040066D01*
X22320002Y-53040065D01*
X22320006Y-53040065D01*
X22368273Y-53013944D01*
X22417607Y-52989826D01*
X22417610Y-52989823D01*
X22423990Y-52985268D01*
X22430215Y-52980422D01*
X22430222Y-52980419D01*
X22467403Y-52940029D01*
X23678892Y-51728540D01*
X23698741Y-51712421D01*
X23707836Y-51706480D01*
X23729644Y-51678458D01*
X23734721Y-51672712D01*
X23737520Y-51669914D01*
X23751094Y-51650900D01*
X23784809Y-51607585D01*
X23784809Y-51607583D01*
X23788547Y-51600676D01*
X23792003Y-51593603D01*
X23792010Y-51593595D01*
X23807670Y-51540992D01*
X23825500Y-51489056D01*
X23825500Y-51489051D01*
X23826790Y-51481320D01*
X23827768Y-51473481D01*
X23825500Y-51418640D01*
X23825500Y-51124000D01*
X23845185Y-51056961D01*
X23897989Y-51011206D01*
X23949500Y-51000000D01*
X27000000Y-51000000D01*
X27000000Y-49624000D01*
X27019685Y-49556961D01*
X27072489Y-49511206D01*
X27124000Y-49500000D01*
X28500000Y-49500000D01*
X28500000Y-48124000D01*
X28519685Y-48056961D01*
X28572489Y-48011206D01*
X28624000Y-48000000D01*
X30000000Y-48000000D01*
X30000000Y-46624000D01*
X30019685Y-46556961D01*
X30072489Y-46511206D01*
X30124000Y-46500000D01*
X31125500Y-46500000D01*
X31192539Y-46519685D01*
X31238294Y-46572489D01*
X31249500Y-46624000D01*
X31249500Y-49288099D01*
X31229815Y-49355138D01*
X31213181Y-49375780D01*
X21581013Y-59007947D01*
X21561159Y-59024071D01*
X21552070Y-59030009D01*
X21552069Y-59030010D01*
X21530268Y-59058018D01*
X21525191Y-59063769D01*
X21522389Y-59066572D01*
X21522379Y-59066583D01*
X21508810Y-59085590D01*
X21475097Y-59128903D01*
X21471352Y-59135824D01*
X21467893Y-59142899D01*
X21452234Y-59195498D01*
X21434405Y-59247433D01*
X21433111Y-59255187D01*
X21432136Y-59263006D01*
X21434405Y-59317850D01*
X21434405Y-86305185D01*
X21414720Y-86372224D01*
X21361916Y-86417979D01*
X21310405Y-86429185D01*
X20884905Y-86429185D01*
X20884905Y-88805185D01*
X20865220Y-88872224D01*
X20812416Y-88917979D01*
X20760905Y-88929185D01*
X20508905Y-88929185D01*
X20441866Y-88909500D01*
X20396111Y-88856696D01*
X20384905Y-88805185D01*
X20384905Y-86429185D01*
X19849500Y-86429185D01*
X19782461Y-86409500D01*
X19736706Y-86356696D01*
X19725500Y-86305185D01*
X19725500Y-56606899D01*
X19745185Y-56539860D01*
X19761819Y-56519218D01*
X20104218Y-56176819D01*
X20165541Y-56143334D01*
X20191899Y-56140500D01*
X20589270Y-56140500D01*
X20619699Y-56137646D01*
X20619701Y-56137646D01*
X20683790Y-56115219D01*
X20747882Y-56092793D01*
X20857150Y-56012150D01*
X20937793Y-55902882D01*
X20960219Y-55838790D01*
X20982646Y-55774701D01*
X20982646Y-55774699D01*
X20985500Y-55744269D01*
X20985500Y-55235730D01*
X20982646Y-55205300D01*
X20982646Y-55205298D01*
X20941292Y-55087117D01*
X20937793Y-55077118D01*
X20857150Y-54967850D01*
X20747882Y-54887207D01*
X20747880Y-54887206D01*
X20619700Y-54842353D01*
X20589270Y-54839500D01*
X20589266Y-54839500D01*
X19930734Y-54839500D01*
X19930730Y-54839500D01*
X19900300Y-54842353D01*
X19900298Y-54842353D01*
X19772119Y-54887206D01*
X19772117Y-54887207D01*
X19662849Y-54967850D01*
X19606078Y-55044772D01*
X19550431Y-55087022D01*
X19480774Y-55092479D01*
X19419225Y-55059412D01*
X19406539Y-55044770D01*
X19357151Y-54977851D01*
X19346277Y-54969826D01*
X19247882Y-54897207D01*
X19247880Y-54897206D01*
X19119700Y-54852353D01*
X19089270Y-54849500D01*
X19089266Y-54849500D01*
X18430734Y-54849500D01*
X18430730Y-54849500D01*
X18400300Y-54852353D01*
X18400298Y-54852353D01*
X18272119Y-54897206D01*
X18272117Y-54897207D01*
X18162850Y-54977850D01*
X18082207Y-55087117D01*
X18082206Y-55087119D01*
X18037353Y-55215298D01*
X18037353Y-55215300D01*
X18034500Y-55245730D01*
X18034500Y-55754269D01*
X18037353Y-55784699D01*
X18037353Y-55784701D01*
X18082206Y-55912880D01*
X18082207Y-55912882D01*
X18162850Y-56022150D01*
X18272118Y-56102793D01*
X18312911Y-56117067D01*
X18400296Y-56147645D01*
X18400298Y-56147645D01*
X18400301Y-56147646D01*
X18412074Y-56148750D01*
X18476982Y-56174604D01*
X18517609Y-56231448D01*
X18524500Y-56272208D01*
X18524500Y-85643100D01*
X18504815Y-85710139D01*
X18488181Y-85730781D01*
X18230781Y-85988181D01*
X18169458Y-86021666D01*
X18143100Y-86024500D01*
X17201803Y-86024500D01*
X17176358Y-86021861D01*
X17165732Y-86019633D01*
X17165729Y-86019633D01*
X17130507Y-86024023D01*
X17122831Y-86024500D01*
X17118886Y-86024500D01*
X17101615Y-86027381D01*
X17095858Y-86028342D01*
X17041370Y-86035134D01*
X17033857Y-86037371D01*
X17026387Y-86039936D01*
X16978122Y-86066055D01*
X16928792Y-86090171D01*
X16922375Y-86094753D01*
X16916175Y-86099579D01*
X16878993Y-86139969D01*
X16571108Y-86447852D01*
X16551254Y-86463976D01*
X16542165Y-86469914D01*
X16542164Y-86469915D01*
X16520363Y-86497923D01*
X16515286Y-86503674D01*
X16512484Y-86506477D01*
X16512474Y-86506488D01*
X16498905Y-86525495D01*
X16465192Y-86568808D01*
X16461447Y-86575729D01*
X16457990Y-86582800D01*
X16457990Y-86582801D01*
X16455825Y-86590069D01*
X16417831Y-86648703D01*
X16354166Y-86677489D01*
X16336982Y-86678685D01*
X14680228Y-86678685D01*
X14607169Y-86693217D01*
X14607165Y-86693218D01*
X14524304Y-86748584D01*
X14468938Y-86831445D01*
X14468937Y-86831449D01*
X14454405Y-86904506D01*
X14454405Y-90453863D01*
X12000500Y-90453863D01*
X12000500Y-89003480D01*
X12000889Y-88996546D01*
X12003470Y-88973645D01*
X12011914Y-88909500D01*
X12013933Y-88894163D01*
X12019830Y-88869399D01*
X12031775Y-88835262D01*
X12033001Y-88832047D01*
X12055474Y-88777794D01*
X12065021Y-88759313D01*
X12086922Y-88724459D01*
X12090197Y-88719752D01*
X12127003Y-88671786D01*
X12132323Y-88665718D01*
X12165718Y-88632323D01*
X12171786Y-88627003D01*
X12219752Y-88590197D01*
X12224459Y-88586922D01*
X12259313Y-88565021D01*
X12277794Y-88555474D01*
X12332047Y-88533001D01*
X12335253Y-88531778D01*
X12369402Y-88519829D01*
X12394163Y-88513933D01*
X12441020Y-88507764D01*
X12473646Y-88503470D01*
X12482632Y-88502456D01*
X12496545Y-88500889D01*
X12503481Y-88500500D01*
X13056391Y-88500500D01*
X13056393Y-88500500D01*
X13056395Y-88500499D01*
X13056399Y-88500499D01*
X13124362Y-88484986D01*
X13166351Y-88475403D01*
X13267967Y-88426467D01*
X13267967Y-88426466D01*
X13267969Y-88426466D01*
X13313036Y-88390525D01*
X13356146Y-88356146D01*
X13408978Y-88289896D01*
X13426466Y-88267969D01*
X13426467Y-88267966D01*
X13475403Y-88166350D01*
X13500499Y-88056399D01*
X13500500Y-88056391D01*
X13500500Y-84503480D01*
X13500889Y-84496546D01*
X13502687Y-84480586D01*
X13503470Y-84473645D01*
X13506944Y-84447248D01*
X13513933Y-84394163D01*
X13519830Y-84369399D01*
X13531775Y-84335262D01*
X13533001Y-84332047D01*
X13555474Y-84277794D01*
X13565021Y-84259313D01*
X13586922Y-84224459D01*
X13590197Y-84219752D01*
X13627003Y-84171786D01*
X13632323Y-84165718D01*
X13665718Y-84132323D01*
X13671786Y-84127003D01*
X13719752Y-84090197D01*
X13724459Y-84086922D01*
X13759313Y-84065021D01*
X13777794Y-84055474D01*
X13832047Y-84033001D01*
X13835253Y-84031778D01*
X13869402Y-84019829D01*
X13894163Y-84013933D01*
X13941020Y-84007764D01*
X13973646Y-84003470D01*
X13982632Y-84002456D01*
X13996545Y-84000889D01*
X14003481Y-84000500D01*
X14556391Y-84000500D01*
X14556393Y-84000500D01*
X14556395Y-84000499D01*
X14556399Y-84000499D01*
X14624362Y-83984986D01*
X14666351Y-83975403D01*
X14767967Y-83926467D01*
X14767967Y-83926466D01*
X14767969Y-83926466D01*
X14813036Y-83890525D01*
X14856146Y-83856146D01*
X14908978Y-83789896D01*
X14926466Y-83767969D01*
X14926467Y-83767966D01*
X14947303Y-83724701D01*
X14975403Y-83666351D01*
X15000500Y-83556393D01*
X15000500Y-83500000D01*
X15000500Y-83499500D01*
X15000500Y-81503480D01*
X15000889Y-81496546D01*
X15003470Y-81473645D01*
X15006944Y-81447248D01*
X15013933Y-81394163D01*
X15019830Y-81369399D01*
X15031775Y-81335262D01*
X15033001Y-81332047D01*
X15055474Y-81277794D01*
X15065021Y-81259313D01*
X15086922Y-81224459D01*
X15090197Y-81219752D01*
X15127003Y-81171786D01*
X15132323Y-81165718D01*
X15165718Y-81132323D01*
X15171786Y-81127003D01*
X15219752Y-81090197D01*
X15224459Y-81086922D01*
X15259313Y-81065021D01*
X15277794Y-81055474D01*
X15332047Y-81033001D01*
X15335253Y-81031778D01*
X15369402Y-81019829D01*
X15394163Y-81013933D01*
X15441020Y-81007764D01*
X15473646Y-81003470D01*
X15482632Y-81002456D01*
X15496545Y-81000889D01*
X15503481Y-81000500D01*
X16056391Y-81000500D01*
X16056393Y-81000500D01*
X16056395Y-81000499D01*
X16056399Y-81000499D01*
X16124362Y-80984986D01*
X16166351Y-80975403D01*
X16267967Y-80926467D01*
X16267967Y-80926466D01*
X16267969Y-80926466D01*
X16301782Y-80899500D01*
X16356146Y-80856146D01*
X16411170Y-80787149D01*
X16426466Y-80767969D01*
X16426467Y-80767966D01*
X16452340Y-80714242D01*
X16475403Y-80666351D01*
X16488002Y-80611149D01*
X16500499Y-80556399D01*
X16500500Y-80556391D01*
X16500500Y-78443608D01*
X16500499Y-78443600D01*
X16475403Y-78333649D01*
X16426467Y-78232033D01*
X16426466Y-78232030D01*
X16385538Y-78180710D01*
X16356146Y-78143854D01*
X16326753Y-78120413D01*
X16267969Y-78073533D01*
X16267966Y-78073532D01*
X16166350Y-78024596D01*
X16056399Y-77999500D01*
X16056393Y-77999500D01*
X16000099Y-77999500D01*
X15503486Y-77999500D01*
X15496539Y-77999110D01*
X15493592Y-77998777D01*
X15473647Y-77996530D01*
X15394169Y-77986066D01*
X15369401Y-77980169D01*
X15335263Y-77968223D01*
X15332014Y-77966983D01*
X15290803Y-77949914D01*
X15277813Y-77944533D01*
X15259296Y-77934967D01*
X15224490Y-77913097D01*
X15219731Y-77909786D01*
X15171798Y-77873005D01*
X15165702Y-77867660D01*
X15132337Y-77834295D01*
X15126993Y-77828200D01*
X15090212Y-77780267D01*
X15086909Y-77775520D01*
X15065027Y-77740695D01*
X15055469Y-77722195D01*
X15033011Y-77667976D01*
X15031775Y-77664736D01*
X15019830Y-77630599D01*
X15013932Y-77605828D01*
X15003470Y-77526354D01*
X15002357Y-77516485D01*
X15000889Y-77503455D01*
X15000500Y-77496518D01*
X15000500Y-60443608D01*
X15000499Y-60443600D01*
X14975403Y-60333649D01*
X14926467Y-60232033D01*
X14926466Y-60232030D01*
X14885538Y-60180710D01*
X14856146Y-60143854D01*
X14826753Y-60120413D01*
X14767969Y-60073533D01*
X14767966Y-60073532D01*
X14666350Y-60024596D01*
X14556399Y-59999500D01*
X14556393Y-59999500D01*
X14500099Y-59999500D01*
X14003486Y-59999500D01*
X13996539Y-59999110D01*
X13993592Y-59998777D01*
X13973647Y-59996530D01*
X13894169Y-59986066D01*
X13869401Y-59980169D01*
X13835263Y-59968223D01*
X13832014Y-59966983D01*
X13790803Y-59949914D01*
X13777813Y-59944533D01*
X13759296Y-59934967D01*
X13724490Y-59913097D01*
X13719731Y-59909786D01*
X13671798Y-59873005D01*
X13665702Y-59867660D01*
X13632337Y-59834295D01*
X13626993Y-59828200D01*
X13590212Y-59780267D01*
X13586909Y-59775520D01*
X13565027Y-59740695D01*
X13555469Y-59722195D01*
X13533011Y-59667976D01*
X13531775Y-59664736D01*
X13519830Y-59630599D01*
X13513932Y-59605828D01*
X13503470Y-59526354D01*
X13502357Y-59516485D01*
X13500889Y-59503455D01*
X13500500Y-59496518D01*
X13500500Y-53003480D01*
X13500889Y-52996546D01*
X13503470Y-52973645D01*
X13513770Y-52895403D01*
X13513933Y-52894163D01*
X13519830Y-52869399D01*
X13519894Y-52869218D01*
X13531778Y-52835253D01*
X13533001Y-52832047D01*
X13555474Y-52777794D01*
X13565021Y-52759313D01*
X13586922Y-52724459D01*
X13590197Y-52719752D01*
X13627003Y-52671786D01*
X13632323Y-52665718D01*
X13665718Y-52632323D01*
X13671786Y-52627003D01*
X13719752Y-52590197D01*
X13724459Y-52586922D01*
X13759313Y-52565021D01*
X13777794Y-52555474D01*
X13832047Y-52533001D01*
X13835253Y-52531778D01*
X13869402Y-52519829D01*
X13894163Y-52513933D01*
X13942158Y-52507615D01*
X13973646Y-52503470D01*
X13982632Y-52502456D01*
X13996545Y-52500889D01*
X14003481Y-52500500D01*
X14556391Y-52500500D01*
X14556393Y-52500500D01*
X14556395Y-52500499D01*
X14556399Y-52500499D01*
X14624362Y-52484986D01*
X14666351Y-52475403D01*
X14767967Y-52426467D01*
X14767967Y-52426466D01*
X14767969Y-52426466D01*
X14793183Y-52406358D01*
X14856146Y-52356146D01*
X14923751Y-52271373D01*
X14926466Y-52267969D01*
X14926467Y-52267966D01*
X14928247Y-52264271D01*
X14975403Y-52166351D01*
X14988002Y-52111149D01*
X15000499Y-52056399D01*
X15000500Y-52056391D01*
X15000500Y-51443608D01*
X15000499Y-51443600D01*
X14975403Y-51333649D01*
X14926467Y-51232033D01*
X14926466Y-51232030D01*
X14885538Y-51180710D01*
X14856146Y-51143854D01*
X14824891Y-51118929D01*
X14767969Y-51073533D01*
X14767966Y-51073532D01*
X14666350Y-51024596D01*
X14556399Y-50999500D01*
X14556393Y-50999500D01*
X14500099Y-50999500D01*
X14003486Y-50999500D01*
X13996539Y-50999110D01*
X13993592Y-50998777D01*
X13973647Y-50996530D01*
X13894169Y-50986066D01*
X13869401Y-50980169D01*
X13835263Y-50968223D01*
X13832014Y-50966983D01*
X13790803Y-50949914D01*
X13777813Y-50944533D01*
X13759296Y-50934967D01*
X13724490Y-50913097D01*
X13719731Y-50909786D01*
X13671798Y-50873005D01*
X13665702Y-50867660D01*
X13632337Y-50834295D01*
X13626993Y-50828200D01*
X13590212Y-50780267D01*
X13586909Y-50775520D01*
X13565027Y-50740695D01*
X13555469Y-50722195D01*
X13533011Y-50667976D01*
X13531775Y-50664736D01*
X13519830Y-50630599D01*
X13513932Y-50605828D01*
X13503470Y-50526354D01*
X13502357Y-50516485D01*
X13500889Y-50503455D01*
X13500500Y-50496518D01*
X13500500Y-44003480D01*
X13500889Y-43996546D01*
X13503470Y-43973645D01*
X13506944Y-43947248D01*
X13513933Y-43894163D01*
X13519830Y-43869399D01*
X13531775Y-43835262D01*
X13533001Y-43832047D01*
X13555474Y-43777794D01*
X13565021Y-43759313D01*
X13586922Y-43724459D01*
X13590197Y-43719752D01*
X13627003Y-43671786D01*
X13632323Y-43665718D01*
X13665718Y-43632323D01*
X13671786Y-43627003D01*
X13719752Y-43590197D01*
X13724459Y-43586922D01*
X13759313Y-43565021D01*
X13777794Y-43555474D01*
X13832047Y-43533001D01*
X13835253Y-43531778D01*
X13869402Y-43519829D01*
X13894163Y-43513933D01*
X13941020Y-43507764D01*
X13973646Y-43503470D01*
X13982632Y-43502456D01*
X13996545Y-43500889D01*
X14003481Y-43500500D01*
X14556391Y-43500500D01*
X14556393Y-43500500D01*
X14556395Y-43500499D01*
X14556399Y-43500499D01*
X14624362Y-43484986D01*
X14666351Y-43475403D01*
X14767967Y-43426467D01*
X14767967Y-43426466D01*
X14767969Y-43426466D01*
X14789896Y-43408978D01*
X14856146Y-43356146D01*
X14908978Y-43289896D01*
X14926466Y-43267969D01*
X14926467Y-43267966D01*
X14947315Y-43224676D01*
X14975403Y-43166351D01*
X14992727Y-43090448D01*
X15000499Y-43056399D01*
X15000500Y-43056391D01*
X15000500Y-39443608D01*
X15000499Y-39443600D01*
X14975403Y-39333649D01*
X14926467Y-39232033D01*
X14926466Y-39232030D01*
X14885538Y-39180710D01*
X14856146Y-39143854D01*
X14826753Y-39120413D01*
X14767969Y-39073533D01*
X14767966Y-39073532D01*
X14666350Y-39024596D01*
X14556399Y-38999500D01*
X14556393Y-38999500D01*
X14500099Y-38999500D01*
X14003486Y-38999500D01*
X13996539Y-38999110D01*
X13993592Y-38998777D01*
X13973647Y-38996530D01*
X13894169Y-38986066D01*
X13869401Y-38980169D01*
X13835263Y-38968223D01*
X13832014Y-38966983D01*
X13790803Y-38949914D01*
X13777813Y-38944533D01*
X13759296Y-38934967D01*
X13724490Y-38913097D01*
X13719731Y-38909786D01*
X13671798Y-38873005D01*
X13665702Y-38867660D01*
X13632337Y-38834295D01*
X13626993Y-38828200D01*
X13590212Y-38780267D01*
X13586909Y-38775520D01*
X13565027Y-38740695D01*
X13555469Y-38722195D01*
X13533011Y-38667976D01*
X13531775Y-38664736D01*
X13519830Y-38630599D01*
X13513933Y-38605836D01*
X13508947Y-38567959D01*
X13503468Y-38526331D01*
X13500890Y-38503464D01*
X13500500Y-38496515D01*
X13500500Y-33503480D01*
X13500889Y-33496546D01*
X13503470Y-33473645D01*
X13508390Y-33436272D01*
X13513933Y-33394163D01*
X13519830Y-33369399D01*
X13531775Y-33335262D01*
X13533001Y-33332047D01*
X13555474Y-33277794D01*
X13565021Y-33259313D01*
X13586922Y-33224459D01*
X13590197Y-33219752D01*
X13627003Y-33171786D01*
X13632323Y-33165718D01*
X13665718Y-33132323D01*
X13671786Y-33127003D01*
X13719752Y-33090197D01*
X13724459Y-33086922D01*
X13759313Y-33065021D01*
X13777794Y-33055474D01*
X13832047Y-33033001D01*
X13835253Y-33031778D01*
X13869402Y-33019829D01*
X13894163Y-33013933D01*
X13941020Y-33007764D01*
X13973646Y-33003470D01*
X13982632Y-33002456D01*
X13996545Y-33000889D01*
X14003481Y-33000500D01*
X14556391Y-33000500D01*
X14556393Y-33000500D01*
X14556395Y-33000499D01*
X14556399Y-33000499D01*
X14624362Y-32984986D01*
X14666351Y-32975403D01*
X14767967Y-32926467D01*
X14767967Y-32926466D01*
X14767969Y-32926466D01*
X14813036Y-32890525D01*
X14856146Y-32856146D01*
X14908978Y-32789896D01*
X14926466Y-32767969D01*
X14926467Y-32767966D01*
X14975403Y-32666350D01*
X15000499Y-32556399D01*
X15000500Y-32556391D01*
X15000500Y-32003480D01*
X15000890Y-31996538D01*
X15002687Y-31980586D01*
X15003470Y-31973645D01*
X15006944Y-31947248D01*
X15013933Y-31894163D01*
X15019830Y-31869399D01*
X15031775Y-31835262D01*
X15033001Y-31832047D01*
X15055474Y-31777794D01*
X15065021Y-31759313D01*
X15086922Y-31724459D01*
X15090197Y-31719752D01*
X15127003Y-31671786D01*
X15132323Y-31665718D01*
X15165718Y-31632323D01*
X15171786Y-31627003D01*
X15219752Y-31590197D01*
X15224459Y-31586922D01*
X15259313Y-31565021D01*
X15277794Y-31555474D01*
X15332047Y-31533001D01*
X15335253Y-31531778D01*
X15369402Y-31519829D01*
X15394163Y-31513933D01*
X15441020Y-31507764D01*
X15473646Y-31503470D01*
X15482632Y-31502456D01*
X15496545Y-31500889D01*
X15503481Y-31500500D01*
X16056391Y-31500500D01*
X16056393Y-31500500D01*
X16056395Y-31500499D01*
X16056399Y-31500499D01*
X16124362Y-31484986D01*
X16166351Y-31475403D01*
X16267967Y-31426467D01*
X16267967Y-31426466D01*
X16267969Y-31426466D01*
X16313036Y-31390525D01*
X16356146Y-31356146D01*
X16408978Y-31289896D01*
X16426466Y-31267969D01*
X16426467Y-31267966D01*
X16475403Y-31166350D01*
X16500499Y-31056399D01*
X16500500Y-31056391D01*
X16500500Y-21912401D01*
X27992199Y-21912401D01*
X34459999Y-28380201D01*
X40927800Y-21912401D01*
X40927799Y-21912400D01*
X40661168Y-21662674D01*
X40661168Y-21662673D01*
X40185423Y-21272239D01*
X40185424Y-21272239D01*
X39685152Y-20913750D01*
X39162516Y-20588754D01*
X39162516Y-20588755D01*
X38619742Y-20298636D01*
X38059149Y-20044635D01*
X37483144Y-19827842D01*
X37483143Y-19827842D01*
X36894208Y-19649190D01*
X36294827Y-19509434D01*
X35687601Y-19409181D01*
X35687600Y-19409181D01*
X35075126Y-19348857D01*
X34460000Y-19328720D01*
X33844874Y-19348857D01*
X33232400Y-19409181D01*
X33232399Y-19409181D01*
X32625173Y-19509434D01*
X32025792Y-19649190D01*
X31436857Y-19827842D01*
X31436856Y-19827842D01*
X30860851Y-20044635D01*
X30300258Y-20298636D01*
X29757484Y-20588755D01*
X29757484Y-20588754D01*
X29234848Y-20913750D01*
X28734576Y-21272239D01*
X28734577Y-21272239D01*
X28258832Y-21662673D01*
X28258832Y-21662674D01*
X27992199Y-21912401D01*
X16500500Y-21912401D01*
X16500500Y-20003480D01*
X16500889Y-19996546D01*
X16503470Y-19973645D01*
X16506944Y-19947248D01*
X16513933Y-19894163D01*
X16519830Y-19869399D01*
X16531775Y-19835262D01*
X16533001Y-19832047D01*
X16555474Y-19777794D01*
X16565021Y-19759313D01*
X16586922Y-19724459D01*
X16590197Y-19719752D01*
X16627003Y-19671786D01*
X16632323Y-19665718D01*
X16665718Y-19632323D01*
X16671786Y-19627003D01*
X16719752Y-19590197D01*
X16724459Y-19586922D01*
X16759313Y-19565021D01*
X16777794Y-19555474D01*
X16832047Y-19533001D01*
X16835253Y-19531778D01*
X16869402Y-19519829D01*
X16894163Y-19513933D01*
X16941020Y-19507764D01*
X16973646Y-19503470D01*
X16982632Y-19502456D01*
X16996545Y-19500889D01*
X17003481Y-19500500D01*
X17556391Y-19500500D01*
X17556393Y-19500500D01*
X17556395Y-19500499D01*
X17556399Y-19500499D01*
X17624362Y-19484986D01*
X17666351Y-19475403D01*
X17767967Y-19426467D01*
X17767967Y-19426466D01*
X17767969Y-19426466D01*
X17813036Y-19390525D01*
X17856146Y-19356146D01*
X17908978Y-19289896D01*
X17926466Y-19267969D01*
X17926467Y-19267966D01*
X17975403Y-19166350D01*
X18000499Y-19056399D01*
X18000500Y-19056391D01*
X18000500Y-17003480D01*
X18000889Y-16996546D01*
X18003470Y-16973645D01*
X18006944Y-16947248D01*
X18013933Y-16894163D01*
X18019830Y-16869399D01*
X18031775Y-16835262D01*
X18033001Y-16832047D01*
X18055474Y-16777794D01*
X18065021Y-16759313D01*
X18086922Y-16724459D01*
X18090197Y-16719752D01*
X18127003Y-16671786D01*
X18132323Y-16665718D01*
X18165718Y-16632323D01*
X18171786Y-16627003D01*
X18219752Y-16590197D01*
X18224459Y-16586922D01*
X18259313Y-16565021D01*
X18277794Y-16555474D01*
X18332047Y-16533001D01*
X18335253Y-16531778D01*
X18369402Y-16519829D01*
X18394163Y-16513933D01*
X18441020Y-16507764D01*
X18473646Y-16503470D01*
X18482632Y-16502456D01*
X18496545Y-16500889D01*
X18503481Y-16500500D01*
X19056391Y-16500500D01*
X19056393Y-16500500D01*
X19056395Y-16500499D01*
X19056399Y-16500499D01*
X19127305Y-16484315D01*
X19166351Y-16475403D01*
X19267967Y-16426467D01*
X19267967Y-16426466D01*
X19267969Y-16426466D01*
X19313036Y-16390525D01*
X19356146Y-16356146D01*
X19408978Y-16289896D01*
X19426466Y-16267969D01*
X19426467Y-16267966D01*
X19427578Y-16265661D01*
X19475403Y-16166351D01*
X19496012Y-16076057D01*
X19500499Y-16056399D01*
X19500500Y-16056391D01*
X19500500Y-15587534D01*
X25499500Y-15587534D01*
X25529898Y-15759937D01*
X25589775Y-15924446D01*
X25677309Y-16076057D01*
X25789836Y-16210163D01*
X25923942Y-16322690D01*
X25923943Y-16322691D01*
X25923945Y-16322692D01*
X26075555Y-16410225D01*
X26240062Y-16470101D01*
X26412468Y-16500500D01*
X26412472Y-16500500D01*
X42587528Y-16500500D01*
X42587532Y-16500500D01*
X42759938Y-16470101D01*
X42924445Y-16410225D01*
X43076055Y-16322692D01*
X43210163Y-16210163D01*
X43322692Y-16076055D01*
X43410225Y-15924445D01*
X43470101Y-15759938D01*
X43500500Y-15587532D01*
X43500500Y-15500000D01*
X43500500Y-15499500D01*
X43500500Y-14499901D01*
X43500500Y-14412468D01*
X43470101Y-14240062D01*
X43410225Y-14075555D01*
X43322692Y-13923945D01*
X43322691Y-13923943D01*
X43322690Y-13923942D01*
X43210163Y-13789836D01*
X43076057Y-13677309D01*
X42924446Y-13589775D01*
X42759937Y-13529898D01*
X42587534Y-13499500D01*
X42587532Y-13499500D01*
X42500099Y-13499500D01*
X26500500Y-13499500D01*
X26500000Y-13499500D01*
X26412468Y-13499500D01*
X26412465Y-13499500D01*
X26240062Y-13529898D01*
X26075553Y-13589775D01*
X25923942Y-13677309D01*
X25789836Y-13789836D01*
X25677309Y-13923942D01*
X25589775Y-14075553D01*
X25529898Y-14240062D01*
X25499500Y-14412465D01*
X25499500Y-15587534D01*
X19500500Y-15587534D01*
X19500500Y-14003480D01*
X19500889Y-13996546D01*
X19503470Y-13973645D01*
X19510013Y-13923942D01*
X19513933Y-13894163D01*
X19519830Y-13869399D01*
X19531775Y-13835262D01*
X19533001Y-13832047D01*
X19555474Y-13777794D01*
X19565021Y-13759313D01*
X19586922Y-13724459D01*
X19590197Y-13719752D01*
X19627003Y-13671786D01*
X19632323Y-13665718D01*
X19665718Y-13632323D01*
X19671786Y-13627003D01*
X19719752Y-13590197D01*
X19724459Y-13586922D01*
X19759313Y-13565021D01*
X19777794Y-13555474D01*
X19832047Y-13533001D01*
X19835253Y-13531778D01*
X19869402Y-13519829D01*
X19894163Y-13513933D01*
X19941020Y-13507764D01*
X19973646Y-13503470D01*
X19982632Y-13502456D01*
X19996545Y-13500889D01*
X20003481Y-13500500D01*
X20556391Y-13500500D01*
X20556393Y-13500500D01*
X20556395Y-13500499D01*
X20556399Y-13500499D01*
X20624362Y-13484986D01*
X20666351Y-13475403D01*
X20767967Y-13426467D01*
X20767967Y-13426466D01*
X20767969Y-13426466D01*
X20813036Y-13390525D01*
X20856146Y-13356146D01*
X20908978Y-13289896D01*
X20926466Y-13267969D01*
X20926467Y-13267966D01*
X20975403Y-13166350D01*
X21000499Y-13056399D01*
X21000500Y-13056391D01*
X21000500Y-12503480D01*
X21000890Y-12496538D01*
X21002687Y-12480586D01*
X21003470Y-12473645D01*
X21006944Y-12447248D01*
X21013933Y-12394163D01*
X21019830Y-12369399D01*
X21031775Y-12335262D01*
X21033001Y-12332047D01*
X21055474Y-12277794D01*
X21065021Y-12259313D01*
X21086922Y-12224459D01*
X21090197Y-12219752D01*
X21127003Y-12171786D01*
X21132323Y-12165718D01*
X21165718Y-12132323D01*
X21171786Y-12127003D01*
X21219752Y-12090197D01*
X21224459Y-12086922D01*
X21259313Y-12065021D01*
X21277794Y-12055474D01*
X21332047Y-12033001D01*
X21335253Y-12031778D01*
X21369402Y-12019829D01*
X21394163Y-12013933D01*
X21441020Y-12007764D01*
X21473646Y-12003470D01*
X21482632Y-12002456D01*
X21496545Y-12000889D01*
X21503481Y-12000500D01*
X47496518Y-12000500D01*
X47503455Y-12000889D01*
G37*
%TD.AperFunction*%
%TD*%
M02*
