%TF.GenerationSoftware,KiCad,Pcbnew,7.0.9*%
%TF.CreationDate,2024-01-25T10:25:39+02:00*%
%TF.ProjectId,ncscfi-badge2024,6e637363-6669-42d6-9261-646765323032,rev?*%
%TF.SameCoordinates,Original*%
%TF.FileFunction,Soldermask,Bot*%
%TF.FilePolarity,Negative*%
%FSLAX46Y46*%
G04 Gerber Fmt 4.6, Leading zero omitted, Abs format (unit mm)*
G04 Created by KiCad (PCBNEW 7.0.9) date 2024-01-25 10:25:39*
%MOMM*%
%LPD*%
G01*
G04 APERTURE LIST*
G04 Aperture macros list*
%AMRoundRect*
0 Rectangle with rounded corners*
0 $1 Rounding radius*
0 $2 $3 $4 $5 $6 $7 $8 $9 X,Y pos of 4 corners*
0 Add a 4 corners polygon primitive as box body*
4,1,4,$2,$3,$4,$5,$6,$7,$8,$9,$2,$3,0*
0 Add four circle primitives for the rounded corners*
1,1,$1+$1,$2,$3*
1,1,$1+$1,$4,$5*
1,1,$1+$1,$6,$7*
1,1,$1+$1,$8,$9*
0 Add four rect primitives between the rounded corners*
20,1,$1+$1,$2,$3,$4,$5,0*
20,1,$1+$1,$4,$5,$6,$7,0*
20,1,$1+$1,$6,$7,$8,$9,0*
20,1,$1+$1,$8,$9,$2,$3,0*%
G04 Aperture macros list end*
%ADD10C,0.300000*%
%ADD11C,0.250000*%
%ADD12C,1.650000*%
%ADD13R,1.500000X1.000000*%
%ADD14R,10.000000X5.000000*%
%ADD15RoundRect,0.200000X-0.275000X0.200000X-0.275000X-0.200000X0.275000X-0.200000X0.275000X0.200000X0*%
%ADD16RoundRect,0.200000X0.200000X0.275000X-0.200000X0.275000X-0.200000X-0.275000X0.200000X-0.275000X0*%
%ADD17RoundRect,0.200000X-0.200000X-0.275000X0.200000X-0.275000X0.200000X0.275000X-0.200000X0.275000X0*%
%ADD18R,3.500000X1.700000*%
%ADD19R,1.700000X3.500000*%
%ADD20RoundRect,0.100000X-0.300000X0.600000X-0.300000X-0.600000X0.300000X-0.600000X0.300000X0.600000X0*%
%ADD21RoundRect,0.100000X0.600000X0.300000X-0.600000X0.300000X-0.600000X-0.300000X0.600000X-0.300000X0*%
%ADD22R,5.100000X5.100000*%
%ADD23C,17.800000*%
G04 APERTURE END LIST*
D10*
X77705012Y-97917733D02*
X76752632Y-97917733D01*
X77705012Y-100406423D02*
X77705012Y-99156423D01*
X77705012Y-99156423D02*
X77228822Y-99156423D01*
X77228822Y-99156423D02*
X77109774Y-99215947D01*
X77109774Y-99215947D02*
X77050251Y-99275471D01*
X77050251Y-99275471D02*
X76990727Y-99394519D01*
X76990727Y-99394519D02*
X76990727Y-99573090D01*
X76990727Y-99573090D02*
X77050251Y-99692138D01*
X77050251Y-99692138D02*
X77109774Y-99751661D01*
X77109774Y-99751661D02*
X77228822Y-99811185D01*
X77228822Y-99811185D02*
X77705012Y-99811185D01*
X76455012Y-100406423D02*
X76455012Y-99156423D01*
X75145489Y-100287376D02*
X75205013Y-100346900D01*
X75205013Y-100346900D02*
X75383584Y-100406423D01*
X75383584Y-100406423D02*
X75502632Y-100406423D01*
X75502632Y-100406423D02*
X75681203Y-100346900D01*
X75681203Y-100346900D02*
X75800251Y-100227852D01*
X75800251Y-100227852D02*
X75859774Y-100108804D01*
X75859774Y-100108804D02*
X75919298Y-99870709D01*
X75919298Y-99870709D02*
X75919298Y-99692138D01*
X75919298Y-99692138D02*
X75859774Y-99454042D01*
X75859774Y-99454042D02*
X75800251Y-99334995D01*
X75800251Y-99334995D02*
X75681203Y-99215947D01*
X75681203Y-99215947D02*
X75502632Y-99156423D01*
X75502632Y-99156423D02*
X75383584Y-99156423D01*
X75383584Y-99156423D02*
X75205013Y-99215947D01*
X75205013Y-99215947D02*
X75145489Y-99275471D01*
X74371679Y-99156423D02*
X74133584Y-99156423D01*
X74133584Y-99156423D02*
X74014536Y-99215947D01*
X74014536Y-99215947D02*
X73895489Y-99334995D01*
X73895489Y-99334995D02*
X73835965Y-99573090D01*
X73835965Y-99573090D02*
X73835965Y-99989757D01*
X73835965Y-99989757D02*
X73895489Y-100227852D01*
X73895489Y-100227852D02*
X74014536Y-100346900D01*
X74014536Y-100346900D02*
X74133584Y-100406423D01*
X74133584Y-100406423D02*
X74371679Y-100406423D01*
X74371679Y-100406423D02*
X74490727Y-100346900D01*
X74490727Y-100346900D02*
X74609774Y-100227852D01*
X74609774Y-100227852D02*
X74669298Y-99989757D01*
X74669298Y-99989757D02*
X74669298Y-99573090D01*
X74669298Y-99573090D02*
X74609774Y-99334995D01*
X74609774Y-99334995D02*
X74490727Y-99215947D01*
X74490727Y-99215947D02*
X74371679Y-99156423D01*
X72526441Y-99156423D02*
X72109774Y-100406423D01*
X72109774Y-100406423D02*
X71693108Y-99156423D01*
X71276440Y-100406423D02*
X71276440Y-99156423D01*
X70681202Y-100406423D02*
X70681202Y-99156423D01*
X70681202Y-99156423D02*
X69966917Y-100406423D01*
X69966917Y-100406423D02*
X69966917Y-99156423D01*
X77347870Y-102895114D02*
X77407393Y-102835590D01*
X77407393Y-102835590D02*
X77526441Y-102657019D01*
X77526441Y-102657019D02*
X77585965Y-102537971D01*
X77585965Y-102537971D02*
X77645489Y-102359400D01*
X77645489Y-102359400D02*
X77705012Y-102061780D01*
X77705012Y-102061780D02*
X77705012Y-101823685D01*
X77705012Y-101823685D02*
X77645489Y-101526066D01*
X77645489Y-101526066D02*
X77585965Y-101347495D01*
X77585965Y-101347495D02*
X77526441Y-101228447D01*
X77526441Y-101228447D02*
X77407393Y-101049876D01*
X77407393Y-101049876D02*
X77347870Y-100990352D01*
X76990727Y-101168923D02*
X76216918Y-101168923D01*
X76216918Y-101168923D02*
X76633584Y-101645114D01*
X76633584Y-101645114D02*
X76455013Y-101645114D01*
X76455013Y-101645114D02*
X76335965Y-101704638D01*
X76335965Y-101704638D02*
X76276441Y-101764161D01*
X76276441Y-101764161D02*
X76216918Y-101883209D01*
X76216918Y-101883209D02*
X76216918Y-102180828D01*
X76216918Y-102180828D02*
X76276441Y-102299876D01*
X76276441Y-102299876D02*
X76335965Y-102359400D01*
X76335965Y-102359400D02*
X76455013Y-102418923D01*
X76455013Y-102418923D02*
X76812156Y-102418923D01*
X76812156Y-102418923D02*
X76931203Y-102359400D01*
X76931203Y-102359400D02*
X76990727Y-102299876D01*
X75681203Y-101942733D02*
X74728823Y-101942733D01*
X73538346Y-101168923D02*
X74133584Y-101168923D01*
X74133584Y-101168923D02*
X74193108Y-101764161D01*
X74193108Y-101764161D02*
X74133584Y-101704638D01*
X74133584Y-101704638D02*
X74014537Y-101645114D01*
X74014537Y-101645114D02*
X73716918Y-101645114D01*
X73716918Y-101645114D02*
X73597870Y-101704638D01*
X73597870Y-101704638D02*
X73538346Y-101764161D01*
X73538346Y-101764161D02*
X73478823Y-101883209D01*
X73478823Y-101883209D02*
X73478823Y-102180828D01*
X73478823Y-102180828D02*
X73538346Y-102299876D01*
X73538346Y-102299876D02*
X73597870Y-102359400D01*
X73597870Y-102359400D02*
X73716918Y-102418923D01*
X73716918Y-102418923D02*
X74014537Y-102418923D01*
X74014537Y-102418923D02*
X74133584Y-102359400D01*
X74133584Y-102359400D02*
X74193108Y-102299876D01*
X72943108Y-102299876D02*
X72883585Y-102359400D01*
X72883585Y-102359400D02*
X72943108Y-102418923D01*
X72943108Y-102418923D02*
X73002632Y-102359400D01*
X73002632Y-102359400D02*
X72943108Y-102299876D01*
X72943108Y-102299876D02*
X72943108Y-102418923D01*
X71752632Y-101168923D02*
X72347870Y-101168923D01*
X72347870Y-101168923D02*
X72407394Y-101764161D01*
X72407394Y-101764161D02*
X72347870Y-101704638D01*
X72347870Y-101704638D02*
X72228823Y-101645114D01*
X72228823Y-101645114D02*
X71931204Y-101645114D01*
X71931204Y-101645114D02*
X71812156Y-101704638D01*
X71812156Y-101704638D02*
X71752632Y-101764161D01*
X71752632Y-101764161D02*
X71693109Y-101883209D01*
X71693109Y-101883209D02*
X71693109Y-102180828D01*
X71693109Y-102180828D02*
X71752632Y-102299876D01*
X71752632Y-102299876D02*
X71812156Y-102359400D01*
X71812156Y-102359400D02*
X71931204Y-102418923D01*
X71931204Y-102418923D02*
X72228823Y-102418923D01*
X72228823Y-102418923D02*
X72347870Y-102359400D01*
X72347870Y-102359400D02*
X72407394Y-102299876D01*
X71335966Y-101168923D02*
X70919299Y-102418923D01*
X70919299Y-102418923D02*
X70502633Y-101168923D01*
X70205013Y-102895114D02*
X70145489Y-102835590D01*
X70145489Y-102835590D02*
X70026442Y-102657019D01*
X70026442Y-102657019D02*
X69966918Y-102537971D01*
X69966918Y-102537971D02*
X69907394Y-102359400D01*
X69907394Y-102359400D02*
X69847870Y-102061780D01*
X69847870Y-102061780D02*
X69847870Y-101823685D01*
X69847870Y-101823685D02*
X69907394Y-101526066D01*
X69907394Y-101526066D02*
X69966918Y-101347495D01*
X69966918Y-101347495D02*
X70026442Y-101228447D01*
X70026442Y-101228447D02*
X70145489Y-101049876D01*
X70145489Y-101049876D02*
X70205013Y-100990352D01*
X77705012Y-103955233D02*
X76752632Y-103955233D01*
X77228822Y-104431423D02*
X77228822Y-103479042D01*
X36529171Y-68645489D02*
X38029171Y-68645489D01*
X37314885Y-67431203D02*
X37314885Y-67931203D01*
X36529171Y-67931203D02*
X38029171Y-67931203D01*
X38029171Y-67931203D02*
X38029171Y-67216917D01*
X36529171Y-65502632D02*
X38029171Y-65502632D01*
X38029171Y-65502632D02*
X38029171Y-64931203D01*
X38029171Y-64931203D02*
X37957742Y-64788346D01*
X37957742Y-64788346D02*
X37886314Y-64716917D01*
X37886314Y-64716917D02*
X37743457Y-64645489D01*
X37743457Y-64645489D02*
X37529171Y-64645489D01*
X37529171Y-64645489D02*
X37386314Y-64716917D01*
X37386314Y-64716917D02*
X37314885Y-64788346D01*
X37314885Y-64788346D02*
X37243457Y-64931203D01*
X37243457Y-64931203D02*
X37243457Y-65502632D01*
X36529171Y-64002632D02*
X38029171Y-64002632D01*
X36672028Y-62431203D02*
X36600600Y-62502631D01*
X36600600Y-62502631D02*
X36529171Y-62716917D01*
X36529171Y-62716917D02*
X36529171Y-62859774D01*
X36529171Y-62859774D02*
X36600600Y-63074060D01*
X36600600Y-63074060D02*
X36743457Y-63216917D01*
X36743457Y-63216917D02*
X36886314Y-63288346D01*
X36886314Y-63288346D02*
X37172028Y-63359774D01*
X37172028Y-63359774D02*
X37386314Y-63359774D01*
X37386314Y-63359774D02*
X37672028Y-63288346D01*
X37672028Y-63288346D02*
X37814885Y-63216917D01*
X37814885Y-63216917D02*
X37957742Y-63074060D01*
X37957742Y-63074060D02*
X38029171Y-62859774D01*
X38029171Y-62859774D02*
X38029171Y-62716917D01*
X38029171Y-62716917D02*
X37957742Y-62502631D01*
X37957742Y-62502631D02*
X37886314Y-62431203D01*
X38029171Y-61502631D02*
X38029171Y-61216917D01*
X38029171Y-61216917D02*
X37957742Y-61074060D01*
X37957742Y-61074060D02*
X37814885Y-60931203D01*
X37814885Y-60931203D02*
X37529171Y-60859774D01*
X37529171Y-60859774D02*
X37029171Y-60859774D01*
X37029171Y-60859774D02*
X36743457Y-60931203D01*
X36743457Y-60931203D02*
X36600600Y-61074060D01*
X36600600Y-61074060D02*
X36529171Y-61216917D01*
X36529171Y-61216917D02*
X36529171Y-61502631D01*
X36529171Y-61502631D02*
X36600600Y-61645489D01*
X36600600Y-61645489D02*
X36743457Y-61788346D01*
X36743457Y-61788346D02*
X37029171Y-61859774D01*
X37029171Y-61859774D02*
X37529171Y-61859774D01*
X37529171Y-61859774D02*
X37814885Y-61788346D01*
X37814885Y-61788346D02*
X37957742Y-61645489D01*
X37957742Y-61645489D02*
X38029171Y-61502631D01*
X36957742Y-59145488D02*
X36957742Y-58431203D01*
X36529171Y-59288345D02*
X38029171Y-58788345D01*
X38029171Y-58788345D02*
X36529171Y-58288345D01*
X36529171Y-57788346D02*
X38029171Y-57788346D01*
X38029171Y-57788346D02*
X38029171Y-57431203D01*
X38029171Y-57431203D02*
X37957742Y-57216917D01*
X37957742Y-57216917D02*
X37814885Y-57074060D01*
X37814885Y-57074060D02*
X37672028Y-57002631D01*
X37672028Y-57002631D02*
X37386314Y-56931203D01*
X37386314Y-56931203D02*
X37172028Y-56931203D01*
X37172028Y-56931203D02*
X36886314Y-57002631D01*
X36886314Y-57002631D02*
X36743457Y-57074060D01*
X36743457Y-57074060D02*
X36600600Y-57216917D01*
X36600600Y-57216917D02*
X36529171Y-57431203D01*
X36529171Y-57431203D02*
X36529171Y-57788346D01*
X36529171Y-56288346D02*
X38029171Y-56288346D01*
X38029171Y-56288346D02*
X38029171Y-55931203D01*
X38029171Y-55931203D02*
X37957742Y-55716917D01*
X37957742Y-55716917D02*
X37814885Y-55574060D01*
X37814885Y-55574060D02*
X37672028Y-55502631D01*
X37672028Y-55502631D02*
X37386314Y-55431203D01*
X37386314Y-55431203D02*
X37172028Y-55431203D01*
X37172028Y-55431203D02*
X36886314Y-55502631D01*
X36886314Y-55502631D02*
X36743457Y-55574060D01*
X36743457Y-55574060D02*
X36600600Y-55716917D01*
X36600600Y-55716917D02*
X36529171Y-55931203D01*
X36529171Y-55931203D02*
X36529171Y-56288346D01*
X37314885Y-54788346D02*
X37314885Y-54288346D01*
X36529171Y-54074060D02*
X36529171Y-54788346D01*
X36529171Y-54788346D02*
X38029171Y-54788346D01*
X38029171Y-54788346D02*
X38029171Y-54074060D01*
X36529171Y-53431203D02*
X38029171Y-53431203D01*
X38029171Y-53431203D02*
X38029171Y-53074060D01*
X38029171Y-53074060D02*
X37957742Y-52859774D01*
X37957742Y-52859774D02*
X37814885Y-52716917D01*
X37814885Y-52716917D02*
X37672028Y-52645488D01*
X37672028Y-52645488D02*
X37386314Y-52574060D01*
X37386314Y-52574060D02*
X37172028Y-52574060D01*
X37172028Y-52574060D02*
X36886314Y-52645488D01*
X36886314Y-52645488D02*
X36743457Y-52716917D01*
X36743457Y-52716917D02*
X36600600Y-52859774D01*
X36600600Y-52859774D02*
X36529171Y-53074060D01*
X36529171Y-53074060D02*
X36529171Y-53431203D01*
X34257028Y-67788346D02*
X34185600Y-67859774D01*
X34185600Y-67859774D02*
X34114171Y-68074060D01*
X34114171Y-68074060D02*
X34114171Y-68216917D01*
X34114171Y-68216917D02*
X34185600Y-68431203D01*
X34185600Y-68431203D02*
X34328457Y-68574060D01*
X34328457Y-68574060D02*
X34471314Y-68645489D01*
X34471314Y-68645489D02*
X34757028Y-68716917D01*
X34757028Y-68716917D02*
X34971314Y-68716917D01*
X34971314Y-68716917D02*
X35257028Y-68645489D01*
X35257028Y-68645489D02*
X35399885Y-68574060D01*
X35399885Y-68574060D02*
X35542742Y-68431203D01*
X35542742Y-68431203D02*
X35614171Y-68216917D01*
X35614171Y-68216917D02*
X35614171Y-68074060D01*
X35614171Y-68074060D02*
X35542742Y-67859774D01*
X35542742Y-67859774D02*
X35471314Y-67788346D01*
X35614171Y-67145489D02*
X34399885Y-67145489D01*
X34399885Y-67145489D02*
X34257028Y-67074060D01*
X34257028Y-67074060D02*
X34185600Y-67002632D01*
X34185600Y-67002632D02*
X34114171Y-66859774D01*
X34114171Y-66859774D02*
X34114171Y-66574060D01*
X34114171Y-66574060D02*
X34185600Y-66431203D01*
X34185600Y-66431203D02*
X34257028Y-66359774D01*
X34257028Y-66359774D02*
X34399885Y-66288346D01*
X34399885Y-66288346D02*
X35614171Y-66288346D01*
X35614171Y-65788345D02*
X35614171Y-64931203D01*
X34114171Y-65359774D02*
X35614171Y-65359774D01*
X34114171Y-62502631D02*
X34114171Y-63359774D01*
X34114171Y-62931203D02*
X35614171Y-62931203D01*
X35614171Y-62931203D02*
X35399885Y-63074060D01*
X35399885Y-63074060D02*
X35257028Y-63216917D01*
X35257028Y-63216917D02*
X35185600Y-63359774D01*
X34685600Y-61859775D02*
X34685600Y-60716918D01*
X35471314Y-60074060D02*
X35542742Y-60002632D01*
X35542742Y-60002632D02*
X35614171Y-59859775D01*
X35614171Y-59859775D02*
X35614171Y-59502632D01*
X35614171Y-59502632D02*
X35542742Y-59359775D01*
X35542742Y-59359775D02*
X35471314Y-59288346D01*
X35471314Y-59288346D02*
X35328457Y-59216917D01*
X35328457Y-59216917D02*
X35185600Y-59216917D01*
X35185600Y-59216917D02*
X34971314Y-59288346D01*
X34971314Y-59288346D02*
X34114171Y-60145489D01*
X34114171Y-60145489D02*
X34114171Y-59216917D01*
X34114171Y-56216918D02*
X34114171Y-56288347D01*
X34114171Y-56288347D02*
X34185600Y-56431204D01*
X34185600Y-56431204D02*
X34399885Y-56645489D01*
X34399885Y-56645489D02*
X34828457Y-57002632D01*
X34828457Y-57002632D02*
X35042742Y-57145489D01*
X35042742Y-57145489D02*
X35257028Y-57216918D01*
X35257028Y-57216918D02*
X35399885Y-57216918D01*
X35399885Y-57216918D02*
X35542742Y-57145489D01*
X35542742Y-57145489D02*
X35614171Y-57002632D01*
X35614171Y-57002632D02*
X35614171Y-56931204D01*
X35614171Y-56931204D02*
X35542742Y-56788347D01*
X35542742Y-56788347D02*
X35399885Y-56716918D01*
X35399885Y-56716918D02*
X35328457Y-56716918D01*
X35328457Y-56716918D02*
X35185600Y-56788347D01*
X35185600Y-56788347D02*
X35114171Y-56859775D01*
X35114171Y-56859775D02*
X34828457Y-57288347D01*
X34828457Y-57288347D02*
X34757028Y-57359775D01*
X34757028Y-57359775D02*
X34614171Y-57431204D01*
X34614171Y-57431204D02*
X34399885Y-57431204D01*
X34399885Y-57431204D02*
X34257028Y-57359775D01*
X34257028Y-57359775D02*
X34185600Y-57288347D01*
X34185600Y-57288347D02*
X34114171Y-57145489D01*
X34114171Y-57145489D02*
X34114171Y-56931204D01*
X34114171Y-56931204D02*
X34185600Y-56788347D01*
X34185600Y-56788347D02*
X34257028Y-56716918D01*
X34257028Y-56716918D02*
X34542742Y-56502632D01*
X34542742Y-56502632D02*
X34757028Y-56431204D01*
X34757028Y-56431204D02*
X34899885Y-56431204D01*
X34685600Y-53288347D02*
X34685600Y-52145490D01*
X34685600Y-51431204D02*
X34685600Y-50288347D01*
X34685600Y-49574061D02*
X34685600Y-48431204D01*
X35114171Y-47716918D02*
X34685600Y-46574061D01*
X34685600Y-46574061D02*
X34257028Y-47716918D01*
X31770600Y-68716917D02*
X31699171Y-68502632D01*
X31699171Y-68502632D02*
X31699171Y-68145489D01*
X31699171Y-68145489D02*
X31770600Y-68002632D01*
X31770600Y-68002632D02*
X31842028Y-67931203D01*
X31842028Y-67931203D02*
X31984885Y-67859774D01*
X31984885Y-67859774D02*
X32127742Y-67859774D01*
X32127742Y-67859774D02*
X32270600Y-67931203D01*
X32270600Y-67931203D02*
X32342028Y-68002632D01*
X32342028Y-68002632D02*
X32413457Y-68145489D01*
X32413457Y-68145489D02*
X32484885Y-68431203D01*
X32484885Y-68431203D02*
X32556314Y-68574060D01*
X32556314Y-68574060D02*
X32627742Y-68645489D01*
X32627742Y-68645489D02*
X32770600Y-68716917D01*
X32770600Y-68716917D02*
X32913457Y-68716917D01*
X32913457Y-68716917D02*
X33056314Y-68645489D01*
X33056314Y-68645489D02*
X33127742Y-68574060D01*
X33127742Y-68574060D02*
X33199171Y-68431203D01*
X33199171Y-68431203D02*
X33199171Y-68074060D01*
X33199171Y-68074060D02*
X33127742Y-67859774D01*
X31699171Y-67216918D02*
X33199171Y-67216918D01*
X32484885Y-67216918D02*
X32484885Y-66359775D01*
X31699171Y-66359775D02*
X33199171Y-66359775D01*
X33199171Y-65359774D02*
X33199171Y-65074060D01*
X33199171Y-65074060D02*
X33127742Y-64931203D01*
X33127742Y-64931203D02*
X32984885Y-64788346D01*
X32984885Y-64788346D02*
X32699171Y-64716917D01*
X32699171Y-64716917D02*
X32199171Y-64716917D01*
X32199171Y-64716917D02*
X31913457Y-64788346D01*
X31913457Y-64788346D02*
X31770600Y-64931203D01*
X31770600Y-64931203D02*
X31699171Y-65074060D01*
X31699171Y-65074060D02*
X31699171Y-65359774D01*
X31699171Y-65359774D02*
X31770600Y-65502632D01*
X31770600Y-65502632D02*
X31913457Y-65645489D01*
X31913457Y-65645489D02*
X32199171Y-65716917D01*
X32199171Y-65716917D02*
X32699171Y-65716917D01*
X32699171Y-65716917D02*
X32984885Y-65645489D01*
X32984885Y-65645489D02*
X33127742Y-65502632D01*
X33127742Y-65502632D02*
X33199171Y-65359774D01*
X31699171Y-63216917D02*
X32413457Y-63716917D01*
X31699171Y-64074060D02*
X33199171Y-64074060D01*
X33199171Y-64074060D02*
X33199171Y-63502631D01*
X33199171Y-63502631D02*
X33127742Y-63359774D01*
X33127742Y-63359774D02*
X33056314Y-63288345D01*
X33056314Y-63288345D02*
X32913457Y-63216917D01*
X32913457Y-63216917D02*
X32699171Y-63216917D01*
X32699171Y-63216917D02*
X32556314Y-63288345D01*
X32556314Y-63288345D02*
X32484885Y-63359774D01*
X32484885Y-63359774D02*
X32413457Y-63502631D01*
X32413457Y-63502631D02*
X32413457Y-64074060D01*
X33199171Y-62788345D02*
X33199171Y-61931203D01*
X31699171Y-62359774D02*
X33199171Y-62359774D01*
X33056314Y-60359774D02*
X33127742Y-60288346D01*
X33127742Y-60288346D02*
X33199171Y-60145489D01*
X33199171Y-60145489D02*
X33199171Y-59788346D01*
X33199171Y-59788346D02*
X33127742Y-59645489D01*
X33127742Y-59645489D02*
X33056314Y-59574060D01*
X33056314Y-59574060D02*
X32913457Y-59502631D01*
X32913457Y-59502631D02*
X32770600Y-59502631D01*
X32770600Y-59502631D02*
X32556314Y-59574060D01*
X32556314Y-59574060D02*
X31699171Y-60431203D01*
X31699171Y-60431203D02*
X31699171Y-59502631D01*
X32270600Y-58859775D02*
X32270600Y-57716918D01*
X33199171Y-57145489D02*
X33199171Y-56216917D01*
X33199171Y-56216917D02*
X32627742Y-56716917D01*
X32627742Y-56716917D02*
X32627742Y-56502632D01*
X32627742Y-56502632D02*
X32556314Y-56359775D01*
X32556314Y-56359775D02*
X32484885Y-56288346D01*
X32484885Y-56288346D02*
X32342028Y-56216917D01*
X32342028Y-56216917D02*
X31984885Y-56216917D01*
X31984885Y-56216917D02*
X31842028Y-56288346D01*
X31842028Y-56288346D02*
X31770600Y-56359775D01*
X31770600Y-56359775D02*
X31699171Y-56502632D01*
X31699171Y-56502632D02*
X31699171Y-56931203D01*
X31699171Y-56931203D02*
X31770600Y-57074060D01*
X31770600Y-57074060D02*
X31842028Y-57145489D01*
D11*
X77545050Y-77898904D02*
X77068860Y-77898904D01*
X77640288Y-78184619D02*
X77306955Y-77184619D01*
X77306955Y-77184619D02*
X76973622Y-78184619D01*
X76164098Y-78184619D02*
X76640288Y-78184619D01*
X76640288Y-78184619D02*
X76640288Y-77184619D01*
X75830764Y-78184619D02*
X75830764Y-77184619D01*
X75830764Y-77184619D02*
X75449812Y-77184619D01*
X75449812Y-77184619D02*
X75354574Y-77232238D01*
X75354574Y-77232238D02*
X75306955Y-77279857D01*
X75306955Y-77279857D02*
X75259336Y-77375095D01*
X75259336Y-77375095D02*
X75259336Y-77517952D01*
X75259336Y-77517952D02*
X75306955Y-77613190D01*
X75306955Y-77613190D02*
X75354574Y-77660809D01*
X75354574Y-77660809D02*
X75449812Y-77708428D01*
X75449812Y-77708428D02*
X75830764Y-77708428D01*
X74878383Y-77898904D02*
X74402193Y-77898904D01*
X74973621Y-78184619D02*
X74640288Y-77184619D01*
X74640288Y-77184619D02*
X74306955Y-78184619D01*
X73973621Y-78184619D02*
X73973621Y-77184619D01*
X73402193Y-78184619D02*
X73830764Y-77613190D01*
X73402193Y-77184619D02*
X73973621Y-77756047D01*
X72973621Y-78184619D02*
X72973621Y-77184619D01*
X72402193Y-78184619D02*
X72830764Y-77613190D01*
X72402193Y-77184619D02*
X72973621Y-77756047D01*
X72021240Y-77898904D02*
X71545050Y-77898904D01*
X72116478Y-78184619D02*
X71783145Y-77184619D01*
X71783145Y-77184619D02*
X71449812Y-78184619D01*
X70783145Y-77660809D02*
X70640288Y-77708428D01*
X70640288Y-77708428D02*
X70592669Y-77756047D01*
X70592669Y-77756047D02*
X70545050Y-77851285D01*
X70545050Y-77851285D02*
X70545050Y-77994142D01*
X70545050Y-77994142D02*
X70592669Y-78089380D01*
X70592669Y-78089380D02*
X70640288Y-78137000D01*
X70640288Y-78137000D02*
X70735526Y-78184619D01*
X70735526Y-78184619D02*
X71116478Y-78184619D01*
X71116478Y-78184619D02*
X71116478Y-77184619D01*
X71116478Y-77184619D02*
X70783145Y-77184619D01*
X70783145Y-77184619D02*
X70687907Y-77232238D01*
X70687907Y-77232238D02*
X70640288Y-77279857D01*
X70640288Y-77279857D02*
X70592669Y-77375095D01*
X70592669Y-77375095D02*
X70592669Y-77470333D01*
X70592669Y-77470333D02*
X70640288Y-77565571D01*
X70640288Y-77565571D02*
X70687907Y-77613190D01*
X70687907Y-77613190D02*
X70783145Y-77660809D01*
X70783145Y-77660809D02*
X71116478Y-77660809D01*
X70164097Y-77898904D02*
X69687907Y-77898904D01*
X70259335Y-78184619D02*
X69926002Y-77184619D01*
X69926002Y-77184619D02*
X69592669Y-78184619D01*
X69259335Y-78184619D02*
X69259335Y-77184619D01*
X69259335Y-77184619D02*
X69021240Y-77184619D01*
X69021240Y-77184619D02*
X68878383Y-77232238D01*
X68878383Y-77232238D02*
X68783145Y-77327476D01*
X68783145Y-77327476D02*
X68735526Y-77422714D01*
X68735526Y-77422714D02*
X68687907Y-77613190D01*
X68687907Y-77613190D02*
X68687907Y-77756047D01*
X68687907Y-77756047D02*
X68735526Y-77946523D01*
X68735526Y-77946523D02*
X68783145Y-78041761D01*
X68783145Y-78041761D02*
X68878383Y-78137000D01*
X68878383Y-78137000D02*
X69021240Y-78184619D01*
X69021240Y-78184619D02*
X69259335Y-78184619D01*
X67735526Y-77232238D02*
X67830764Y-77184619D01*
X67830764Y-77184619D02*
X67973621Y-77184619D01*
X67973621Y-77184619D02*
X68116478Y-77232238D01*
X68116478Y-77232238D02*
X68211716Y-77327476D01*
X68211716Y-77327476D02*
X68259335Y-77422714D01*
X68259335Y-77422714D02*
X68306954Y-77613190D01*
X68306954Y-77613190D02*
X68306954Y-77756047D01*
X68306954Y-77756047D02*
X68259335Y-77946523D01*
X68259335Y-77946523D02*
X68211716Y-78041761D01*
X68211716Y-78041761D02*
X68116478Y-78137000D01*
X68116478Y-78137000D02*
X67973621Y-78184619D01*
X67973621Y-78184619D02*
X67878383Y-78184619D01*
X67878383Y-78184619D02*
X67735526Y-78137000D01*
X67735526Y-78137000D02*
X67687907Y-78089380D01*
X67687907Y-78089380D02*
X67687907Y-77756047D01*
X67687907Y-77756047D02*
X67878383Y-77756047D01*
X67259335Y-77660809D02*
X66926002Y-77660809D01*
X66783145Y-78184619D02*
X67259335Y-78184619D01*
X67259335Y-78184619D02*
X67259335Y-77184619D01*
X67259335Y-77184619D02*
X66783145Y-77184619D01*
X65735525Y-77184619D02*
X65402192Y-78184619D01*
X65402192Y-78184619D02*
X65068859Y-77184619D01*
X64306954Y-77184619D02*
X64497430Y-77184619D01*
X64497430Y-77184619D02*
X64592668Y-77232238D01*
X64592668Y-77232238D02*
X64640287Y-77279857D01*
X64640287Y-77279857D02*
X64735525Y-77422714D01*
X64735525Y-77422714D02*
X64783144Y-77613190D01*
X64783144Y-77613190D02*
X64783144Y-77994142D01*
X64783144Y-77994142D02*
X64735525Y-78089380D01*
X64735525Y-78089380D02*
X64687906Y-78137000D01*
X64687906Y-78137000D02*
X64592668Y-78184619D01*
X64592668Y-78184619D02*
X64402192Y-78184619D01*
X64402192Y-78184619D02*
X64306954Y-78137000D01*
X64306954Y-78137000D02*
X64259335Y-78089380D01*
X64259335Y-78089380D02*
X64211716Y-77994142D01*
X64211716Y-77994142D02*
X64211716Y-77756047D01*
X64211716Y-77756047D02*
X64259335Y-77660809D01*
X64259335Y-77660809D02*
X64306954Y-77613190D01*
X64306954Y-77613190D02*
X64402192Y-77565571D01*
X64402192Y-77565571D02*
X64592668Y-77565571D01*
X64592668Y-77565571D02*
X64687906Y-77613190D01*
X64687906Y-77613190D02*
X64735525Y-77660809D01*
X64735525Y-77660809D02*
X64783144Y-77756047D01*
X77545050Y-78889857D02*
X77497431Y-78842238D01*
X77497431Y-78842238D02*
X77402193Y-78794619D01*
X77402193Y-78794619D02*
X77164098Y-78794619D01*
X77164098Y-78794619D02*
X77068860Y-78842238D01*
X77068860Y-78842238D02*
X77021241Y-78889857D01*
X77021241Y-78889857D02*
X76973622Y-78985095D01*
X76973622Y-78985095D02*
X76973622Y-79080333D01*
X76973622Y-79080333D02*
X77021241Y-79223190D01*
X77021241Y-79223190D02*
X77592669Y-79794619D01*
X77592669Y-79794619D02*
X76973622Y-79794619D01*
X76354574Y-78794619D02*
X76259336Y-78794619D01*
X76259336Y-78794619D02*
X76164098Y-78842238D01*
X76164098Y-78842238D02*
X76116479Y-78889857D01*
X76116479Y-78889857D02*
X76068860Y-78985095D01*
X76068860Y-78985095D02*
X76021241Y-79175571D01*
X76021241Y-79175571D02*
X76021241Y-79413666D01*
X76021241Y-79413666D02*
X76068860Y-79604142D01*
X76068860Y-79604142D02*
X76116479Y-79699380D01*
X76116479Y-79699380D02*
X76164098Y-79747000D01*
X76164098Y-79747000D02*
X76259336Y-79794619D01*
X76259336Y-79794619D02*
X76354574Y-79794619D01*
X76354574Y-79794619D02*
X76449812Y-79747000D01*
X76449812Y-79747000D02*
X76497431Y-79699380D01*
X76497431Y-79699380D02*
X76545050Y-79604142D01*
X76545050Y-79604142D02*
X76592669Y-79413666D01*
X76592669Y-79413666D02*
X76592669Y-79175571D01*
X76592669Y-79175571D02*
X76545050Y-78985095D01*
X76545050Y-78985095D02*
X76497431Y-78889857D01*
X76497431Y-78889857D02*
X76449812Y-78842238D01*
X76449812Y-78842238D02*
X76354574Y-78794619D01*
X75640288Y-78889857D02*
X75592669Y-78842238D01*
X75592669Y-78842238D02*
X75497431Y-78794619D01*
X75497431Y-78794619D02*
X75259336Y-78794619D01*
X75259336Y-78794619D02*
X75164098Y-78842238D01*
X75164098Y-78842238D02*
X75116479Y-78889857D01*
X75116479Y-78889857D02*
X75068860Y-78985095D01*
X75068860Y-78985095D02*
X75068860Y-79080333D01*
X75068860Y-79080333D02*
X75116479Y-79223190D01*
X75116479Y-79223190D02*
X75687907Y-79794619D01*
X75687907Y-79794619D02*
X75068860Y-79794619D01*
X74211717Y-79127952D02*
X74211717Y-79794619D01*
X74449812Y-78747000D02*
X74687907Y-79461285D01*
X74687907Y-79461285D02*
X74068860Y-79461285D01*
X77164098Y-82490809D02*
X77021241Y-82538428D01*
X77021241Y-82538428D02*
X76973622Y-82586047D01*
X76973622Y-82586047D02*
X76926003Y-82681285D01*
X76926003Y-82681285D02*
X76926003Y-82824142D01*
X76926003Y-82824142D02*
X76973622Y-82919380D01*
X76973622Y-82919380D02*
X77021241Y-82967000D01*
X77021241Y-82967000D02*
X77116479Y-83014619D01*
X77116479Y-83014619D02*
X77497431Y-83014619D01*
X77497431Y-83014619D02*
X77497431Y-82014619D01*
X77497431Y-82014619D02*
X77164098Y-82014619D01*
X77164098Y-82014619D02*
X77068860Y-82062238D01*
X77068860Y-82062238D02*
X77021241Y-82109857D01*
X77021241Y-82109857D02*
X76973622Y-82205095D01*
X76973622Y-82205095D02*
X76973622Y-82300333D01*
X76973622Y-82300333D02*
X77021241Y-82395571D01*
X77021241Y-82395571D02*
X77068860Y-82443190D01*
X77068860Y-82443190D02*
X77164098Y-82490809D01*
X77164098Y-82490809D02*
X77497431Y-82490809D01*
X76545050Y-82728904D02*
X76068860Y-82728904D01*
X76640288Y-83014619D02*
X76306955Y-82014619D01*
X76306955Y-82014619D02*
X75973622Y-83014619D01*
X75640288Y-83014619D02*
X75640288Y-82014619D01*
X75640288Y-82014619D02*
X75402193Y-82014619D01*
X75402193Y-82014619D02*
X75259336Y-82062238D01*
X75259336Y-82062238D02*
X75164098Y-82157476D01*
X75164098Y-82157476D02*
X75116479Y-82252714D01*
X75116479Y-82252714D02*
X75068860Y-82443190D01*
X75068860Y-82443190D02*
X75068860Y-82586047D01*
X75068860Y-82586047D02*
X75116479Y-82776523D01*
X75116479Y-82776523D02*
X75164098Y-82871761D01*
X75164098Y-82871761D02*
X75259336Y-82967000D01*
X75259336Y-82967000D02*
X75402193Y-83014619D01*
X75402193Y-83014619D02*
X75640288Y-83014619D01*
X74116479Y-82062238D02*
X74211717Y-82014619D01*
X74211717Y-82014619D02*
X74354574Y-82014619D01*
X74354574Y-82014619D02*
X74497431Y-82062238D01*
X74497431Y-82062238D02*
X74592669Y-82157476D01*
X74592669Y-82157476D02*
X74640288Y-82252714D01*
X74640288Y-82252714D02*
X74687907Y-82443190D01*
X74687907Y-82443190D02*
X74687907Y-82586047D01*
X74687907Y-82586047D02*
X74640288Y-82776523D01*
X74640288Y-82776523D02*
X74592669Y-82871761D01*
X74592669Y-82871761D02*
X74497431Y-82967000D01*
X74497431Y-82967000D02*
X74354574Y-83014619D01*
X74354574Y-83014619D02*
X74259336Y-83014619D01*
X74259336Y-83014619D02*
X74116479Y-82967000D01*
X74116479Y-82967000D02*
X74068860Y-82919380D01*
X74068860Y-82919380D02*
X74068860Y-82586047D01*
X74068860Y-82586047D02*
X74259336Y-82586047D01*
X73640288Y-82490809D02*
X73306955Y-82490809D01*
X73164098Y-83014619D02*
X73640288Y-83014619D01*
X73640288Y-83014619D02*
X73640288Y-82014619D01*
X73640288Y-82014619D02*
X73164098Y-82014619D01*
X72735526Y-82919380D02*
X72687907Y-82967000D01*
X72687907Y-82967000D02*
X72735526Y-83014619D01*
X72735526Y-83014619D02*
X72783145Y-82967000D01*
X72783145Y-82967000D02*
X72735526Y-82919380D01*
X72735526Y-82919380D02*
X72735526Y-83014619D01*
X72735526Y-82395571D02*
X72687907Y-82443190D01*
X72687907Y-82443190D02*
X72735526Y-82490809D01*
X72735526Y-82490809D02*
X72783145Y-82443190D01*
X72783145Y-82443190D02*
X72735526Y-82395571D01*
X72735526Y-82395571D02*
X72735526Y-82490809D01*
X77497431Y-84624619D02*
X77497431Y-83624619D01*
X77497431Y-84100809D02*
X76926003Y-84100809D01*
X76926003Y-84624619D02*
X76926003Y-83624619D01*
X76449812Y-84100809D02*
X76116479Y-84100809D01*
X75973622Y-84624619D02*
X76449812Y-84624619D01*
X76449812Y-84624619D02*
X76449812Y-83624619D01*
X76449812Y-83624619D02*
X75973622Y-83624619D01*
X75545050Y-84624619D02*
X75545050Y-83624619D01*
X75068860Y-84624619D02*
X75068860Y-83624619D01*
X74497432Y-84624619D02*
X74926003Y-84053190D01*
X74497432Y-83624619D02*
X75068860Y-84196047D01*
X74068860Y-84624619D02*
X74068860Y-83624619D01*
X73497432Y-84624619D02*
X73926003Y-84053190D01*
X73497432Y-83624619D02*
X74068860Y-84196047D01*
X73068860Y-84624619D02*
X73068860Y-83624619D01*
X71783146Y-83624619D02*
X71878384Y-83815095D01*
X71449813Y-83957952D02*
X70926004Y-83957952D01*
X70926004Y-83957952D02*
X71449813Y-84624619D01*
X71449813Y-84624619D02*
X70926004Y-84624619D01*
X70402194Y-84624619D02*
X70497432Y-84577000D01*
X70497432Y-84577000D02*
X70545051Y-84529380D01*
X70545051Y-84529380D02*
X70592670Y-84434142D01*
X70592670Y-84434142D02*
X70592670Y-84148428D01*
X70592670Y-84148428D02*
X70545051Y-84053190D01*
X70545051Y-84053190D02*
X70497432Y-84005571D01*
X70497432Y-84005571D02*
X70402194Y-83957952D01*
X70402194Y-83957952D02*
X70259337Y-83957952D01*
X70259337Y-83957952D02*
X70164099Y-84005571D01*
X70164099Y-84005571D02*
X70116480Y-84053190D01*
X70116480Y-84053190D02*
X70068861Y-84148428D01*
X70068861Y-84148428D02*
X70068861Y-84434142D01*
X70068861Y-84434142D02*
X70116480Y-84529380D01*
X70116480Y-84529380D02*
X70164099Y-84577000D01*
X70164099Y-84577000D02*
X70259337Y-84624619D01*
X70259337Y-84624619D02*
X70402194Y-84624619D01*
X69640289Y-84624619D02*
X69640289Y-83624619D01*
X69545051Y-84243666D02*
X69259337Y-84624619D01*
X69259337Y-83957952D02*
X69640289Y-84338904D01*
X68687908Y-84624619D02*
X68783146Y-84577000D01*
X68783146Y-84577000D02*
X68830765Y-84529380D01*
X68830765Y-84529380D02*
X68878384Y-84434142D01*
X68878384Y-84434142D02*
X68878384Y-84148428D01*
X68878384Y-84148428D02*
X68830765Y-84053190D01*
X68830765Y-84053190D02*
X68783146Y-84005571D01*
X68783146Y-84005571D02*
X68687908Y-83957952D01*
X68687908Y-83957952D02*
X68545051Y-83957952D01*
X68545051Y-83957952D02*
X68449813Y-84005571D01*
X68449813Y-84005571D02*
X68402194Y-84053190D01*
X68402194Y-84053190D02*
X68354575Y-84148428D01*
X68354575Y-84148428D02*
X68354575Y-84434142D01*
X68354575Y-84434142D02*
X68402194Y-84529380D01*
X68402194Y-84529380D02*
X68449813Y-84577000D01*
X68449813Y-84577000D02*
X68545051Y-84624619D01*
X68545051Y-84624619D02*
X68687908Y-84624619D01*
X67783146Y-84624619D02*
X67878384Y-84577000D01*
X67878384Y-84577000D02*
X67926003Y-84481761D01*
X67926003Y-84481761D02*
X67926003Y-83624619D01*
X67354574Y-83624619D02*
X67449812Y-83815095D01*
X65878384Y-83624619D02*
X65878384Y-84338904D01*
X65878384Y-84338904D02*
X65926003Y-84481761D01*
X65926003Y-84481761D02*
X66021241Y-84577000D01*
X66021241Y-84577000D02*
X66164098Y-84624619D01*
X66164098Y-84624619D02*
X66259336Y-84624619D01*
X65402193Y-83624619D02*
X65402193Y-84434142D01*
X65402193Y-84434142D02*
X65354574Y-84529380D01*
X65354574Y-84529380D02*
X65306955Y-84577000D01*
X65306955Y-84577000D02*
X65211717Y-84624619D01*
X65211717Y-84624619D02*
X65021241Y-84624619D01*
X65021241Y-84624619D02*
X64926003Y-84577000D01*
X64926003Y-84577000D02*
X64878384Y-84529380D01*
X64878384Y-84529380D02*
X64830765Y-84434142D01*
X64830765Y-84434142D02*
X64830765Y-83624619D01*
X64497431Y-83624619D02*
X64164098Y-84624619D01*
X64164098Y-84624619D02*
X63830765Y-83624619D01*
X63545050Y-84338904D02*
X63068860Y-84338904D01*
X63640288Y-84624619D02*
X63306955Y-83624619D01*
X63306955Y-83624619D02*
X62973622Y-84624619D01*
X77545050Y-87558904D02*
X77068860Y-87558904D01*
X77640288Y-87844619D02*
X77306955Y-86844619D01*
X77306955Y-86844619D02*
X76973622Y-87844619D01*
X76068860Y-87844619D02*
X76402193Y-87368428D01*
X76640288Y-87844619D02*
X76640288Y-86844619D01*
X76640288Y-86844619D02*
X76259336Y-86844619D01*
X76259336Y-86844619D02*
X76164098Y-86892238D01*
X76164098Y-86892238D02*
X76116479Y-86939857D01*
X76116479Y-86939857D02*
X76068860Y-87035095D01*
X76068860Y-87035095D02*
X76068860Y-87177952D01*
X76068860Y-87177952D02*
X76116479Y-87273190D01*
X76116479Y-87273190D02*
X76164098Y-87320809D01*
X76164098Y-87320809D02*
X76259336Y-87368428D01*
X76259336Y-87368428D02*
X76640288Y-87368428D01*
X75783145Y-86844619D02*
X75211717Y-86844619D01*
X75497431Y-87844619D02*
X75497431Y-86844619D01*
X74878383Y-87749380D02*
X74830764Y-87797000D01*
X74830764Y-87797000D02*
X74878383Y-87844619D01*
X74878383Y-87844619D02*
X74926002Y-87797000D01*
X74926002Y-87797000D02*
X74878383Y-87749380D01*
X74878383Y-87749380D02*
X74878383Y-87844619D01*
X74878383Y-87225571D02*
X74830764Y-87273190D01*
X74830764Y-87273190D02*
X74878383Y-87320809D01*
X74878383Y-87320809D02*
X74926002Y-87273190D01*
X74926002Y-87273190D02*
X74878383Y-87225571D01*
X74878383Y-87225571D02*
X74878383Y-87320809D01*
X73640288Y-87844619D02*
X73640288Y-86844619D01*
X73640288Y-86844619D02*
X73402193Y-86844619D01*
X73402193Y-86844619D02*
X73259336Y-86892238D01*
X73259336Y-86892238D02*
X73164098Y-86987476D01*
X73164098Y-86987476D02*
X73116479Y-87082714D01*
X73116479Y-87082714D02*
X73068860Y-87273190D01*
X73068860Y-87273190D02*
X73068860Y-87416047D01*
X73068860Y-87416047D02*
X73116479Y-87606523D01*
X73116479Y-87606523D02*
X73164098Y-87701761D01*
X73164098Y-87701761D02*
X73259336Y-87797000D01*
X73259336Y-87797000D02*
X73402193Y-87844619D01*
X73402193Y-87844619D02*
X73640288Y-87844619D01*
X72640288Y-87844619D02*
X72640288Y-86844619D01*
X72211717Y-87797000D02*
X72068860Y-87844619D01*
X72068860Y-87844619D02*
X71830765Y-87844619D01*
X71830765Y-87844619D02*
X71735527Y-87797000D01*
X71735527Y-87797000D02*
X71687908Y-87749380D01*
X71687908Y-87749380D02*
X71640289Y-87654142D01*
X71640289Y-87654142D02*
X71640289Y-87558904D01*
X71640289Y-87558904D02*
X71687908Y-87463666D01*
X71687908Y-87463666D02*
X71735527Y-87416047D01*
X71735527Y-87416047D02*
X71830765Y-87368428D01*
X71830765Y-87368428D02*
X72021241Y-87320809D01*
X72021241Y-87320809D02*
X72116479Y-87273190D01*
X72116479Y-87273190D02*
X72164098Y-87225571D01*
X72164098Y-87225571D02*
X72211717Y-87130333D01*
X72211717Y-87130333D02*
X72211717Y-87035095D01*
X72211717Y-87035095D02*
X72164098Y-86939857D01*
X72164098Y-86939857D02*
X72116479Y-86892238D01*
X72116479Y-86892238D02*
X72021241Y-86844619D01*
X72021241Y-86844619D02*
X71783146Y-86844619D01*
X71783146Y-86844619D02*
X71640289Y-86892238D01*
X71354574Y-86844619D02*
X70783146Y-86844619D01*
X71068860Y-87844619D02*
X71068860Y-86844619D01*
X77497431Y-91064619D02*
X77497431Y-90064619D01*
X77497431Y-90064619D02*
X77116479Y-90064619D01*
X77116479Y-90064619D02*
X77021241Y-90112238D01*
X77021241Y-90112238D02*
X76973622Y-90159857D01*
X76973622Y-90159857D02*
X76926003Y-90255095D01*
X76926003Y-90255095D02*
X76926003Y-90397952D01*
X76926003Y-90397952D02*
X76973622Y-90493190D01*
X76973622Y-90493190D02*
X77021241Y-90540809D01*
X77021241Y-90540809D02*
X77116479Y-90588428D01*
X77116479Y-90588428D02*
X77497431Y-90588428D01*
X76497431Y-90064619D02*
X76497431Y-90874142D01*
X76497431Y-90874142D02*
X76449812Y-90969380D01*
X76449812Y-90969380D02*
X76402193Y-91017000D01*
X76402193Y-91017000D02*
X76306955Y-91064619D01*
X76306955Y-91064619D02*
X76116479Y-91064619D01*
X76116479Y-91064619D02*
X76021241Y-91017000D01*
X76021241Y-91017000D02*
X75973622Y-90969380D01*
X75973622Y-90969380D02*
X75926003Y-90874142D01*
X75926003Y-90874142D02*
X75926003Y-90064619D01*
X75545050Y-90064619D02*
X74878384Y-90064619D01*
X74878384Y-90064619D02*
X75545050Y-91064619D01*
X75545050Y-91064619D02*
X74878384Y-91064619D01*
X74592669Y-90064619D02*
X73926003Y-90064619D01*
X73926003Y-90064619D02*
X74592669Y-91064619D01*
X74592669Y-91064619D02*
X73926003Y-91064619D01*
X73068860Y-91064619D02*
X73545050Y-91064619D01*
X73545050Y-91064619D02*
X73545050Y-90064619D01*
X72735526Y-90540809D02*
X72402193Y-90540809D01*
X72259336Y-91064619D02*
X72735526Y-91064619D01*
X72735526Y-91064619D02*
X72735526Y-90064619D01*
X72735526Y-90064619D02*
X72259336Y-90064619D01*
X71830764Y-90969380D02*
X71783145Y-91017000D01*
X71783145Y-91017000D02*
X71830764Y-91064619D01*
X71830764Y-91064619D02*
X71878383Y-91017000D01*
X71878383Y-91017000D02*
X71830764Y-90969380D01*
X71830764Y-90969380D02*
X71830764Y-91064619D01*
X71830764Y-90445571D02*
X71783145Y-90493190D01*
X71783145Y-90493190D02*
X71830764Y-90540809D01*
X71830764Y-90540809D02*
X71878383Y-90493190D01*
X71878383Y-90493190D02*
X71830764Y-90445571D01*
X71830764Y-90445571D02*
X71830764Y-90540809D01*
X70306955Y-90064619D02*
X70306955Y-90778904D01*
X70306955Y-90778904D02*
X70354574Y-90921761D01*
X70354574Y-90921761D02*
X70449812Y-91017000D01*
X70449812Y-91017000D02*
X70592669Y-91064619D01*
X70592669Y-91064619D02*
X70687907Y-91064619D01*
X69830764Y-90064619D02*
X69830764Y-90874142D01*
X69830764Y-90874142D02*
X69783145Y-90969380D01*
X69783145Y-90969380D02*
X69735526Y-91017000D01*
X69735526Y-91017000D02*
X69640288Y-91064619D01*
X69640288Y-91064619D02*
X69449812Y-91064619D01*
X69449812Y-91064619D02*
X69354574Y-91017000D01*
X69354574Y-91017000D02*
X69306955Y-90969380D01*
X69306955Y-90969380D02*
X69259336Y-90874142D01*
X69259336Y-90874142D02*
X69259336Y-90064619D01*
X68783145Y-91064619D02*
X68783145Y-90064619D01*
X68783145Y-90540809D02*
X68211717Y-90540809D01*
X68211717Y-91064619D02*
X68211717Y-90064619D01*
X67545050Y-90064619D02*
X67354574Y-90064619D01*
X67354574Y-90064619D02*
X67259336Y-90112238D01*
X67259336Y-90112238D02*
X67164098Y-90207476D01*
X67164098Y-90207476D02*
X67116479Y-90397952D01*
X67116479Y-90397952D02*
X67116479Y-90731285D01*
X67116479Y-90731285D02*
X67164098Y-90921761D01*
X67164098Y-90921761D02*
X67259336Y-91017000D01*
X67259336Y-91017000D02*
X67354574Y-91064619D01*
X67354574Y-91064619D02*
X67545050Y-91064619D01*
X67545050Y-91064619D02*
X67640288Y-91017000D01*
X67640288Y-91017000D02*
X67735526Y-90921761D01*
X67735526Y-90921761D02*
X67783145Y-90731285D01*
X67783145Y-90731285D02*
X67783145Y-90397952D01*
X67783145Y-90397952D02*
X67735526Y-90207476D01*
X67735526Y-90207476D02*
X67640288Y-90112238D01*
X67640288Y-90112238D02*
X67545050Y-90064619D01*
%TO.C,D2*%
D12*
X24050000Y-45400000D02*
G75*
G03*
X24050000Y-45400000I-825000J0D01*
G01*
%TO.C,D1*%
X45050000Y-45400000D02*
G75*
G03*
X45050000Y-45400000I-825000J0D01*
G01*
%TO.C,D3*%
X36065956Y-78769671D02*
G75*
G03*
X36065956Y-78769671I-825000J0D01*
G01*
%TD*%
D13*
%TO.C,JP1*%
X34800000Y-44000000D03*
X34800000Y-42700000D03*
X34800000Y-41400000D03*
%TD*%
D14*
%TO.C,J2*%
X73500000Y-94700000D03*
%TD*%
%TO.C,J1*%
X73600000Y-107500000D03*
%TD*%
D15*
%TO.C,R3*%
X20260000Y-53840000D03*
X20260000Y-55490000D03*
%TD*%
D16*
%TO.C,R15*%
X60625000Y-98480000D03*
X58975000Y-98480000D03*
%TD*%
%TO.C,R7*%
X60600000Y-96130000D03*
X58950000Y-96130000D03*
%TD*%
D15*
%TO.C,R6*%
X45000000Y-53850000D03*
X45000000Y-55500000D03*
%TD*%
D16*
%TO.C,R9*%
X25090000Y-80190000D03*
X23440000Y-80190000D03*
%TD*%
D17*
%TO.C,R2*%
X24000000Y-39000000D03*
X25650000Y-39000000D03*
%TD*%
%TO.C,R10*%
X45150000Y-80860000D03*
X46800000Y-80860000D03*
%TD*%
D18*
%TO.C,U1*%
X64484905Y-101009185D03*
X64484905Y-98469185D03*
X64484905Y-95929185D03*
D19*
X15554905Y-108259185D03*
X18094905Y-108259185D03*
X20634905Y-108259185D03*
X23174905Y-108259185D03*
X25714905Y-108259185D03*
X28254905Y-108259185D03*
X30794905Y-108259185D03*
X33334905Y-108259185D03*
X35874905Y-108259185D03*
X38414905Y-108259185D03*
X40954905Y-108259185D03*
X43494905Y-108259185D03*
X46034905Y-108259185D03*
X48574905Y-108259185D03*
X51114905Y-108259185D03*
X53654905Y-108259185D03*
X56194905Y-108259185D03*
X58734905Y-108259185D03*
X61274905Y-108259185D03*
X63814905Y-108259185D03*
X63814905Y-88679185D03*
X61274905Y-88679185D03*
X58734905Y-88679185D03*
X56194905Y-88679185D03*
X53654905Y-88679185D03*
X51114905Y-88679185D03*
X48574905Y-88679185D03*
X46034905Y-88679185D03*
X43494905Y-88679185D03*
X40954905Y-88679185D03*
X38414905Y-88679185D03*
X35874905Y-88679185D03*
X33334905Y-88679185D03*
X30794905Y-88679185D03*
X28254905Y-88679185D03*
X25714905Y-88679185D03*
X23174905Y-88679185D03*
X20634905Y-88679185D03*
X18094905Y-88679185D03*
X15554905Y-88679185D03*
%TD*%
D20*
%TO.C,D2*%
X22500000Y-48000000D03*
X22500000Y-42800000D03*
X23950000Y-42800000D03*
X23950000Y-48000000D03*
%TD*%
%TO.C,D1*%
X43500000Y-48000000D03*
X43500000Y-42800000D03*
X44950000Y-42800000D03*
X44950000Y-48000000D03*
%TD*%
D21*
%TO.C,D3*%
X32640956Y-78044671D03*
X37840956Y-78044671D03*
X37840956Y-79494671D03*
X32640956Y-79494671D03*
%TD*%
D15*
%TO.C,R11*%
X25560000Y-81790000D03*
X25560000Y-83440000D03*
%TD*%
D16*
%TO.C,R8*%
X60640000Y-100710000D03*
X58990000Y-100710000D03*
%TD*%
D17*
%TO.C,R5*%
X46500000Y-37500000D03*
X48150000Y-37500000D03*
%TD*%
D15*
%TO.C,R1*%
X18760000Y-53850000D03*
X18760000Y-55500000D03*
%TD*%
%TO.C,R4*%
X43500000Y-53850000D03*
X43500000Y-55500000D03*
%TD*%
D22*
%TO.C,BT1*%
X47260000Y-28733756D03*
X21660000Y-28733756D03*
D23*
X34460000Y-28733756D03*
%TD*%
M02*
