%TF.GenerationSoftware,KiCad,Pcbnew,7.0.9*%
%TF.CreationDate,2024-01-25T10:25:38+02:00*%
%TF.ProjectId,ncscfi-badge2024,6e637363-6669-42d6-9261-646765323032,rev?*%
%TF.SameCoordinates,Original*%
%TF.FileFunction,Legend,Top*%
%TF.FilePolarity,Positive*%
%FSLAX46Y46*%
G04 Gerber Fmt 4.6, Leading zero omitted, Abs format (unit mm)*
G04 Created by KiCad (PCBNEW 7.0.9) date 2024-01-25 10:25:38*
%MOMM*%
%LPD*%
G01*
G04 APERTURE LIST*
%ADD10C,0.150000*%
G04 APERTURE END LIST*
D10*
X42000000Y-51000000D02*
X51000000Y-51000000D01*
X51000000Y-52500000D01*
X52500000Y-52500000D01*
X52500000Y-57000000D01*
X51000000Y-57000000D01*
X51000000Y-61500000D01*
X52500000Y-61500000D01*
X52500000Y-64500000D01*
X54000000Y-64500000D01*
X54000000Y-66000000D01*
X52500000Y-66000000D01*
X52500000Y-67500000D01*
X51000000Y-67500000D01*
X51000000Y-72000000D01*
X52500000Y-72000000D01*
X52500000Y-76500000D01*
X51000000Y-76500000D01*
X51000000Y-78000000D01*
X52500000Y-78000000D01*
X52500000Y-79500000D01*
X54000000Y-79500000D01*
X54000000Y-81000000D01*
X55500000Y-81000000D01*
X55500000Y-82500000D01*
X54000000Y-82500000D01*
X54000000Y-84000000D01*
X58500000Y-84000000D01*
X58500000Y-82500000D01*
X60000000Y-82500000D01*
X60000000Y-79500000D01*
X61500000Y-79500000D01*
X61500000Y-78000000D01*
X63000000Y-78000000D01*
X63000000Y-76500000D01*
X64500000Y-76500000D01*
X64500000Y-73500000D01*
X72000000Y-73500000D01*
X72000000Y-75000000D01*
X78000000Y-75000000D01*
X78000000Y-97500000D01*
X36000000Y-97500000D01*
X36000000Y-87000000D01*
X37500000Y-87000000D01*
X37500000Y-85500000D01*
X39000000Y-85500000D01*
X39000000Y-84000000D01*
X40500000Y-84000000D01*
X40500000Y-82500000D01*
X42000000Y-82500000D01*
X42000000Y-81000000D01*
X43500000Y-81000000D01*
X43500000Y-73500000D01*
X42000000Y-73500000D01*
X42000000Y-72000000D01*
X36000000Y-72000000D01*
X36000000Y-73500000D01*
X34500000Y-73500000D01*
X34500000Y-58500000D01*
X39000000Y-58500000D01*
X39000000Y-57000000D01*
X42000000Y-57000000D01*
X42000000Y-55500000D01*
X39000000Y-55500000D01*
X39000000Y-57000000D01*
X36000000Y-57000000D01*
X36000000Y-52500000D01*
X37500000Y-52500000D01*
X37500000Y-51000000D01*
X39000000Y-51000000D01*
X39000000Y-49500000D01*
X42000000Y-49500000D01*
X42000000Y-51000000D01*
G36*
X42000000Y-51000000D02*
G01*
X51000000Y-51000000D01*
X51000000Y-52500000D01*
X52500000Y-52500000D01*
X52500000Y-57000000D01*
X51000000Y-57000000D01*
X51000000Y-61500000D01*
X52500000Y-61500000D01*
X52500000Y-64500000D01*
X54000000Y-64500000D01*
X54000000Y-66000000D01*
X52500000Y-66000000D01*
X52500000Y-67500000D01*
X51000000Y-67500000D01*
X51000000Y-72000000D01*
X52500000Y-72000000D01*
X52500000Y-76500000D01*
X51000000Y-76500000D01*
X51000000Y-78000000D01*
X52500000Y-78000000D01*
X52500000Y-79500000D01*
X54000000Y-79500000D01*
X54000000Y-81000000D01*
X55500000Y-81000000D01*
X55500000Y-82500000D01*
X54000000Y-82500000D01*
X54000000Y-84000000D01*
X58500000Y-84000000D01*
X58500000Y-82500000D01*
X60000000Y-82500000D01*
X60000000Y-79500000D01*
X61500000Y-79500000D01*
X61500000Y-78000000D01*
X63000000Y-78000000D01*
X63000000Y-76500000D01*
X64500000Y-76500000D01*
X64500000Y-73500000D01*
X72000000Y-73500000D01*
X72000000Y-75000000D01*
X78000000Y-75000000D01*
X78000000Y-97500000D01*
X36000000Y-97500000D01*
X36000000Y-87000000D01*
X37500000Y-87000000D01*
X37500000Y-85500000D01*
X39000000Y-85500000D01*
X39000000Y-84000000D01*
X40500000Y-84000000D01*
X40500000Y-82500000D01*
X42000000Y-82500000D01*
X42000000Y-81000000D01*
X43500000Y-81000000D01*
X43500000Y-73500000D01*
X42000000Y-73500000D01*
X42000000Y-72000000D01*
X36000000Y-72000000D01*
X36000000Y-73500000D01*
X34500000Y-73500000D01*
X34500000Y-58500000D01*
X39000000Y-58500000D01*
X39000000Y-57000000D01*
X42000000Y-57000000D01*
X42000000Y-55500000D01*
X39000000Y-55500000D01*
X39000000Y-57000000D01*
X36000000Y-57000000D01*
X36000000Y-52500000D01*
X37500000Y-52500000D01*
X37500000Y-51000000D01*
X39000000Y-51000000D01*
X39000000Y-49500000D01*
X42000000Y-49500000D01*
X42000000Y-51000000D01*
G37*
X28500000Y-28500000D02*
X33000000Y-28500000D01*
X33000000Y-27000000D01*
X37500000Y-27000000D01*
X37500000Y-28500000D01*
X39000000Y-28500000D01*
X39000000Y-30000000D01*
X40500000Y-30000000D01*
X40500000Y-27000000D01*
X42000000Y-27000000D01*
X42000000Y-31500000D01*
X43500000Y-31500000D01*
X43500000Y-33000000D01*
X49500000Y-33000000D01*
X49500000Y-34500000D01*
X51000000Y-34500000D01*
X51000000Y-37500000D01*
X19500000Y-37500000D01*
X19500000Y-39000000D01*
X18000000Y-39000000D01*
X18000000Y-34500000D01*
X19500000Y-34500000D01*
X19500000Y-33000000D01*
X21000000Y-33000000D01*
X21000000Y-31500000D01*
X22500000Y-31500000D01*
X22500000Y-33000000D01*
X25500000Y-33000000D01*
X25500000Y-31500000D01*
X27000000Y-31500000D01*
X27000000Y-25500000D01*
X28500000Y-25500000D01*
X28500000Y-28500000D01*
G36*
X28500000Y-28500000D02*
G01*
X33000000Y-28500000D01*
X33000000Y-27000000D01*
X37500000Y-27000000D01*
X37500000Y-28500000D01*
X39000000Y-28500000D01*
X39000000Y-30000000D01*
X40500000Y-30000000D01*
X40500000Y-27000000D01*
X42000000Y-27000000D01*
X42000000Y-31500000D01*
X43500000Y-31500000D01*
X43500000Y-33000000D01*
X49500000Y-33000000D01*
X49500000Y-34500000D01*
X51000000Y-34500000D01*
X51000000Y-37500000D01*
X19500000Y-37500000D01*
X19500000Y-39000000D01*
X18000000Y-39000000D01*
X18000000Y-34500000D01*
X19500000Y-34500000D01*
X19500000Y-33000000D01*
X21000000Y-33000000D01*
X21000000Y-31500000D01*
X22500000Y-31500000D01*
X22500000Y-33000000D01*
X25500000Y-33000000D01*
X25500000Y-31500000D01*
X27000000Y-31500000D01*
X27000000Y-25500000D01*
X28500000Y-25500000D01*
X28500000Y-28500000D01*
G37*
X46500000Y-21000000D02*
X48000000Y-21000000D01*
X48000000Y-30000000D01*
X46500000Y-30000000D01*
X46500000Y-31500000D01*
X45000000Y-31500000D01*
X45000000Y-30000000D01*
X43500000Y-30000000D01*
X43500000Y-25500000D01*
X45000000Y-25500000D01*
X45000000Y-18000000D01*
X46500000Y-18000000D01*
X46500000Y-21000000D01*
G36*
X46500000Y-21000000D02*
G01*
X48000000Y-21000000D01*
X48000000Y-30000000D01*
X46500000Y-30000000D01*
X46500000Y-31500000D01*
X45000000Y-31500000D01*
X45000000Y-30000000D01*
X43500000Y-30000000D01*
X43500000Y-25500000D01*
X45000000Y-25500000D01*
X45000000Y-18000000D01*
X46500000Y-18000000D01*
X46500000Y-21000000D01*
G37*
X27000000Y-40500000D02*
X28500000Y-40500000D01*
X28500000Y-43500000D01*
X27000000Y-43500000D01*
X27000000Y-42000000D01*
X25500000Y-42000000D01*
X25500000Y-40500000D01*
X22500000Y-40500000D01*
X22500000Y-39000000D01*
X27000000Y-39000000D01*
X27000000Y-40500000D01*
G36*
X27000000Y-40500000D02*
G01*
X28500000Y-40500000D01*
X28500000Y-43500000D01*
X27000000Y-43500000D01*
X27000000Y-42000000D01*
X25500000Y-42000000D01*
X25500000Y-40500000D01*
X22500000Y-40500000D01*
X22500000Y-39000000D01*
X27000000Y-39000000D01*
X27000000Y-40500000D01*
G37*
X48000000Y-40500000D02*
X49500000Y-40500000D01*
X49500000Y-42000000D01*
X51000000Y-42000000D01*
X51000000Y-45000000D01*
X49500000Y-45000000D01*
X49500000Y-43500000D01*
X48000000Y-43500000D01*
X48000000Y-42000000D01*
X46500000Y-42000000D01*
X46500000Y-40500000D01*
X45000000Y-40500000D01*
X45000000Y-39000000D01*
X48000000Y-39000000D01*
X48000000Y-40500000D01*
G36*
X48000000Y-40500000D02*
G01*
X49500000Y-40500000D01*
X49500000Y-42000000D01*
X51000000Y-42000000D01*
X51000000Y-45000000D01*
X49500000Y-45000000D01*
X49500000Y-43500000D01*
X48000000Y-43500000D01*
X48000000Y-42000000D01*
X46500000Y-42000000D01*
X46500000Y-40500000D01*
X45000000Y-40500000D01*
X45000000Y-39000000D01*
X48000000Y-39000000D01*
X48000000Y-40500000D01*
G37*
X19500000Y-51000000D02*
X27000000Y-51000000D01*
X27000000Y-49500000D01*
X30000000Y-49500000D01*
X30000000Y-51000000D01*
X31500000Y-51000000D01*
X31500000Y-52500000D01*
X33000000Y-52500000D01*
X33000000Y-57000000D01*
X30000000Y-57000000D01*
X30000000Y-55500000D01*
X27000000Y-55500000D01*
X27000000Y-57000000D01*
X30000000Y-57000000D01*
X30000000Y-58500000D01*
X34500000Y-58500000D01*
X34500000Y-72000000D01*
X28500000Y-72000000D01*
X28500000Y-73500000D01*
X27000000Y-73500000D01*
X27000000Y-81000000D01*
X28500000Y-81000000D01*
X28500000Y-82500000D01*
X30000000Y-82500000D01*
X30000000Y-84000000D01*
X31500000Y-84000000D01*
X31500000Y-85500000D01*
X33000000Y-85500000D01*
X33000000Y-87000000D01*
X36000000Y-87000000D01*
X36000000Y-97500000D01*
X16500000Y-97500000D01*
X16500000Y-96000000D01*
X18000000Y-96000000D01*
X18000000Y-93000000D01*
X16500000Y-93000000D01*
X16500000Y-90000000D01*
X19500000Y-90000000D01*
X19500000Y-87000000D01*
X18000000Y-87000000D01*
X18000000Y-84000000D01*
X19500000Y-84000000D01*
X19500000Y-82500000D01*
X21000000Y-82500000D01*
X21000000Y-79500000D01*
X19500000Y-79500000D01*
X19500000Y-75000000D01*
X18000000Y-75000000D01*
X18000000Y-73500000D01*
X19500000Y-73500000D01*
X19500000Y-72000000D01*
X21000000Y-72000000D01*
X21000000Y-67500000D01*
X18000000Y-67500000D01*
X18000000Y-63000000D01*
X19500000Y-63000000D01*
X19500000Y-60000000D01*
X18000000Y-60000000D01*
X18000000Y-52500000D01*
X19500000Y-52500000D01*
X19500000Y-51000000D01*
X18000000Y-51000000D01*
X18000000Y-49500000D01*
X19500000Y-49500000D01*
X19500000Y-51000000D01*
G36*
X19500000Y-51000000D02*
G01*
X27000000Y-51000000D01*
X27000000Y-49500000D01*
X30000000Y-49500000D01*
X30000000Y-51000000D01*
X31500000Y-51000000D01*
X31500000Y-52500000D01*
X33000000Y-52500000D01*
X33000000Y-57000000D01*
X30000000Y-57000000D01*
X30000000Y-55500000D01*
X27000000Y-55500000D01*
X27000000Y-57000000D01*
X30000000Y-57000000D01*
X30000000Y-58500000D01*
X34500000Y-58500000D01*
X34500000Y-72000000D01*
X28500000Y-72000000D01*
X28500000Y-73500000D01*
X27000000Y-73500000D01*
X27000000Y-81000000D01*
X28500000Y-81000000D01*
X28500000Y-82500000D01*
X30000000Y-82500000D01*
X30000000Y-84000000D01*
X31500000Y-84000000D01*
X31500000Y-85500000D01*
X33000000Y-85500000D01*
X33000000Y-87000000D01*
X36000000Y-87000000D01*
X36000000Y-97500000D01*
X16500000Y-97500000D01*
X16500000Y-96000000D01*
X18000000Y-96000000D01*
X18000000Y-93000000D01*
X16500000Y-93000000D01*
X16500000Y-90000000D01*
X19500000Y-90000000D01*
X19500000Y-87000000D01*
X18000000Y-87000000D01*
X18000000Y-84000000D01*
X19500000Y-84000000D01*
X19500000Y-82500000D01*
X21000000Y-82500000D01*
X21000000Y-79500000D01*
X19500000Y-79500000D01*
X19500000Y-75000000D01*
X18000000Y-75000000D01*
X18000000Y-73500000D01*
X19500000Y-73500000D01*
X19500000Y-72000000D01*
X21000000Y-72000000D01*
X21000000Y-67500000D01*
X18000000Y-67500000D01*
X18000000Y-63000000D01*
X19500000Y-63000000D01*
X19500000Y-60000000D01*
X18000000Y-60000000D01*
X18000000Y-52500000D01*
X19500000Y-52500000D01*
X19500000Y-51000000D01*
X18000000Y-51000000D01*
X18000000Y-49500000D01*
X19500000Y-49500000D01*
X19500000Y-51000000D01*
G37*
X39000000Y-40500000D02*
X37500000Y-40500000D01*
X37500000Y-45000000D01*
X39000000Y-45000000D01*
X39000000Y-48000000D01*
X40500000Y-48000000D01*
X40500000Y-49500000D01*
X36000000Y-49500000D01*
X36000000Y-51000000D01*
X33000000Y-51000000D01*
X33000000Y-49500000D01*
X28500000Y-49500000D01*
X28500000Y-48000000D01*
X30000000Y-48000000D01*
X30000000Y-46500000D01*
X31500000Y-46500000D01*
X31500000Y-40500000D01*
X30000000Y-40500000D01*
X30000000Y-39000000D01*
X39000000Y-39000000D01*
X39000000Y-40500000D01*
G36*
X39000000Y-40500000D02*
G01*
X37500000Y-40500000D01*
X37500000Y-45000000D01*
X39000000Y-45000000D01*
X39000000Y-48000000D01*
X40500000Y-48000000D01*
X40500000Y-49500000D01*
X36000000Y-49500000D01*
X36000000Y-51000000D01*
X33000000Y-51000000D01*
X33000000Y-49500000D01*
X28500000Y-49500000D01*
X28500000Y-48000000D01*
X30000000Y-48000000D01*
X30000000Y-46500000D01*
X31500000Y-46500000D01*
X31500000Y-40500000D01*
X30000000Y-40500000D01*
X30000000Y-39000000D01*
X39000000Y-39000000D01*
X39000000Y-40500000D01*
G37*
X24000000Y-25500000D02*
X25500000Y-25500000D01*
X25500000Y-30000000D01*
X24000000Y-30000000D01*
X24000000Y-31500000D01*
X22500000Y-31500000D01*
X22500000Y-30000000D01*
X21000000Y-30000000D01*
X21000000Y-24000000D01*
X19500000Y-24000000D01*
X19500000Y-22500000D01*
X21000000Y-22500000D01*
X21000000Y-19500000D01*
X22500000Y-19500000D01*
X22500000Y-16500000D01*
X24000000Y-16500000D01*
X24000000Y-25500000D01*
G36*
X24000000Y-25500000D02*
G01*
X25500000Y-25500000D01*
X25500000Y-30000000D01*
X24000000Y-30000000D01*
X24000000Y-31500000D01*
X22500000Y-31500000D01*
X22500000Y-30000000D01*
X21000000Y-30000000D01*
X21000000Y-24000000D01*
X19500000Y-24000000D01*
X19500000Y-22500000D01*
X21000000Y-22500000D01*
X21000000Y-19500000D01*
X22500000Y-19500000D01*
X22500000Y-16500000D01*
X24000000Y-16500000D01*
X24000000Y-25500000D01*
G37*
M02*
